STARTFONT 2.1
COMMENT
COMMENT Converted from OpenType font "MesloLGM-Bold.ttf" by "otf2bdf 3.0".
COMMENT
FONT -FreeType-Meslo LG M-Bold-R-Normal--17-120-100-100-P-85-ISO10646-1
SIZE 12 100 100
FONTBOUNDINGBOX 19 24 -7 -7
STARTPROPERTIES 19
FOUNDRY "FreeType"
FAMILY_NAME "Meslo LG M"
WEIGHT_NAME "Bold"
SLANT "R"
SETWIDTH_NAME "Normal"
ADD_STYLE_NAME ""
PIXEL_SIZE 17
POINT_SIZE 120
RESOLUTION_X 100
RESOLUTION_Y 100
SPACING "P"
AVERAGE_WIDTH 85
CHARSET_REGISTRY "ISO10646"
CHARSET_ENCODING "1"
FONT_ASCENT 16
FONT_DESCENT 4
COPYRIGHT "Copyright © 2009 Apple Inc. Copyright ©  2006 by Tavmjong Bah. Copyright © 2003 by Bitstream, Inc. All Rights Reserved."
_OTF_FONTFILE "MesloLGM-Bold.ttf"
_OTF_PSNAME "MesloLGM-Bold"
ENDPROPERTIES
CHARS 2929
STARTCHAR 0020
ENCODING 32
SWIDTH 600 0
DWIDTH 10 0
BBX 0 0 0 0
BITMAP
ENDCHAR
STARTCHAR 0021
ENCODING 33
SWIDTH 600 0
DWIDTH 10 0
BBX 2 12 4 0
BITMAP
C0
C0
C0
C0
C0
C0
C0
C0
00
00
C0
C0
ENDCHAR
STARTCHAR 0022
ENCODING 34
SWIDTH 600 0
DWIDTH 10 0
BBX 6 4 2 8
BITMAP
CC
CC
CC
CC
ENDCHAR
STARTCHAR 0023
ENCODING 35
SWIDTH 600 0
DWIDTH 10 0
BBX 10 12 0 0
BITMAP
0D80
0980
1980
7FC0
7FC0
1300
3300
FF80
FF80
2600
6600
6400
ENDCHAR
STARTCHAR 0024
ENCODING 36
SWIDTH 600 0
DWIDTH 10 0
BBX 7 15 1 -3
BITMAP
10
10
7C
FC
D0
D0
F8
3E
16
16
FE
7C
10
10
10
ENDCHAR
STARTCHAR 0025
ENCODING 37
SWIDTH 600 0
DWIDTH 10 0
BBX 9 12 1 0
BITMAP
7000
F800
8800
8800
F880
7700
1C00
6300
8780
0480
0780
0300
ENDCHAR
STARTCHAR 0026
ENCODING 38
SWIDTH 600 0
DWIDTH 10 0
BBX 9 12 0 0
BITMAP
1E00
3E00
3000
3000
3800
7C00
6D80
CF80
C780
E300
7F00
3D80
ENDCHAR
STARTCHAR 0027
ENCODING 39
SWIDTH 600 0
DWIDTH 10 0
BBX 2 4 4 8
BITMAP
C0
C0
C0
C0
ENDCHAR
STARTCHAR 0028
ENCODING 40
SWIDTH 600 0
DWIDTH 10 0
BBX 4 14 3 -2
BITMAP
30
30
60
60
E0
C0
C0
C0
C0
E0
60
60
30
30
ENDCHAR
STARTCHAR 0029
ENCODING 41
SWIDTH 600 0
DWIDTH 10 0
BBX 4 14 3 -2
BITMAP
C0
60
60
70
30
30
30
30
30
30
70
60
60
C0
ENDCHAR
STARTCHAR 002A
ENCODING 42
SWIDTH 600 0
DWIDTH 10 0
BBX 10 9 0 3
BITMAP
0C00
0C00
EDC0
3F00
1E00
3F00
EDC0
0C00
0C00
ENDCHAR
STARTCHAR 002B
ENCODING 43
SWIDTH 600 0
DWIDTH 10 0
BBX 9 9 1 0
BITMAP
1800
1800
1800
1800
FF80
FF80
1800
1800
1800
ENDCHAR
STARTCHAR 002C
ENCODING 44
SWIDTH 600 0
DWIDTH 10 0
BBX 3 5 3 -2
BITMAP
60
60
60
60
C0
ENDCHAR
STARTCHAR 002D
ENCODING 45
SWIDTH 600 0
DWIDTH 10 0
BBX 8 2 1 4
BITMAP
FF
FF
ENDCHAR
STARTCHAR 002E
ENCODING 46
SWIDTH 600 0
DWIDTH 10 0
BBX 2 3 4 0
BITMAP
C0
C0
C0
ENDCHAR
STARTCHAR 002F
ENCODING 47
SWIDTH 600 0
DWIDTH 10 0
BBX 8 13 1 -1
BITMAP
03
06
06
0C
0C
18
18
10
30
20
60
40
C0
ENDCHAR
STARTCHAR 0030
ENCODING 48
SWIDTH 600 0
DWIDTH 10 0
BBX 8 12 1 0
BITMAP
3C
7E
E6
E7
CF
DB
D3
F3
E7
E7
7E
3C
ENDCHAR
STARTCHAR 0031
ENCODING 49
SWIDTH 600 0
DWIDTH 10 0
BBX 7 12 2 0
BITMAP
F8
F8
98
18
18
18
18
18
18
18
FE
FE
ENDCHAR
STARTCHAR 0032
ENCODING 50
SWIDTH 600 0
DWIDTH 10 0
BBX 7 12 1 0
BITMAP
7C
FE
86
06
06
0E
1C
38
70
60
FE
FE
ENDCHAR
STARTCHAR 0033
ENCODING 51
SWIDTH 600 0
DWIDTH 10 0
BBX 8 12 1 0
BITMAP
7E
7F
03
03
03
1E
1E
03
03
83
FF
7E
ENDCHAR
STARTCHAR 0034
ENCODING 52
SWIDTH 600 0
DWIDTH 10 0
BBX 9 12 1 0
BITMAP
0E00
0E00
1E00
3600
3600
6600
C600
FF80
FF80
0600
0600
0600
ENDCHAR
STARTCHAR 0035
ENCODING 53
SWIDTH 600 0
DWIDTH 10 0
BBX 7 12 1 0
BITMAP
FE
FE
C0
C0
F8
FE
0E
06
06
0E
FE
F8
ENDCHAR
STARTCHAR 0036
ENCODING 54
SWIDTH 600 0
DWIDTH 10 0
BBX 8 12 1 0
BITMAP
3E
7E
60
E0
DE
FE
E7
E3
E3
E7
7E
3C
ENDCHAR
STARTCHAR 0037
ENCODING 55
SWIDTH 600 0
DWIDTH 10 0
BBX 8 12 1 0
BITMAP
FF
FF
07
06
0E
0C
1C
1C
18
38
30
70
ENDCHAR
STARTCHAR 0038
ENCODING 56
SWIDTH 600 0
DWIDTH 10 0
BBX 8 12 1 0
BITMAP
7C
FE
E6
C6
E6
7C
7E
E7
C3
E7
FF
3C
ENDCHAR
STARTCHAR 0039
ENCODING 57
SWIDTH 600 0
DWIDTH 10 0
BBX 8 12 1 0
BITMAP
3C
7E
E7
C7
C7
E7
7F
3B
07
06
7E
7C
ENDCHAR
STARTCHAR 003A
ENCODING 58
SWIDTH 600 0
DWIDTH 10 0
BBX 2 8 4 0
BITMAP
C0
C0
C0
00
00
C0
C0
C0
ENDCHAR
STARTCHAR 003B
ENCODING 59
SWIDTH 600 0
DWIDTH 10 0
BBX 3 11 3 -2
BITMAP
60
60
60
00
00
00
60
60
60
60
C0
ENDCHAR
STARTCHAR 003C
ENCODING 60
SWIDTH 600 0
DWIDTH 10 0
BBX 8 8 1 1
BITMAP
03
0F
7C
E0
E0
3C
0F
03
ENDCHAR
STARTCHAR 003D
ENCODING 61
SWIDTH 600 0
DWIDTH 10 0
BBX 8 6 1 2
BITMAP
FF
FF
00
00
FF
FF
ENDCHAR
STARTCHAR 003E
ENCODING 62
SWIDTH 600 0
DWIDTH 10 0
BBX 8 8 1 1
BITMAP
C0
F0
3E
07
07
3E
F0
C0
ENDCHAR
STARTCHAR 003F
ENCODING 63
SWIDTH 600 0
DWIDTH 10 0
BBX 7 12 2 0
BITMAP
7C
FE
86
06
0C
18
38
30
30
00
30
30
ENDCHAR
STARTCHAR 0040
ENCODING 64
SWIDTH 600 0
DWIDTH 10 0
BBX 9 14 0 -3
BITMAP
0E00
3F00
7180
6080
C680
CF80
D880
D880
D980
DF80
6680
7000
3F80
1F00
ENDCHAR
STARTCHAR 0041
ENCODING 65
SWIDTH 600 0
DWIDTH 10 0
BBX 9 12 0 0
BITMAP
1E00
1E00
1E00
1E00
3700
3300
3300
7F00
7F80
6180
6180
E180
ENDCHAR
STARTCHAR 0042
ENCODING 66
SWIDTH 600 0
DWIDTH 10 0
BBX 8 12 1 0
BITMAP
FC
FF
C7
C3
C7
FE
FE
C3
C3
C3
FF
FE
ENDCHAR
STARTCHAR 0043
ENCODING 67
SWIDTH 600 0
DWIDTH 10 0
BBX 7 12 1 0
BITMAP
3E
7E
62
E0
C0
C0
C0
C0
E0
62
7E
3E
ENDCHAR
STARTCHAR 0044
ENCODING 68
SWIDTH 600 0
DWIDTH 10 0
BBX 8 12 1 0
BITMAP
F8
FE
C6
C7
C3
C3
C3
C3
C7
C6
FE
F8
ENDCHAR
STARTCHAR 0045
ENCODING 69
SWIDTH 600 0
DWIDTH 10 0
BBX 7 12 1 0
BITMAP
FE
FE
C0
C0
C0
FE
FE
C0
C0
C0
FE
FE
ENDCHAR
STARTCHAR 0046
ENCODING 70
SWIDTH 600 0
DWIDTH 10 0
BBX 7 12 1 0
BITMAP
FE
FE
C0
C0
C0
FE
FE
C0
C0
C0
C0
C0
ENDCHAR
STARTCHAR 0047
ENCODING 71
SWIDTH 600 0
DWIDTH 10 0
BBX 8 12 1 0
BITMAP
1E
7F
61
E0
C0
CF
CF
E3
E3
63
7F
1E
ENDCHAR
STARTCHAR 0048
ENCODING 72
SWIDTH 600 0
DWIDTH 10 0
BBX 7 12 1 0
BITMAP
C6
C6
C6
C6
C6
FE
FE
C6
C6
C6
C6
C6
ENDCHAR
STARTCHAR 0049
ENCODING 73
SWIDTH 600 0
DWIDTH 10 0
BBX 7 12 1 0
BITMAP
FE
FE
18
18
18
18
18
18
18
18
FE
FE
ENDCHAR
STARTCHAR 004A
ENCODING 74
SWIDTH 600 0
DWIDTH 10 0
BBX 7 12 1 0
BITMAP
3E
3E
06
06
06
06
06
06
06
86
FE
7C
ENDCHAR
STARTCHAR 004B
ENCODING 75
SWIDTH 600 0
DWIDTH 10 0
BBX 9 12 1 0
BITMAP
C300
C700
CE00
DC00
D800
F800
FC00
EC00
CE00
C600
C700
C380
ENDCHAR
STARTCHAR 004C
ENCODING 76
SWIDTH 600 0
DWIDTH 10 0
BBX 7 12 2 0
BITMAP
C0
C0
C0
C0
C0
C0
C0
C0
C0
C0
FE
FE
ENDCHAR
STARTCHAR 004D
ENCODING 77
SWIDTH 600 0
DWIDTH 10 0
BBX 8 12 1 0
BITMAP
E7
E7
F7
D7
DF
DB
DB
DB
C3
C3
C3
C3
ENDCHAR
STARTCHAR 004E
ENCODING 78
SWIDTH 600 0
DWIDTH 10 0
BBX 8 12 1 0
BITMAP
E3
E3
F3
F3
D3
DB
DB
CB
CF
CF
C7
C7
ENDCHAR
STARTCHAR 004F
ENCODING 79
SWIDTH 600 0
DWIDTH 10 0
BBX 8 12 1 0
BITMAP
3C
7E
67
E3
C3
C3
C3
C3
E3
E7
7E
3C
ENDCHAR
STARTCHAR 0050
ENCODING 80
SWIDTH 600 0
DWIDTH 10 0
BBX 8 12 1 0
BITMAP
FC
FE
C7
C3
C3
C7
FE
FC
C0
C0
C0
C0
ENDCHAR
STARTCHAR 0051
ENCODING 81
SWIDTH 600 0
DWIDTH 10 0
BBX 8 14 1 -2
BITMAP
3C
7E
67
E3
C3
C3
C3
C3
E3
67
7E
3E
07
02
ENDCHAR
STARTCHAR 0052
ENCODING 82
SWIDTH 600 0
DWIDTH 10 0
BBX 8 12 1 0
BITMAP
FC
FE
C6
C6
C6
FE
FC
CC
CE
C6
C7
C3
ENDCHAR
STARTCHAR 0053
ENCODING 83
SWIDTH 600 0
DWIDTH 10 0
BBX 8 12 1 0
BITMAP
3E
7E
E2
C0
E0
7C
3E
07
03
87
FF
7C
ENDCHAR
STARTCHAR 0054
ENCODING 84
SWIDTH 600 0
DWIDTH 10 0
BBX 8 12 1 0
BITMAP
FF
FF
18
18
18
18
18
18
18
18
18
18
ENDCHAR
STARTCHAR 0055
ENCODING 85
SWIDTH 600 0
DWIDTH 10 0
BBX 8 12 1 0
BITMAP
C3
C3
C3
C3
C3
C3
C3
C3
C3
E7
7E
3C
ENDCHAR
STARTCHAR 0056
ENCODING 86
SWIDTH 600 0
DWIDTH 10 0
BBX 8 12 1 0
BITMAP
C3
C3
C7
E7
66
66
66
6E
7C
3C
3C
3C
ENDCHAR
STARTCHAR 0057
ENCODING 87
SWIDTH 600 0
DWIDTH 10 0
BBX 9 12 0 0
BITMAP
C180
C180
C180
DD80
DD80
DD80
D580
D780
5700
7700
7300
6300
ENDCHAR
STARTCHAR 0058
ENCODING 88
SWIDTH 600 0
DWIDTH 10 0
BBX 9 12 0 0
BITMAP
6180
7380
3300
3F00
1E00
1C00
1C00
1E00
3F00
3300
7380
E180
ENDCHAR
STARTCHAR 0059
ENCODING 89
SWIDTH 600 0
DWIDTH 10 0
BBX 9 12 1 0
BITMAP
C380
E300
6700
7600
3E00
3C00
1C00
1800
1800
1800
1800
1800
ENDCHAR
STARTCHAR 005A
ENCODING 90
SWIDTH 600 0
DWIDTH 10 0
BBX 8 12 1 0
BITMAP
FF
FF
07
0E
0C
1C
38
30
70
E0
FF
FF
ENDCHAR
STARTCHAR 005B
ENCODING 91
SWIDTH 600 0
DWIDTH 10 0
BBX 4 15 3 -3
BITMAP
F0
F0
C0
C0
C0
C0
C0
C0
C0
C0
C0
C0
C0
F0
F0
ENDCHAR
STARTCHAR 005C
ENCODING 92
SWIDTH 600 0
DWIDTH 10 0
BBX 8 13 1 -1
BITMAP
C0
40
60
20
30
10
18
08
0C
0C
06
06
03
ENDCHAR
STARTCHAR 005D
ENCODING 93
SWIDTH 600 0
DWIDTH 10 0
BBX 4 15 2 -3
BITMAP
F0
F0
30
30
30
30
30
30
30
30
30
30
30
F0
F0
ENDCHAR
STARTCHAR 005E
ENCODING 94
SWIDTH 600 0
DWIDTH 10 0
BBX 8 4 1 8
BITMAP
38
3C
66
C3
ENDCHAR
STARTCHAR 005F
ENCODING 95
SWIDTH 600 0
DWIDTH 10 0
BBX 10 2 0 -3
BITMAP
FFC0
FFC0
ENDCHAR
STARTCHAR 0060
ENCODING 96
SWIDTH 600 0
DWIDTH 10 0
BBX 4 3 2 10
BITMAP
C0
60
30
ENDCHAR
STARTCHAR 0061
ENCODING 97
SWIDTH 600 0
DWIDTH 10 0
BBX 8 9 1 0
BITMAP
7E
7F
03
3F
FF
E3
C7
FF
7B
ENDCHAR
STARTCHAR 0062
ENCODING 98
SWIDTH 600 0
DWIDTH 10 0
BBX 8 12 1 0
BITMAP
C0
C0
C0
DC
FE
E7
C3
C3
C3
E7
FE
DC
ENDCHAR
STARTCHAR 0063
ENCODING 99
SWIDTH 600 0
DWIDTH 10 0
BBX 7 9 1 0
BITMAP
3E
7E
E0
C0
C0
C0
E0
7E
3E
ENDCHAR
STARTCHAR 0064
ENCODING 100
SWIDTH 600 0
DWIDTH 10 0
BBX 8 12 1 0
BITMAP
03
03
03
3B
7F
E7
C3
C3
C3
E7
7F
3B
ENDCHAR
STARTCHAR 0065
ENCODING 101
SWIDTH 600 0
DWIDTH 10 0
BBX 8 9 1 0
BITMAP
3C
7F
E3
FF
FF
C0
E1
7F
3F
ENDCHAR
STARTCHAR 0066
ENCODING 102
SWIDTH 600 0
DWIDTH 10 0
BBX 7 12 1 0
BITMAP
1E
3E
30
FE
FE
30
30
30
30
30
30
30
ENDCHAR
STARTCHAR 0067
ENCODING 103
SWIDTH 600 0
DWIDTH 10 0
BBX 8 12 1 -3
BITMAP
3B
7F
E7
C3
C3
C3
E7
7F
3B
07
7E
7C
ENDCHAR
STARTCHAR 0068
ENCODING 104
SWIDTH 600 0
DWIDTH 10 0
BBX 7 12 1 0
BITMAP
C0
C0
C0
DC
FE
E6
C6
C6
C6
C6
C6
C6
ENDCHAR
STARTCHAR 0069
ENCODING 105
SWIDTH 600 0
DWIDTH 10 0
BBX 8 13 1 0
BITMAP
18
18
18
00
78
78
18
18
18
18
18
FF
FF
ENDCHAR
STARTCHAR 006A
ENCODING 106
SWIDTH 600 0
DWIDTH 10 0
BBX 5 17 1 -3
BITMAP
18
18
18
00
00
78
78
18
18
18
18
18
18
18
18
F8
F0
ENDCHAR
STARTCHAR 006B
ENCODING 107
SWIDTH 600 0
DWIDTH 10 0
BBX 8 12 1 0
BITMAP
C0
C0
C0
C6
CC
D8
F8
F8
CC
CE
C6
C7
ENDCHAR
STARTCHAR 006C
ENCODING 108
SWIDTH 600 0
DWIDTH 10 0
BBX 8 12 1 0
BITMAP
F0
F0
30
30
30
30
30
30
30
38
3F
1F
ENDCHAR
STARTCHAR 006D
ENCODING 109
SWIDTH 600 0
DWIDTH 10 0
BBX 8 9 1 0
BITMAP
DF
FF
DB
DB
DB
DB
DB
DB
DB
ENDCHAR
STARTCHAR 006E
ENCODING 110
SWIDTH 600 0
DWIDTH 10 0
BBX 7 9 1 0
BITMAP
DC
FE
E6
C6
C6
C6
C6
C6
C6
ENDCHAR
STARTCHAR 006F
ENCODING 111
SWIDTH 600 0
DWIDTH 10 0
BBX 8 9 1 0
BITMAP
3C
7E
E7
C3
C3
C3
E7
7E
3C
ENDCHAR
STARTCHAR 0070
ENCODING 112
SWIDTH 600 0
DWIDTH 10 0
BBX 8 12 1 -3
BITMAP
DC
FE
E7
C3
C3
C3
E7
FE
DC
C0
C0
C0
ENDCHAR
STARTCHAR 0071
ENCODING 113
SWIDTH 600 0
DWIDTH 10 0
BBX 8 12 1 -3
BITMAP
3B
7F
E7
C3
C3
C3
E7
7F
3B
03
03
03
ENDCHAR
STARTCHAR 0072
ENCODING 114
SWIDTH 600 0
DWIDTH 10 0
BBX 7 9 2 0
BITMAP
DE
FE
E2
E0
C0
C0
C0
C0
C0
ENDCHAR
STARTCHAR 0073
ENCODING 115
SWIDTH 600 0
DWIDTH 10 0
BBX 7 9 2 0
BITMAP
7E
FE
C2
F0
7C
0E
06
FE
FC
ENDCHAR
STARTCHAR 0074
ENCODING 116
SWIDTH 600 0
DWIDTH 10 0
BBX 8 11 1 1
BITMAP
30
30
FF
FF
30
30
30
30
30
3F
1F
ENDCHAR
STARTCHAR 0075
ENCODING 117
SWIDTH 600 0
DWIDTH 10 0
BBX 7 9 1 0
BITMAP
C6
C6
C6
C6
C6
C6
C6
FE
76
ENDCHAR
STARTCHAR 0076
ENCODING 118
SWIDTH 600 0
DWIDTH 10 0
BBX 8 9 1 0
BITMAP
C3
C7
E6
66
66
7C
3C
3C
3C
ENDCHAR
STARTCHAR 0077
ENCODING 119
SWIDTH 600 0
DWIDTH 10 0
BBX 10 9 0 0
BITMAP
C0C0
C0C0
CD80
4D80
7D80
7F80
7780
7380
3300
ENDCHAR
STARTCHAR 0078
ENCODING 120
SWIDTH 600 0
DWIDTH 10 0
BBX 8 9 1 0
BITMAP
E7
66
7C
3C
18
3C
7E
E6
C7
ENDCHAR
STARTCHAR 0079
ENCODING 121
SWIDTH 600 0
DWIDTH 10 0
BBX 8 12 1 -3
BITMAP
C3
C7
E6
66
7E
3C
3C
38
18
38
F0
E0
ENDCHAR
STARTCHAR 007A
ENCODING 122
SWIDTH 600 0
DWIDTH 10 0
BBX 7 9 1 0
BITMAP
FE
FE
0E
1C
38
70
E0
FE
FE
ENDCHAR
STARTCHAR 007B
ENCODING 123
SWIDTH 600 0
DWIDTH 10 0
BBX 7 15 1 -3
BITMAP
1E
3E
30
30
30
30
30
F0
F0
30
30
30
30
3E
1E
ENDCHAR
STARTCHAR 007C
ENCODING 124
SWIDTH 600 0
DWIDTH 10 0
BBX 2 16 4 -4
BITMAP
C0
C0
C0
C0
C0
C0
C0
C0
C0
C0
C0
C0
C0
C0
C0
C0
ENDCHAR
STARTCHAR 007D
ENCODING 125
SWIDTH 600 0
DWIDTH 10 0
BBX 7 15 2 -3
BITMAP
E0
F0
30
30
30
30
38
1E
1E
38
30
30
30
F0
E0
ENDCHAR
STARTCHAR 007E
ENCODING 126
SWIDTH 600 0
DWIDTH 10 0
BBX 10 5 0 2
BITMAP
3000
7880
CCC0
0F80
0700
ENDCHAR
STARTCHAR 00A0
ENCODING 160
SWIDTH 600 0
DWIDTH 10 0
BBX 0 0 0 0
BITMAP
ENDCHAR
STARTCHAR 00A1
ENCODING 161
SWIDTH 600 0
DWIDTH 10 0
BBX 2 12 4 0
BITMAP
C0
C0
00
00
C0
C0
C0
C0
C0
C0
C0
C0
ENDCHAR
STARTCHAR 00A2
ENCODING 162
SWIDTH 600 0
DWIDTH 10 0
BBX 7 14 1 -2
BITMAP
08
08
08
3E
7E
E8
C8
C8
C8
E8
7E
3E
08
08
ENDCHAR
STARTCHAR 00A3
ENCODING 163
SWIDTH 600 0
DWIDTH 10 0
BBX 8 12 1 0
BITMAP
1F
3F
38
30
30
FE
FE
30
30
30
FF
FF
ENDCHAR
STARTCHAR 00A4
ENCODING 164
SWIDTH 600 0
DWIDTH 10 0
BBX 7 7 2 2
BITMAP
FE
7C
44
44
7C
FE
80
ENDCHAR
STARTCHAR 00A5
ENCODING 165
SWIDTH 600 0
DWIDTH 10 0
BBX 9 12 0 0
BITMAP
C380
E380
6700
6700
7600
FF80
1C00
FF80
FF80
1800
1800
1800
ENDCHAR
STARTCHAR 00A6
ENCODING 166
SWIDTH 600 0
DWIDTH 10 0
BBX 2 14 4 -3
BITMAP
C0
C0
C0
C0
C0
C0
00
00
C0
C0
C0
C0
C0
C0
ENDCHAR
STARTCHAR 00A7
ENCODING 167
SWIDTH 600 0
DWIDTH 10 0
BBX 7 14 1 -2
BITMAP
3C
7C
60
60
38
FE
C6
E6
7E
1C
0E
06
7E
7C
ENDCHAR
STARTCHAR 00A8
ENCODING 168
SWIDTH 600 0
DWIDTH 10 0
BBX 5 2 2 10
BITMAP
D8
D8
ENDCHAR
STARTCHAR 00A9
ENCODING 169
SWIDTH 600 0
DWIDTH 10 0
BBX 10 10 0 1
BITMAP
1E00
3100
4080
DEC0
B040
B040
B040
DEC0
6180
1E00
ENDCHAR
STARTCHAR 00AA
ENCODING 170
SWIDTH 600 0
DWIDTH 10 0
BBX 6 9 2 3
BITMAP
78
7C
0C
7C
CC
FC
7C
7C
7C
ENDCHAR
STARTCHAR 00AB
ENCODING 171
SWIDTH 600 0
DWIDTH 10 0
BBX 7 7 1 2
BITMAP
12
36
EC
C8
64
32
10
ENDCHAR
STARTCHAR 00AC
ENCODING 172
SWIDTH 600 0
DWIDTH 10 0
BBX 9 4 0 2
BITMAP
FF80
FF80
0180
0180
ENDCHAR
STARTCHAR 00AD
ENCODING 173
SWIDTH 600 0
DWIDTH 10 0
BBX 8 2 1 4
BITMAP
FF
FF
ENDCHAR
STARTCHAR 00AE
ENCODING 174
SWIDTH 600 0
DWIDTH 10 0
BBX 10 10 0 1
BITMAP
1E00
2180
4080
9EC0
9240
9C40
9640
D2C0
6180
1E00
ENDCHAR
STARTCHAR 00AF
ENCODING 175
SWIDTH 600 0
DWIDTH 10 0
BBX 8 2 1 10
BITMAP
FF
FF
ENDCHAR
STARTCHAR 00B0
ENCODING 176
SWIDTH 600 0
DWIDTH 10 0
BBX 5 6 2 6
BITMAP
70
F8
88
88
F8
70
ENDCHAR
STARTCHAR 00B1
ENCODING 177
SWIDTH 600 0
DWIDTH 10 0
BBX 8 10 1 0
BITMAP
18
18
18
FF
FF
18
18
00
FF
FF
ENDCHAR
STARTCHAR 00B2
ENCODING 178
SWIDTH 600 0
DWIDTH 10 0
BBX 5 6 2 5
BITMAP
F0
18
18
30
40
F8
ENDCHAR
STARTCHAR 00B3
ENCODING 179
SWIDTH 600 0
DWIDTH 10 0
BBX 5 7 3 5
BITMAP
F0
18
18
60
18
08
F0
ENDCHAR
STARTCHAR 00B4
ENCODING 180
SWIDTH 600 0
DWIDTH 10 0
BBX 4 3 4 10
BITMAP
30
60
C0
ENDCHAR
STARTCHAR 00B5
ENCODING 181
SWIDTH 600 0
DWIDTH 10 0
BBX 8 12 1 -3
BITMAP
C6
C6
C6
C6
C6
C6
E6
FF
DB
C0
C0
C0
ENDCHAR
STARTCHAR 00B6
ENCODING 182
SWIDTH 600 0
DWIDTH 10 0
BBX 8 13 1 -2
BITMAP
7F
FB
FB
FB
FB
7B
1B
1B
1B
1B
1B
1B
1B
ENDCHAR
STARTCHAR 00B7
ENCODING 183
SWIDTH 600 0
DWIDTH 10 0
BBX 2 3 4 4
BITMAP
C0
C0
C0
ENDCHAR
STARTCHAR 00B8
ENCODING 184
SWIDTH 600 0
DWIDTH 10 0
BBX 3 3 3 -2
BITMAP
40
20
E0
ENDCHAR
STARTCHAR 00B9
ENCODING 185
SWIDTH 600 0
DWIDTH 10 0
BBX 5 6 3 5
BITMAP
F0
30
30
30
30
F8
ENDCHAR
STARTCHAR 00BA
ENCODING 186
SWIDTH 600 0
DWIDTH 10 0
BBX 6 9 3 3
BITMAP
70
F8
8C
8C
8C
F8
78
FC
FC
ENDCHAR
STARTCHAR 00BB
ENCODING 187
SWIDTH 600 0
DWIDTH 10 0
BBX 7 7 2 2
BITMAP
88
CC
76
32
64
C8
80
ENDCHAR
STARTCHAR 00BC
ENCODING 188
SWIDTH 600 0
DWIDTH 10 0
BBX 8 15 0 -2
BITMAP
F0
30
30
30
30
F8
07
F8
06
06
0A
1A
1F
02
02
ENDCHAR
STARTCHAR 00BD
ENCODING 189
SWIDTH 600 0
DWIDTH 10 0
BBX 9 15 0 -2
BITMAP
F000
3000
3000
3000
3000
F800
0380
1E00
F000
8F00
0180
0100
0600
0C00
0F80
ENDCHAR
STARTCHAR 00BE
ENCODING 190
SWIDTH 600 0
DWIDTH 10 0
BBX 8 16 1 -3
BITMAP
F0
18
18
60
18
08
F0
0F
F0
06
06
0A
12
1F
02
02
ENDCHAR
STARTCHAR 00BF
ENCODING 191
SWIDTH 600 0
DWIDTH 10 0
BBX 7 12 1 0
BITMAP
18
18
00
18
18
38
30
60
C0
C2
FE
7C
ENDCHAR
STARTCHAR 00C0
ENCODING 192
SWIDTH 600 0
DWIDTH 10 0
BBX 9 15 0 1
BITMAP
1800
0C00
0000
1C00
1E00
1E00
1E00
3700
3300
3300
7F00
7F80
6180
6180
E180
ENDCHAR
STARTCHAR 00C1
ENCODING 193
SWIDTH 600 0
DWIDTH 10 0
BBX 9 15 0 1
BITMAP
0600
0C00
0000
1C00
1E00
1E00
1E00
3700
3300
3300
7F00
7F80
6180
6180
E180
ENDCHAR
STARTCHAR 00C2
ENCODING 194
SWIDTH 600 0
DWIDTH 10 0
BBX 9 15 0 1
BITMAP
1E00
3300
0000
1C00
1E00
1E00
1E00
3700
3300
3300
7F00
7F80
6180
6180
E180
ENDCHAR
STARTCHAR 00C3
ENCODING 195
SWIDTH 600 0
DWIDTH 10 0
BBX 10 15 0 0
BITMAP
3900
2700
0000
1E00
1E00
1E00
3F00
3300
3300
3300
7F80
7F80
6180
E180
E1C0
ENDCHAR
STARTCHAR 00C4
ENCODING 196
SWIDTH 600 0
DWIDTH 10 0
BBX 9 15 0 0
BITMAP
3600
3600
0000
1C00
1C00
1E00
3600
3600
3700
7700
7F00
7F00
6380
E180
C180
ENDCHAR
STARTCHAR 00C5
ENCODING 197
SWIDTH 600 0
DWIDTH 10 0
BBX 8 15 1 0
BITMAP
18
24
24
18
3C
3C
3C
34
66
66
7E
7E
C3
C3
C3
ENDCHAR
STARTCHAR 00C6
ENCODING 198
SWIDTH 600 0
DWIDTH 10 0
BBX 10 12 0 0
BITMAP
1FC0
1FC0
3600
3600
3600
3780
6780
7E00
7E00
6600
C7C0
C7C0
ENDCHAR
STARTCHAR 00C7
ENCODING 199
SWIDTH 600 0
DWIDTH 10 0
BBX 7 15 1 -3
BITMAP
3E
7E
60
E0
C0
C0
C0
C0
E0
72
7E
3E
04
04
3C
ENDCHAR
STARTCHAR 00C8
ENCODING 200
SWIDTH 600 0
DWIDTH 10 0
BBX 7 15 1 1
BITMAP
30
18
00
FE
FE
C0
C0
C0
FE
FE
C0
C0
C0
FE
FE
ENDCHAR
STARTCHAR 00C9
ENCODING 201
SWIDTH 600 0
DWIDTH 10 0
BBX 7 15 1 1
BITMAP
0C
18
00
FE
FE
C0
C0
C0
FE
FE
C0
C0
C0
FE
FE
ENDCHAR
STARTCHAR 00CA
ENCODING 202
SWIDTH 600 0
DWIDTH 10 0
BBX 7 15 1 1
BITMAP
3C
64
00
FE
FE
C0
C0
C0
FE
FE
C0
C0
C0
FE
FE
ENDCHAR
STARTCHAR 00CB
ENCODING 203
SWIDTH 600 0
DWIDTH 10 0
BBX 7 15 1 0
BITMAP
6C
6C
00
FE
FE
C0
C0
C0
FE
FE
C0
C0
C0
FE
FE
ENDCHAR
STARTCHAR 00CC
ENCODING 204
SWIDTH 600 0
DWIDTH 10 0
BBX 7 15 1 0
BITMAP
30
18
00
FE
FE
18
18
18
18
18
18
18
18
FE
FE
ENDCHAR
STARTCHAR 00CD
ENCODING 205
SWIDTH 600 0
DWIDTH 10 0
BBX 7 15 1 1
BITMAP
0C
18
00
FE
FE
18
18
18
18
18
18
18
18
FE
FE
ENDCHAR
STARTCHAR 00CE
ENCODING 206
SWIDTH 600 0
DWIDTH 10 0
BBX 7 15 1 0
BITMAP
38
64
00
FE
FE
18
18
18
18
18
18
18
18
FE
FE
ENDCHAR
STARTCHAR 00CF
ENCODING 207
SWIDTH 600 0
DWIDTH 10 0
BBX 7 15 1 0
BITMAP
6C
6C
00
FE
FE
18
18
18
18
18
18
18
18
FE
FE
ENDCHAR
STARTCHAR 00D0
ENCODING 208
SWIDTH 600 0
DWIDTH 10 0
BBX 9 12 0 0
BITMAP
7C00
7F00
6300
6380
6180
F980
F980
6180
6380
6300
7F00
7C00
ENDCHAR
STARTCHAR 00D1
ENCODING 209
SWIDTH 600 0
DWIDTH 10 0
BBX 8 15 1 0
BITMAP
72
4E
00
E3
E3
E3
F3
F3
DB
DB
CB
CF
C7
C7
C7
ENDCHAR
STARTCHAR 00D2
ENCODING 210
SWIDTH 600 0
DWIDTH 10 0
BBX 8 15 1 0
BITMAP
30
18
00
3C
7E
67
E3
C3
C3
C3
C3
E3
E7
7E
3C
ENDCHAR
STARTCHAR 00D3
ENCODING 211
SWIDTH 600 0
DWIDTH 10 0
BBX 8 15 1 0
BITMAP
0C
18
00
3C
7E
67
E3
C3
C3
C3
C3
E3
E7
7E
3C
ENDCHAR
STARTCHAR 00D4
ENCODING 212
SWIDTH 600 0
DWIDTH 10 0
BBX 8 15 1 0
BITMAP
3C
26
00
3C
7E
67
E3
C3
C3
C3
C3
E3
E7
7E
3C
ENDCHAR
STARTCHAR 00D5
ENCODING 213
SWIDTH 600 0
DWIDTH 10 0
BBX 8 15 1 0
BITMAP
72
4E
00
3C
7E
67
C3
C3
C3
C3
C3
C3
E7
7E
3C
ENDCHAR
STARTCHAR 00D6
ENCODING 214
SWIDTH 600 0
DWIDTH 10 0
BBX 8 15 1 0
BITMAP
36
36
00
3C
7E
67
E3
C3
C3
C3
C3
E3
E7
7E
3C
ENDCHAR
STARTCHAR 00D7
ENCODING 215
SWIDTH 600 0
DWIDTH 10 0
BBX 8 8 1 1
BITMAP
42
E7
7E
3C
3C
7E
E7
42
ENDCHAR
STARTCHAR 00D8
ENCODING 216
SWIDTH 600 0
DWIDTH 10 0
BBX 10 12 0 0
BITMAP
1EC0
3F80
3380
7780
6780
6F80
6D80
7980
7180
3380
7F00
DE00
ENDCHAR
STARTCHAR 00D9
ENCODING 217
SWIDTH 600 0
DWIDTH 10 0
BBX 8 15 1 1
BITMAP
30
18
00
C3
C3
C3
C3
C3
C3
C3
C3
C3
E7
7E
3C
ENDCHAR
STARTCHAR 00DA
ENCODING 218
SWIDTH 600 0
DWIDTH 10 0
BBX 8 15 1 1
BITMAP
0C
18
00
C3
C3
C3
C3
C3
C3
C3
C3
C3
E7
7E
3C
ENDCHAR
STARTCHAR 00DB
ENCODING 219
SWIDTH 600 0
DWIDTH 10 0
BBX 8 15 1 1
BITMAP
3C
66
00
C3
C3
C3
C3
C3
C3
C3
C3
C3
E7
7E
3C
ENDCHAR
STARTCHAR 00DC
ENCODING 220
SWIDTH 600 0
DWIDTH 10 0
BBX 8 15 1 0
BITMAP
66
66
00
C3
C3
C3
C3
C3
C3
C3
C3
C3
E7
7E
3C
ENDCHAR
STARTCHAR 00DD
ENCODING 221
SWIDTH 600 0
DWIDTH 10 0
BBX 9 15 1 0
BITMAP
0C00
1800
0000
C380
E300
6700
7600
3E00
3C00
1C00
1800
1800
1800
1800
1800
ENDCHAR
STARTCHAR 00DE
ENCODING 222
SWIDTH 600 0
DWIDTH 10 0
BBX 8 12 1 0
BITMAP
C0
C0
FC
FE
C7
C3
C7
FF
FC
C0
C0
C0
ENDCHAR
STARTCHAR 00DF
ENCODING 223
SWIDTH 600 0
DWIDTH 10 0
BBX 8 12 1 0
BITMAP
7C
FE
C2
CC
D8
DC
CE
C7
C3
C3
DF
DE
ENDCHAR
STARTCHAR 00E0
ENCODING 224
SWIDTH 600 0
DWIDTH 10 0
BBX 8 13 1 0
BITMAP
60
30
18
00
7E
7F
03
3F
FF
E3
C7
E7
7B
ENDCHAR
STARTCHAR 00E1
ENCODING 225
SWIDTH 600 0
DWIDTH 10 0
BBX 8 13 1 0
BITMAP
06
0C
18
00
7E
7F
03
3F
FF
E3
C7
FF
7B
ENDCHAR
STARTCHAR 00E2
ENCODING 226
SWIDTH 600 0
DWIDTH 10 0
BBX 8 13 1 0
BITMAP
18
3C
66
00
7E
7F
03
3F
FF
E3
C7
FF
7B
ENDCHAR
STARTCHAR 00E3
ENCODING 227
SWIDTH 600 0
DWIDTH 10 0
BBX 8 12 1 0
BITMAP
72
4E
00
7E
7F
03
7F
FF
C3
C7
FF
7B
ENDCHAR
STARTCHAR 00E4
ENCODING 228
SWIDTH 600 0
DWIDTH 10 0
BBX 8 12 1 0
BITMAP
36
36
00
7E
7F
03
3F
FF
E3
C7
FF
7B
ENDCHAR
STARTCHAR 00E5
ENCODING 229
SWIDTH 600 0
DWIDTH 10 0
BBX 8 14 1 0
BITMAP
18
24
24
18
00
7E
7F
03
3F
FF
E3
C7
FF
7B
ENDCHAR
STARTCHAR 00E6
ENCODING 230
SWIDTH 600 0
DWIDTH 10 0
BBX 9 9 0 0
BITMAP
7700
FF80
0D80
3F80
FF80
CC00
CC00
FF80
7380
ENDCHAR
STARTCHAR 00E7
ENCODING 231
SWIDTH 600 0
DWIDTH 10 0
BBX 7 12 1 -3
BITMAP
3E
7E
E0
C0
C0
C0
E0
7E
3E
04
04
3C
ENDCHAR
STARTCHAR 00E8
ENCODING 232
SWIDTH 600 0
DWIDTH 10 0
BBX 8 13 1 1
BITMAP
30
18
08
00
3C
7F
E3
FF
FF
C0
E1
7F
3F
ENDCHAR
STARTCHAR 00E9
ENCODING 233
SWIDTH 600 0
DWIDTH 10 0
BBX 8 13 1 1
BITMAP
06
0C
08
00
3C
7F
E3
FF
FF
C0
E1
7F
3F
ENDCHAR
STARTCHAR 00EA
ENCODING 234
SWIDTH 600 0
DWIDTH 10 0
BBX 8 13 1 0
BITMAP
1C
34
22
00
3C
7F
E3
FF
FF
C0
E1
7F
3F
ENDCHAR
STARTCHAR 00EB
ENCODING 235
SWIDTH 600 0
DWIDTH 10 0
BBX 8 12 1 0
BITMAP
36
36
00
3C
7F
E3
FF
FF
C0
E0
7F
3F
ENDCHAR
STARTCHAR 00EC
ENCODING 236
SWIDTH 600 0
DWIDTH 10 0
BBX 8 13 1 1
BITMAP
60
30
18
00
78
78
18
18
18
18
18
FF
FF
ENDCHAR
STARTCHAR 00ED
ENCODING 237
SWIDTH 600 0
DWIDTH 10 0
BBX 8 13 1 0
BITMAP
06
0C
18
00
78
78
18
18
18
18
18
FF
FF
ENDCHAR
STARTCHAR 00EE
ENCODING 238
SWIDTH 600 0
DWIDTH 10 0
BBX 8 13 1 1
BITMAP
18
3C
64
00
78
78
18
18
18
18
18
FF
FF
ENDCHAR
STARTCHAR 00EF
ENCODING 239
SWIDTH 600 0
DWIDTH 10 0
BBX 8 12 1 0
BITMAP
6C
6C
00
78
78
18
18
18
18
18
FF
FF
ENDCHAR
STARTCHAR 00F0
ENCODING 240
SWIDTH 600 0
DWIDTH 10 0
BBX 8 12 1 1
BITMAP
3B
3C
4C
3E
7F
E3
C3
C3
C3
E7
7E
3C
ENDCHAR
STARTCHAR 00F1
ENCODING 241
SWIDTH 600 0
DWIDTH 10 0
BBX 7 12 1 0
BITMAP
74
5C
00
DC
FE
E6
C6
C6
C6
C6
C6
C6
ENDCHAR
STARTCHAR 00F2
ENCODING 242
SWIDTH 600 0
DWIDTH 10 0
BBX 8 13 1 1
BITMAP
60
30
18
00
3C
7E
E7
C3
C3
C3
E7
7E
3C
ENDCHAR
STARTCHAR 00F3
ENCODING 243
SWIDTH 600 0
DWIDTH 10 0
BBX 8 13 1 1
BITMAP
06
0C
18
00
3C
7E
E7
C3
C3
C3
E7
7E
3C
ENDCHAR
STARTCHAR 00F4
ENCODING 244
SWIDTH 600 0
DWIDTH 10 0
BBX 8 13 1 0
BITMAP
18
3C
66
00
3C
7E
E7
C3
C3
C3
E7
7E
3C
ENDCHAR
STARTCHAR 00F5
ENCODING 245
SWIDTH 600 0
DWIDTH 10 0
BBX 8 12 1 0
BITMAP
72
4E
00
3C
7E
E7
C3
C3
C3
E7
7E
3C
ENDCHAR
STARTCHAR 00F6
ENCODING 246
SWIDTH 600 0
DWIDTH 10 0
BBX 8 12 1 0
BITMAP
36
36
00
3C
7E
E7
C3
C3
C3
E7
7E
3C
ENDCHAR
STARTCHAR 00F7
ENCODING 247
SWIDTH 600 0
DWIDTH 10 0
BBX 9 9 1 1
BITMAP
1800
1800
0000
0000
FF80
FF80
0000
1800
1800
ENDCHAR
STARTCHAR 00F8
ENCODING 248
SWIDTH 600 0
DWIDTH 10 0
BBX 9 10 1 0
BITMAP
3D80
7F00
E700
CF00
DB00
F300
E700
FE00
FC00
8000
ENDCHAR
STARTCHAR 00F9
ENCODING 249
SWIDTH 600 0
DWIDTH 10 0
BBX 7 13 1 0
BITMAP
60
30
18
00
C6
C6
C6
C6
C6
C6
C6
FE
76
ENDCHAR
STARTCHAR 00FA
ENCODING 250
SWIDTH 600 0
DWIDTH 10 0
BBX 7 13 1 1
BITMAP
0E
0C
18
00
C6
C6
C6
C6
C6
C6
C6
FE
76
ENDCHAR
STARTCHAR 00FB
ENCODING 251
SWIDTH 600 0
DWIDTH 10 0
BBX 7 13 1 0
BITMAP
38
3C
64
00
C6
C6
C6
C6
C6
C6
C6
FE
76
ENDCHAR
STARTCHAR 00FC
ENCODING 252
SWIDTH 600 0
DWIDTH 10 0
BBX 7 12 1 0
BITMAP
6C
6C
00
C6
C6
C6
C6
C6
C6
C6
FE
76
ENDCHAR
STARTCHAR 00FD
ENCODING 253
SWIDTH 600 0
DWIDTH 10 0
BBX 8 16 1 -3
BITMAP
06
0C
18
00
C3
C7
E6
66
7E
3C
3C
3C
18
38
F0
E0
ENDCHAR
STARTCHAR 00FE
ENCODING 254
SWIDTH 600 0
DWIDTH 10 0
BBX 8 15 1 -3
BITMAP
C0
C0
C0
DC
FE
E7
C3
C3
C3
E7
FE
DC
C0
C0
C0
ENDCHAR
STARTCHAR 00FF
ENCODING 255
SWIDTH 600 0
DWIDTH 10 0
BBX 8 15 1 -3
BITMAP
6C
6C
00
C3
C7
E6
6E
6E
3C
3C
38
18
38
F0
E0
ENDCHAR
STARTCHAR 0100
ENCODING 256
SWIDTH 600 0
DWIDTH 10 0
BBX 9 15 1 -1
BITMAP
3E00
3E00
0000
1C00
3C00
3600
3600
3600
7600
6700
7F00
7F00
E300
C380
C180
ENDCHAR
STARTCHAR 0101
ENCODING 257
SWIDTH 600 0
DWIDTH 10 0
BBX 8 13 1 -1
BITMAP
3E
3E
00
00
7E
7F
03
3F
FF
E3
E3
FF
7B
ENDCHAR
STARTCHAR 0102
ENCODING 258
SWIDTH 600 0
DWIDTH 10 0
BBX 10 15 0 1
BITMAP
1300
1E00
0000
1E00
1E00
1E00
1E00
3300
3300
3300
7F80
7F80
6180
6180
E1C0
ENDCHAR
STARTCHAR 0103
ENCODING 259
SWIDTH 600 0
DWIDTH 10 0
BBX 8 13 1 0
BITMAP
22
3C
00
00
7E
7F
03
7F
FF
E3
E3
FF
7B
ENDCHAR
STARTCHAR 0104
ENCODING 260
SWIDTH 600 0
DWIDTH 10 0
BBX 9 15 1 -3
BITMAP
1C00
3C00
3C00
3600
3600
7600
6600
7F00
7F00
E300
C300
C380
0300
0200
0380
ENDCHAR
STARTCHAR 0105
ENCODING 261
SWIDTH 600 0
DWIDTH 10 0
BBX 8 12 1 -4
BITMAP
7E
7F
03
7F
FF
E3
E3
FF
7F
04
04
07
ENDCHAR
STARTCHAR 0106
ENCODING 262
SWIDTH 600 0
DWIDTH 10 0
BBX 8 15 1 0
BITMAP
06
0C
00
3F
7F
71
E0
E0
E0
E0
E0
E0
71
7F
3F
ENDCHAR
STARTCHAR 0107
ENCODING 263
SWIDTH 600 0
DWIDTH 10 0
BBX 7 13 2 0
BITMAP
06
0C
18
00
3C
FE
E2
C0
C0
C0
E2
FE
3C
ENDCHAR
STARTCHAR 0108
ENCODING 264
SWIDTH 600 0
DWIDTH 10 0
BBX 8 15 1 0
BITMAP
1E
33
00
3F
7F
71
E0
E0
E0
E0
E0
E0
71
7F
3F
ENDCHAR
STARTCHAR 0109
ENCODING 265
SWIDTH 600 0
DWIDTH 10 0
BBX 7 13 2 0
BITMAP
18
3C
66
00
3C
FE
E2
C0
C0
C0
E2
FE
3C
ENDCHAR
STARTCHAR 010A
ENCODING 266
SWIDTH 600 0
DWIDTH 10 0
BBX 8 15 1 -1
BITMAP
0C
0C
00
3F
7F
71
E0
E0
E0
E0
E0
E0
71
7F
3F
ENDCHAR
STARTCHAR 010B
ENCODING 267
SWIDTH 600 0
DWIDTH 10 0
BBX 7 13 2 0
BITMAP
18
18
00
00
3C
FE
E2
C0
C0
C0
E2
FE
3C
ENDCHAR
STARTCHAR 010C
ENCODING 268
SWIDTH 600 0
DWIDTH 10 0
BBX 8 16 1 -1
BITMAP
23
16
1C
00
3F
7F
71
E0
E0
E0
E0
E0
E0
71
7F
3F
ENDCHAR
STARTCHAR 010D
ENCODING 269
SWIDTH 600 0
DWIDTH 10 0
BBX 7 14 2 0
BITMAP
42
26
3C
18
00
3C
FE
E2
C0
C0
C0
E2
FE
3C
ENDCHAR
STARTCHAR 010E
ENCODING 270
SWIDTH 600 0
DWIDTH 10 0
BBX 8 16 1 0
BITMAP
46
3C
38
00
FC
FE
C7
C7
C3
C3
C3
C3
C7
CF
FE
F8
ENDCHAR
STARTCHAR 010F
ENCODING 271
SWIDTH 600 0
DWIDTH 10 0
BBX 11 13 1 0
BITMAP
0360
0360
03C0
0300
7B00
FF00
E700
C300
C300
C300
E700
FF00
7B00
ENDCHAR
STARTCHAR 0110
ENCODING 272
SWIDTH 600 0
DWIDTH 10 0
BBX 9 12 0 1
BITMAP
7E00
7F00
7380
7380
7180
F980
F980
7180
7380
7380
7F00
7E00
ENDCHAR
STARTCHAR 0111
ENCODING 273
SWIDTH 600 0
DWIDTH 10 0
BBX 9 13 1 0
BITMAP
0700
1F80
1F80
0700
7F00
FF00
E700
C700
C700
C700
E700
FF00
7F00
ENDCHAR
STARTCHAR 0112
ENCODING 274
SWIDTH 600 0
DWIDTH 10 0
BBX 7 15 2 0
BITMAP
7C
7C
00
FE
FE
C0
C0
C0
FE
FE
C0
C0
C0
FE
FE
ENDCHAR
STARTCHAR 0113
ENCODING 275
SWIDTH 600 0
DWIDTH 10 0
BBX 8 13 1 0
BITMAP
3E
3E
00
00
3C
7F
E3
FF
FF
C0
E1
7F
3E
ENDCHAR
STARTCHAR 0114
ENCODING 276
SWIDTH 600 0
DWIDTH 10 0
BBX 7 15 2 1
BITMAP
44
38
00
FE
FE
C0
C0
C0
FE
FE
C0
C0
C0
FE
FE
ENDCHAR
STARTCHAR 0115
ENCODING 277
SWIDTH 600 0
DWIDTH 10 0
BBX 8 13 1 1
BITMAP
22
3C
00
00
3C
7F
E3
FF
FF
C0
E1
7F
3E
ENDCHAR
STARTCHAR 0116
ENCODING 278
SWIDTH 600 0
DWIDTH 10 0
BBX 7 15 2 0
BITMAP
30
30
00
FE
FE
C0
C0
C0
FE
FE
C0
C0
C0
FE
FE
ENDCHAR
STARTCHAR 0117
ENCODING 279
SWIDTH 600 0
DWIDTH 10 0
BBX 8 13 1 0
BITMAP
18
18
00
00
3C
7F
E3
FF
FF
C0
E1
7F
3E
ENDCHAR
STARTCHAR 0118
ENCODING 280
SWIDTH 600 0
DWIDTH 10 0
BBX 7 15 2 -3
BITMAP
FE
FE
C0
C0
C0
FE
FE
C0
C0
C0
FE
FE
0C
08
0E
ENDCHAR
STARTCHAR 0119
ENCODING 281
SWIDTH 600 0
DWIDTH 10 0
BBX 8 12 1 -4
BITMAP
3C
7F
E3
FF
FF
C0
E1
7F
3F
04
04
07
ENDCHAR
STARTCHAR 011A
ENCODING 282
SWIDTH 600 0
DWIDTH 10 0
BBX 7 15 2 1
BITMAP
6C
38
00
FE
FE
C0
C0
C0
FE
FE
C0
C0
C0
FE
FE
ENDCHAR
STARTCHAR 011B
ENCODING 283
SWIDTH 600 0
DWIDTH 10 0
BBX 8 14 1 0
BITMAP
62
26
3C
18
00
3C
7F
E3
FF
FF
C0
E1
7F
3E
ENDCHAR
STARTCHAR 011C
ENCODING 284
SWIDTH 600 0
DWIDTH 10 0
BBX 8 15 1 0
BITMAP
1E
33
00
3F
7F
71
E0
E0
EF
EF
E3
E3
73
7F
3E
ENDCHAR
STARTCHAR 011D
ENCODING 285
SWIDTH 600 0
DWIDTH 10 0
BBX 8 16 1 -4
BITMAP
18
3C
66
03
3B
7F
E7
C7
C3
C7
E7
7F
3B
07
7E
7C
ENDCHAR
STARTCHAR 011E
ENCODING 286
SWIDTH 600 0
DWIDTH 10 0
BBX 8 16 1 -1
BITMAP
22
36
1C
00
3F
7F
71
E0
E0
EF
EF
E3
E3
73
7F
3E
ENDCHAR
STARTCHAR 011F
ENCODING 287
SWIDTH 600 0
DWIDTH 10 0
BBX 8 16 1 -3
BITMAP
26
3C
00
03
3B
7F
E7
C7
C3
C7
E7
7F
3B
07
7E
7C
ENDCHAR
STARTCHAR 0120
ENCODING 288
SWIDTH 600 0
DWIDTH 10 0
BBX 8 15 1 -1
BITMAP
18
18
00
3F
7F
71
E0
E0
EF
EF
E3
E3
63
7F
3E
ENDCHAR
STARTCHAR 0121
ENCODING 289
SWIDTH 600 0
DWIDTH 10 0
BBX 8 16 1 -4
BITMAP
18
18
00
03
7B
7F
E7
C7
C3
C7
E7
7F
3B
07
7E
7C
ENDCHAR
STARTCHAR 0122
ENCODING 290
SWIDTH 600 0
DWIDTH 10 0
BBX 8 16 1 -3
BITMAP
3F
7F
71
E0
E0
EF
EF
E3
E3
73
7F
3E
00
0C
0C
08
ENDCHAR
STARTCHAR 0123
ENCODING 291
SWIDTH 600 0
DWIDTH 10 0
BBX 8 15 1 -3
BITMAP
0C
18
03
3B
7F
E7
C7
C3
C7
E7
7F
3B
07
7E
7C
ENDCHAR
STARTCHAR 0124
ENCODING 292
SWIDTH 600 0
DWIDTH 10 0
BBX 8 15 1 1
BITMAP
3C
66
00
C3
C3
C3
C3
C3
FF
FF
C3
C3
C3
C3
C3
ENDCHAR
STARTCHAR 0125
ENCODING 293
SWIDTH 600 0
DWIDTH 10 0
BBX 9 15 0 1
BITMAP
7800
8C00
3000
3000
3000
3000
3700
3F80
3380
3180
3180
3180
3180
3180
3180
ENDCHAR
STARTCHAR 0126
ENCODING 294
SWIDTH 600 0
DWIDTH 10 0
BBX 10 12 0 1
BITMAP
6180
6180
FFC0
6180
6180
7F80
7F80
6180
6180
6180
6180
6180
ENDCHAR
STARTCHAR 0127
ENCODING 295
SWIDTH 600 0
DWIDTH 10 0
BBX 9 13 0 0
BITMAP
3000
3000
FC00
3000
3700
3F80
3380
3180
3180
3180
3180
3180
3180
ENDCHAR
STARTCHAR 0128
ENCODING 296
SWIDTH 600 0
DWIDTH 10 0
BBX 7 15 1 0
BITMAP
72
4C
00
FE
FE
18
18
18
18
18
18
18
18
FE
FE
ENDCHAR
STARTCHAR 0129
ENCODING 297
SWIDTH 600 0
DWIDTH 10 0
BBX 8 13 1 0
BITMAP
72
4E
00
00
7C
7C
1C
1C
1C
1C
1C
FF
FF
ENDCHAR
STARTCHAR 012A
ENCODING 298
SWIDTH 600 0
DWIDTH 10 0
BBX 8 15 1 0
BITMAP
7E
7E
00
FF
FF
18
18
18
18
18
18
18
18
FF
FF
ENDCHAR
STARTCHAR 012B
ENCODING 299
SWIDTH 600 0
DWIDTH 10 0
BBX 8 13 1 0
BITMAP
7E
7E
00
00
7C
7C
1C
1C
1C
1C
1C
FF
FF
ENDCHAR
STARTCHAR 012C
ENCODING 300
SWIDTH 600 0
DWIDTH 10 0
BBX 8 15 1 1
BITMAP
26
3C
00
FF
FF
18
18
18
18
18
18
18
18
FF
FF
ENDCHAR
STARTCHAR 012D
ENCODING 301
SWIDTH 600 0
DWIDTH 10 0
BBX 8 13 1 0
BITMAP
44
3C
00
00
78
78
18
18
18
18
18
FF
FF
ENDCHAR
STARTCHAR 012E
ENCODING 302
SWIDTH 600 0
DWIDTH 10 0
BBX 8 15 1 -3
BITMAP
FF
FF
18
18
18
18
18
18
18
18
FF
FF
08
18
1E
ENDCHAR
STARTCHAR 012F
ENCODING 303
SWIDTH 600 0
DWIDTH 10 0
BBX 8 17 1 -4
BITMAP
18
18
18
00
00
78
78
18
18
18
18
18
FF
FF
18
10
1C
ENDCHAR
STARTCHAR 0130
ENCODING 304
SWIDTH 600 0
DWIDTH 10 0
BBX 8 15 1 0
BITMAP
18
18
00
FF
FF
18
18
18
18
18
18
18
18
FF
FF
ENDCHAR
STARTCHAR 0131
ENCODING 305
SWIDTH 600 0
DWIDTH 10 0
BBX 8 9 1 0
BITMAP
78
78
18
18
18
18
18
FF
FF
ENDCHAR
STARTCHAR 0132
ENCODING 306
SWIDTH 600 0
DWIDTH 10 0
BBX 10 12 0 0
BITMAP
FBC0
FBC0
60C0
60C0
60C0
60C0
60C0
60C0
60C0
60C0
FFC0
FF80
ENDCHAR
STARTCHAR 0133
ENCODING 307
SWIDTH 600 0
DWIDTH 10 0
BBX 10 18 0 -4
BITMAP
30C0
30C0
30C0
0000
0000
F7C0
F7C0
30C0
30C0
30C0
30C0
30C0
FCC0
FCC0
00C0
01C0
0FC0
0F80
ENDCHAR
STARTCHAR 0134
ENCODING 308
SWIDTH 600 0
DWIDTH 10 0
BBX 7 15 1 0
BITMAP
3E
22
00
3E
3E
06
06
06
06
06
06
06
8E
FE
FC
ENDCHAR
STARTCHAR 0135
ENCODING 309
SWIDTH 600 0
DWIDTH 10 0
BBX 7 17 1 -3
BITMAP
1C
34
66
00
7C
7C
0C
0C
0C
0C
0C
0C
0C
0C
1C
FC
F8
ENDCHAR
STARTCHAR 0136
ENCODING 310
SWIDTH 600 0
DWIDTH 10 0
BBX 9 16 1 -3
BITMAP
C300
C700
CE00
DC00
F800
F800
FC00
EE00
CE00
C700
C300
C380
0000
0C00
1800
1800
ENDCHAR
STARTCHAR 0137
ENCODING 311
SWIDTH 600 0
DWIDTH 10 0
BBX 8 17 2 -4
BITMAP
C0
C0
C0
C0
CE
DC
F8
F0
F8
DC
CC
CE
C7
00
18
18
30
ENDCHAR
STARTCHAR 0138
ENCODING 312
SWIDTH 600 0
DWIDTH 10 0
BBX 8 9 2 1
BITMAP
CE
DC
F8
F0
F8
DC
CC
CE
C7
ENDCHAR
STARTCHAR 0139
ENCODING 313
SWIDTH 600 0
DWIDTH 10 0
BBX 7 15 2 1
BITMAP
18
30
00
C0
C0
C0
C0
C0
C0
C0
C0
C0
C0
FE
FE
ENDCHAR
STARTCHAR 013A
ENCODING 314
SWIDTH 600 0
DWIDTH 10 0
BBX 8 15 1 1
BITMAP
1C
10
F0
F0
30
30
30
30
30
30
30
30
38
3F
1F
ENDCHAR
STARTCHAR 013B
ENCODING 315
SWIDTH 600 0
DWIDTH 10 0
BBX 7 16 2 -3
BITMAP
C0
C0
C0
C0
C0
C0
C0
C0
C0
C0
FE
FE
00
18
18
30
ENDCHAR
STARTCHAR 013C
ENCODING 316
SWIDTH 600 0
DWIDTH 10 0
BBX 8 17 1 -4
BITMAP
F0
F0
30
30
30
30
30
30
30
30
38
3F
1F
00
18
30
30
ENDCHAR
STARTCHAR 013D
ENCODING 317
SWIDTH 600 0
DWIDTH 10 0
BBX 7 12 2 1
BITMAP
C6
C6
C4
C0
C0
C0
C0
C0
C0
C0
FE
FE
ENDCHAR
STARTCHAR 013E
ENCODING 318
SWIDTH 600 0
DWIDTH 10 0
BBX 8 13 1 0
BITMAP
F3
F3
32
30
30
30
30
30
30
30
38
3F
1F
ENDCHAR
STARTCHAR 013F
ENCODING 319
SWIDTH 600 0
DWIDTH 10 0
BBX 8 12 2 1
BITMAP
C0
C0
C0
C7
C7
C7
C0
C0
C0
C0
FE
FE
ENDCHAR
STARTCHAR 0140
ENCODING 320
SWIDTH 600 0
DWIDTH 10 0
BBX 9 13 1 0
BITMAP
F000
F000
3000
3000
3380
3380
3380
3000
3000
3000
3800
3F00
1F00
ENDCHAR
STARTCHAR 0141
ENCODING 321
SWIDTH 600 0
DWIDTH 10 0
BBX 9 12 0 1
BITMAP
3000
3000
3000
3600
3C00
3800
7000
F000
3000
3000
3F80
3F80
ENDCHAR
STARTCHAR 0142
ENCODING 322
SWIDTH 600 0
DWIDTH 10 0
BBX 8 13 1 0
BITMAP
F8
F8
18
1B
1E
1C
38
F8
D8
18
18
1F
0F
ENDCHAR
STARTCHAR 0143
ENCODING 323
SWIDTH 600 0
DWIDTH 10 0
BBX 8 15 1 1
BITMAP
0C
18
00
E3
E3
F3
F3
D3
DB
DB
CB
CF
C7
C7
C7
ENDCHAR
STARTCHAR 0144
ENCODING 324
SWIDTH 600 0
DWIDTH 10 0
BBX 7 13 2 0
BITMAP
0C
18
30
00
DC
FE
CE
C6
C6
C6
C6
C6
C6
ENDCHAR
STARTCHAR 0145
ENCODING 325
SWIDTH 600 0
DWIDTH 10 0
BBX 8 16 1 -3
BITMAP
E3
E3
F3
F3
D3
DB
DB
CB
CF
C7
C7
C7
00
1C
18
10
ENDCHAR
STARTCHAR 0146
ENCODING 326
SWIDTH 600 0
DWIDTH 10 0
BBX 7 13 2 -3
BITMAP
DC
FE
CE
C6
C6
C6
C6
C6
C6
00
38
30
30
ENDCHAR
STARTCHAR 0147
ENCODING 327
SWIDTH 600 0
DWIDTH 10 0
BBX 8 15 1 1
BITMAP
36
1C
00
E3
E3
F3
F3
D3
DB
DB
CB
CF
C7
C7
C7
ENDCHAR
STARTCHAR 0148
ENCODING 328
SWIDTH 600 0
DWIDTH 10 0
BBX 7 13 2 0
BITMAP
64
2C
38
00
DC
FE
CE
C6
C6
C6
C6
C6
C6
ENDCHAR
STARTCHAR 0149
ENCODING 329
SWIDTH 600 0
DWIDTH 10 0
BBX 11 13 -1 -1
BITMAP
7000
7000
7000
6000
CFC0
0EE0
0C60
0C60
0C60
0C60
0C60
0C60
0C60
ENDCHAR
STARTCHAR 014A
ENCODING 330
SWIDTH 600 0
DWIDTH 10 0
BBX 8 16 1 -3
BITMAP
DE
FF
E7
C3
C3
C3
C3
C3
C3
C3
C3
C3
03
07
0F
0E
ENDCHAR
STARTCHAR 014B
ENCODING 331
SWIDTH 600 0
DWIDTH 10 0
BBX 7 13 2 -3
BITMAP
DC
FE
CE
C6
C6
C6
C6
C6
C6
06
0E
1E
1C
ENDCHAR
STARTCHAR 014C
ENCODING 332
SWIDTH 600 0
DWIDTH 10 0
BBX 9 15 0 -1
BITMAP
3E00
3E00
0000
3E00
7F00
7300
6380
6380
E180
6180
6380
6380
7380
3F00
3E00
ENDCHAR
STARTCHAR 014D
ENCODING 333
SWIDTH 600 0
DWIDTH 10 0
BBX 8 13 1 0
BITMAP
3E
3E
00
00
3C
7E
E7
C3
C3
C3
E7
7E
3C
ENDCHAR
STARTCHAR 014E
ENCODING 334
SWIDTH 600 0
DWIDTH 10 0
BBX 9 16 0 -1
BITMAP
2300
3200
1C00
0000
3E00
7F00
7300
6380
6380
E180
6180
6380
6380
7380
3F00
3E00
ENDCHAR
STARTCHAR 014F
ENCODING 335
SWIDTH 600 0
DWIDTH 10 0
BBX 8 13 1 1
BITMAP
26
3C
00
00
3C
7E
E7
C3
C3
C3
E7
7E
3C
ENDCHAR
STARTCHAR 0150
ENCODING 336
SWIDTH 600 0
DWIDTH 10 0
BBX 9 15 0 0
BITMAP
1B00
3600
0000
3E00
7F00
7300
6380
6380
E180
6180
6380
6380
7380
3F00
3E00
ENDCHAR
STARTCHAR 0151
ENCODING 337
SWIDTH 600 0
DWIDTH 10 0
BBX 8 13 1 1
BITMAP
12
36
2C
00
3C
7E
E7
C3
C3
C3
E7
7E
3C
ENDCHAR
STARTCHAR 0152
ENCODING 338
SWIDTH 600 0
DWIDTH 10 0
BBX 9 12 1 0
BITMAP
3F80
7F80
EC00
CC00
CC00
CF80
CF80
CC00
CC00
EC00
7F80
3F80
ENDCHAR
STARTCHAR 0153
ENCODING 339
SWIDTH 600 0
DWIDTH 10 0
BBX 10 9 0 0
BITMAP
7F80
7FC0
CCC0
CFC0
CFC0
CC00
CC40
7FC0
7380
ENDCHAR
STARTCHAR 0154
ENCODING 340
SWIDTH 600 0
DWIDTH 10 0
BBX 9 15 1 0
BITMAP
0C00
1800
0000
FC00
FF00
C700
C700
C700
FE00
FC00
CE00
C600
C700
C300
C380
ENDCHAR
STARTCHAR 0155
ENCODING 341
SWIDTH 600 0
DWIDTH 10 0
BBX 7 13 3 1
BITMAP
0C
18
10
00
DE
FE
E2
C0
C0
C0
C0
C0
C0
ENDCHAR
STARTCHAR 0156
ENCODING 342
SWIDTH 600 0
DWIDTH 10 0
BBX 9 16 1 -4
BITMAP
FC00
FF00
C700
C700
C700
FE00
FC00
CE00
C600
C700
C300
C380
0000
0C00
1C00
1800
ENDCHAR
STARTCHAR 0157
ENCODING 343
SWIDTH 600 0
DWIDTH 10 0
BBX 8 13 2 -3
BITMAP
6F
7F
71
60
60
60
60
60
60
00
60
60
C0
ENDCHAR
STARTCHAR 0158
ENCODING 344
SWIDTH 600 0
DWIDTH 10 0
BBX 9 15 1 1
BITMAP
6C00
3800
0000
FC00
FF00
C700
C700
C700
FE00
FC00
CE00
C600
C700
C300
C380
ENDCHAR
STARTCHAR 0159
ENCODING 345
SWIDTH 600 0
DWIDTH 10 0
BBX 7 13 3 1
BITMAP
CC
78
30
00
DE
FE
E2
C0
C0
C0
C0
C0
C0
ENDCHAR
STARTCHAR 015A
ENCODING 346
SWIDTH 600 0
DWIDTH 10 0
BBX 8 15 1 1
BITMAP
0C
18
00
3E
FE
E2
C0
F0
7C
1E
07
03
87
FF
7C
ENDCHAR
STARTCHAR 015B
ENCODING 347
SWIDTH 600 0
DWIDTH 10 0
BBX 7 14 2 0
BITMAP
0E
0C
18
30
00
7C
FC
C0
F0
7C
0E
06
FE
FC
ENDCHAR
STARTCHAR 015C
ENCODING 348
SWIDTH 600 0
DWIDTH 10 0
BBX 8 15 1 1
BITMAP
3C
66
00
3E
FE
E2
C0
F0
7C
1E
07
03
87
FF
7C
ENDCHAR
STARTCHAR 015D
ENCODING 349
SWIDTH 600 0
DWIDTH 10 0
BBX 7 13 2 0
BITMAP
38
68
44
00
7C
FC
C0
F0
7C
0E
06
FE
FC
ENDCHAR
STARTCHAR 015E
ENCODING 350
SWIDTH 600 0
DWIDTH 10 0
BBX 8 15 1 -4
BITMAP
3E
7E
E2
C0
E0
7C
3E
07
03
87
FF
FE
18
08
38
ENDCHAR
STARTCHAR 015F
ENCODING 351
SWIDTH 600 0
DWIDTH 10 0
BBX 7 12 2 -4
BITMAP
7C
FC
C0
E0
7C
1E
06
FE
FC
10
08
78
ENDCHAR
STARTCHAR 0160
ENCODING 352
SWIDTH 600 0
DWIDTH 10 0
BBX 8 16 1 0
BITMAP
66
3C
3C
00
3E
FE
E2
C0
F0
7C
1E
07
03
87
FF
7C
ENDCHAR
STARTCHAR 0161
ENCODING 353
SWIDTH 600 0
DWIDTH 10 0
BBX 7 14 2 0
BITMAP
C4
6C
38
38
00
7C
FC
C0
F0
7C
0E
06
FE
FC
ENDCHAR
STARTCHAR 0162
ENCODING 354
SWIDTH 600 0
DWIDTH 10 0
BBX 8 15 1 -3
BITMAP
FF
FF
18
18
18
18
18
18
18
18
18
18
08
08
38
ENDCHAR
STARTCHAR 0163
ENCODING 355
SWIDTH 600 0
DWIDTH 10 0
BBX 8 15 1 -4
BITMAP
38
38
38
FF
FF
38
38
38
38
38
1F
1F
06
02
0E
ENDCHAR
STARTCHAR 0164
ENCODING 356
SWIDTH 600 0
DWIDTH 10 0
BBX 8 16 1 -1
BITMAP
42
3C
18
00
FF
FF
18
18
18
18
18
18
18
18
18
18
ENDCHAR
STARTCHAR 0165
ENCODING 357
SWIDTH 600 0
DWIDTH 10 0
BBX 9 14 1 0
BITMAP
0380
0300
3B00
3800
3800
FF00
FF00
3800
3800
3800
3800
3800
1F00
1F00
ENDCHAR
STARTCHAR 0166
ENCODING 358
SWIDTH 600 0
DWIDTH 10 0
BBX 9 12 1 0
BITMAP
FF80
FF80
1800
1800
1800
1800
7E00
7E00
1800
1800
1800
1800
ENDCHAR
STARTCHAR 0167
ENCODING 359
SWIDTH 600 0
DWIDTH 10 0
BBX 8 12 1 0
BITMAP
38
38
38
FF
FF
38
7C
7C
38
38
1F
1F
ENDCHAR
STARTCHAR 0168
ENCODING 360
SWIDTH 600 0
DWIDTH 10 0
BBX 8 15 1 0
BITMAP
72
4C
00
C3
C3
C3
C3
C3
C3
C3
C3
C3
E7
FF
7E
ENDCHAR
STARTCHAR 0169
ENCODING 361
SWIDTH 600 0
DWIDTH 10 0
BBX 7 13 1 -1
BITMAP
76
5C
00
00
C6
C6
C6
C6
C6
C6
E6
FE
76
ENDCHAR
STARTCHAR 016A
ENCODING 362
SWIDTH 600 0
DWIDTH 10 0
BBX 8 15 1 -1
BITMAP
3E
3E
00
C3
C3
C3
C3
C3
C3
C3
C3
C3
E7
FF
7E
ENDCHAR
STARTCHAR 016B
ENCODING 363
SWIDTH 600 0
DWIDTH 10 0
BBX 7 13 1 -1
BITMAP
7C
7C
00
00
C6
C6
C6
C6
C6
C6
E6
FE
76
ENDCHAR
STARTCHAR 016C
ENCODING 364
SWIDTH 600 0
DWIDTH 10 0
BBX 8 16 1 -1
BITMAP
42
26
3C
00
C3
C3
C3
C3
C3
C3
C3
C3
C3
E7
FF
7E
ENDCHAR
STARTCHAR 016D
ENCODING 365
SWIDTH 600 0
DWIDTH 10 0
BBX 7 13 1 0
BITMAP
44
3C
00
00
C6
C6
C6
C6
C6
C6
E6
FE
76
ENDCHAR
STARTCHAR 016E
ENCODING 366
SWIDTH 600 0
DWIDTH 10 0
BBX 8 17 1 0
BITMAP
3C
24
24
18
00
C3
C3
C3
C3
C3
C3
C3
C3
C3
E7
FF
7E
ENDCHAR
STARTCHAR 016F
ENCODING 367
SWIDTH 600 0
DWIDTH 10 0
BBX 7 15 1 -1
BITMAP
38
6C
44
6C
38
00
C6
C6
C6
C6
C6
C6
E6
FE
76
ENDCHAR
STARTCHAR 0170
ENCODING 368
SWIDTH 600 0
DWIDTH 10 0
BBX 8 15 1 0
BITMAP
36
24
00
C3
C3
C3
C3
C3
C3
C3
C3
C3
E7
FF
7E
ENDCHAR
STARTCHAR 0171
ENCODING 369
SWIDTH 600 0
DWIDTH 10 0
BBX 7 13 1 0
BITMAP
36
24
6C
00
C6
C6
C6
C6
C6
C6
E6
FE
76
ENDCHAR
STARTCHAR 0172
ENCODING 370
SWIDTH 600 0
DWIDTH 10 0
BBX 8 15 1 -3
BITMAP
C3
C3
C3
C3
C3
C3
C3
C3
C3
E7
FF
7E
18
10
1C
ENDCHAR
STARTCHAR 0173
ENCODING 371
SWIDTH 600 0
DWIDTH 10 0
BBX 9 12 1 -3
BITMAP
C600
C600
C600
C600
C600
C600
E600
FE00
7600
0200
0600
0780
ENDCHAR
STARTCHAR 0174
ENCODING 372
SWIDTH 600 0
DWIDTH 10 0
BBX 10 16 0 0
BITMAP
0C00
1E00
3300
0000
C0C0
C0C0
C0C0
CCC0
6CC0
6F80
7F80
7F80
7380
7380
7380
7380
ENDCHAR
STARTCHAR 0175
ENCODING 373
SWIDTH 600 0
DWIDTH 10 0
BBX 10 13 0 1
BITMAP
1E00
1200
3300
0000
C0C0
C0C0
CCC0
6D80
6D80
7F80
7B80
7380
3300
ENDCHAR
STARTCHAR 0176
ENCODING 374
SWIDTH 600 0
DWIDTH 10 0
BBX 10 16 0 0
BITMAP
0C00
1E00
3300
0000
E1C0
6180
7380
3300
3F00
1E00
1E00
0C00
0C00
0C00
0C00
0C00
ENDCHAR
STARTCHAR 0177
ENCODING 375
SWIDTH 600 0
DWIDTH 10 0
BBX 9 17 1 -3
BITMAP
1800
3C00
6600
0000
C380
C300
E700
6600
6600
3E00
3C00
3C00
1C00
1800
3800
F000
E000
ENDCHAR
STARTCHAR 0178
ENCODING 376
SWIDTH 600 0
DWIDTH 10 0
BBX 9 15 0 -1
BITMAP
3600
3600
0000
C180
E380
6300
7700
3600
3E00
1E00
0C00
0C00
0C00
0C00
0C00
ENDCHAR
STARTCHAR 0179
ENCODING 377
SWIDTH 600 0
DWIDTH 10 0
BBX 9 15 1 1
BITMAP
0C00
1800
0000
FF00
FF00
0700
0E00
0C00
1C00
3800
3000
7000
E000
FF80
FF80
ENDCHAR
STARTCHAR 017A
ENCODING 378
SWIDTH 600 0
DWIDTH 10 0
BBX 7 13 2 1
BITMAP
0C
18
30
00
FE
FE
0C
1C
38
70
E0
FE
FE
ENDCHAR
STARTCHAR 017B
ENCODING 379
SWIDTH 600 0
DWIDTH 10 0
BBX 9 15 1 0
BITMAP
1800
1800
0000
FF00
FF00
0700
0E00
0C00
1C00
3800
3000
7000
E000
FF80
FF80
ENDCHAR
STARTCHAR 017C
ENCODING 380
SWIDTH 600 0
DWIDTH 10 0
BBX 7 13 2 0
BITMAP
30
30
00
00
FE
FE
0C
1C
38
70
E0
FE
FE
ENDCHAR
STARTCHAR 017D
ENCODING 381
SWIDTH 600 0
DWIDTH 10 0
BBX 9 15 1 1
BITMAP
2C00
3800
0000
FF00
FF00
0700
0E00
0C00
1C00
3800
3000
7000
E000
FF80
FF80
ENDCHAR
STARTCHAR 017E
ENCODING 382
SWIDTH 600 0
DWIDTH 10 0
BBX 7 13 2 1
BITMAP
4C
78
30
00
FE
FE
0C
1C
38
70
E0
FE
FE
ENDCHAR
STARTCHAR 017F
ENCODING 383
SWIDTH 600 0
DWIDTH 10 0
BBX 8 13 1 0
BITMAP
0F
1F
18
18
F8
F8
18
18
18
18
18
18
18
ENDCHAR
STARTCHAR 0180
ENCODING 384
SWIDTH 600 0
DWIDTH 10 0
BBX 9 13 0 0
BITMAP
7000
7000
FC00
7000
7F00
7F80
7380
7180
7180
7180
7380
7F80
7F00
ENDCHAR
STARTCHAR 0181
ENCODING 385
SWIDTH 600 0
DWIDTH 10 0
BBX 10 12 0 0
BITMAP
7F00
FF80
D980
1980
1980
1F00
1F80
19C0
18C0
19C0
1FC0
1F00
ENDCHAR
STARTCHAR 0182
ENCODING 386
SWIDTH 600 0
DWIDTH 10 0
BBX 7 12 2 0
BITMAP
FE
FE
C0
C0
FC
FE
C6
C6
C6
C6
FE
FC
ENDCHAR
STARTCHAR 0183
ENCODING 387
SWIDTH 600 0
DWIDTH 10 0
BBX 8 13 1 0
BITMAP
FE
FE
C0
C0
DC
FE
E7
C3
C3
C3
E7
FE
DE
ENDCHAR
STARTCHAR 0184
ENCODING 388
SWIDTH 600 0
DWIDTH 10 0
BBX 8 12 1 0
BITMAP
20
60
E0
E0
7E
7F
63
63
63
63
7F
7E
ENDCHAR
STARTCHAR 0185
ENCODING 389
SWIDTH 600 0
DWIDTH 10 0
BBX 9 12 1 1
BITMAP
2000
6000
E000
EE00
FF00
7380
6380
6180
6380
7380
7F00
6E00
ENDCHAR
STARTCHAR 0186
ENCODING 390
SWIDTH 600 0
DWIDTH 10 0
BBX 8 12 1 0
BITMAP
FC
FE
8E
07
07
07
07
07
07
8E
FE
FC
ENDCHAR
STARTCHAR 0187
ENCODING 391
SWIDTH 600 0
DWIDTH 10 0
BBX 9 13 1 -1
BITMAP
0380
3F80
7F00
7100
E000
E000
E000
E000
E000
E000
7100
7F00
3F00
ENDCHAR
STARTCHAR 0188
ENCODING 392
SWIDTH 600 0
DWIDTH 10 0
BBX 9 13 2 0
BITMAP
0380
0780
0600
0600
3E00
7E00
E000
C000
C000
C000
E000
FE00
3E00
ENDCHAR
STARTCHAR 0189
ENCODING 393
SWIDTH 600 0
DWIDTH 10 0
BBX 9 12 0 1
BITMAP
7E00
7F00
7380
7380
7180
F980
F980
7180
7380
7380
7F00
7E00
ENDCHAR
STARTCHAR 018A
ENCODING 394
SWIDTH 600 0
DWIDTH 10 0
BBX 10 12 0 1
BITMAP
7F00
FF80
D980
19C0
19C0
19C0
19C0
19C0
19C0
1B80
1F80
1E00
ENDCHAR
STARTCHAR 018B
ENCODING 395
SWIDTH 600 0
DWIDTH 10 0
BBX 8 12 1 0
BITMAP
7F
7F
03
03
03
3F
7F
E3
C3
E3
FF
7F
ENDCHAR
STARTCHAR 018C
ENCODING 396
SWIDTH 600 0
DWIDTH 10 0
BBX 8 13 1 0
BITMAP
3F
3F
03
03
3B
7F
E7
E3
C3
C3
E7
7F
3B
ENDCHAR
STARTCHAR 018D
ENCODING 397
SWIDTH 600 0
DWIDTH 10 0
BBX 8 13 1 -4
BITMAP
3C
7E
E7
C3
C3
C3
E7
7E
3C
06
06
7E
38
ENDCHAR
STARTCHAR 018E
ENCODING 398
SWIDTH 600 0
DWIDTH 10 0
BBX 8 12 1 1
BITMAP
FF
FF
03
03
03
7F
7F
03
03
03
FF
FF
ENDCHAR
STARTCHAR 018F
ENCODING 399
SWIDTH 600 0
DWIDTH 10 0
BBX 8 12 1 0
BITMAP
3C
3E
07
03
03
FF
FF
E3
E3
67
7F
3E
ENDCHAR
STARTCHAR 0190
ENCODING 400
SWIDTH 600 0
DWIDTH 10 0
BBX 8 12 1 0
BITMAP
7E
FE
C0
C0
78
78
E0
C0
C0
E1
7F
3F
ENDCHAR
STARTCHAR 0191
ENCODING 401
SWIDTH 600 0
DWIDTH 10 0
BBX 8 16 1 -3
BITMAP
3F
3F
30
30
30
3F
3F
30
30
30
30
30
30
70
F0
E0
ENDCHAR
STARTCHAR 0192
ENCODING 402
SWIDTH 600 0
DWIDTH 10 0
BBX 8 17 1 -4
BITMAP
0F
1F
1C
18
7F
7F
18
18
18
18
18
18
18
18
18
F8
F0
ENDCHAR
STARTCHAR 0193
ENCODING 403
SWIDTH 600 0
DWIDTH 10 0
BBX 10 13 0 -1
BITMAP
01C0
1FC0
3F00
7100
6000
E000
E780
E780
E180
6180
7180
3F80
1F00
ENDCHAR
STARTCHAR 0194
ENCODING 404
SWIDTH 600 0
DWIDTH 10 0
BBX 8 14 1 -2
BITMAP
C3
E7
66
7E
3C
1C
3C
3C
7E
66
66
66
7E
7E
ENDCHAR
STARTCHAR 0195
ENCODING 405
SWIDTH 600 0
DWIDTH 10 0
BBX 10 13 0 -1
BITMAP
C000
C000
C000
C000
D800
FCC0
CCC0
CCC0
CCC0
CCC0
CCC0
CF80
C700
ENDCHAR
STARTCHAR 0196
ENCODING 406
SWIDTH 600 0
DWIDTH 10 0
BBX 8 12 1 1
BITMAP
FF
FF
18
18
18
18
18
18
18
1C
1F
0F
ENDCHAR
STARTCHAR 0197
ENCODING 407
SWIDTH 600 0
DWIDTH 10 0
BBX 7 12 2 1
BITMAP
FE
FE
30
30
30
30
FC
FC
30
30
FE
FE
ENDCHAR
STARTCHAR 0198
ENCODING 408
SWIDTH 600 0
DWIDTH 10 0
BBX 9 12 0 1
BITMAP
C380
C780
CE00
DC00
D800
FC00
FC00
EE00
C600
C700
C300
C380
ENDCHAR
STARTCHAR 0199
ENCODING 409
SWIDTH 600 0
DWIDTH 10 0
BBX 8 13 2 0
BITMAP
70
F0
C0
C0
CE
DC
F8
F0
F8
DC
CC
CE
C7
ENDCHAR
STARTCHAR 019A
ENCODING 410
SWIDTH 600 0
DWIDTH 10 0
BBX 8 13 1 0
BITMAP
F0
F0
30
30
30
30
30
7C
7C
30
38
3F
1F
ENDCHAR
STARTCHAR 019B
ENCODING 411
SWIDTH 600 0
DWIDTH 10 0
BBX 8 13 1 0
BITMAP
60
6C
78
70
F8
B8
3C
3C
7C
6E
66
E7
C3
ENDCHAR
STARTCHAR 019C
ENCODING 412
SWIDTH 600 0
DWIDTH 10 0
BBX 9 12 1 1
BITMAP
D980
D980
D980
D980
D980
D980
D980
D980
D980
D980
FF80
6F80
ENDCHAR
STARTCHAR 019D
ENCODING 413
SWIDTH 600 0
DWIDTH 10 0
BBX 10 16 0 -3
BITMAP
38C0
38C0
3CC0
3CC0
34C0
36C0
36C0
32C0
33C0
33C0
31C0
31C0
3000
3000
F000
C000
ENDCHAR
STARTCHAR 019E
ENCODING 414
SWIDTH 600 0
DWIDTH 10 0
BBX 7 13 2 -3
BITMAP
DC
FE
CE
C6
C6
C6
C6
C6
C6
06
06
06
06
ENDCHAR
STARTCHAR 019F
ENCODING 415
SWIDTH 600 0
DWIDTH 10 0
BBX 9 12 1 0
BITMAP
3E00
7F00
E700
E300
E300
FF80
FF80
E300
E300
6700
7F00
3E00
ENDCHAR
STARTCHAR 01A0
ENCODING 416
SWIDTH 600 0
DWIDTH 10 0
BBX 10 12 0 0
BITMAP
3C40
7E40
67C0
E300
E300
E300
E300
E300
E300
E700
7E00
3E00
ENDCHAR
STARTCHAR 01A1
ENCODING 417
SWIDTH 600 0
DWIDTH 10 0
BBX 10 9 0 1
BITMAP
3C40
7E40
E7C0
E300
C300
C300
E700
7F00
3C00
ENDCHAR
STARTCHAR 01A2
ENCODING 418
SWIDTH 600 0
DWIDTH 10 0
BBX 10 12 0 0
BITMAP
3DC0
7FC0
E7C0
C6C0
C6C0
C6C0
C6C0
C6C0
C6C0
E6C0
7EC0
3CC0
ENDCHAR
STARTCHAR 01A3
ENCODING 419
SWIDTH 600 0
DWIDTH 10 0
BBX 10 13 0 -4
BITMAP
3DC0
7FC0
E7C0
C6C0
C6C0
C6C0
E6C0
7EC0
3CC0
00C0
00C0
00C0
00C0
ENDCHAR
STARTCHAR 01A4
ENCODING 420
SWIDTH 600 0
DWIDTH 10 0
BBX 9 12 0 -1
BITMAP
7F00
FF80
D980
1980
1980
1F80
1F00
1800
1800
1800
1800
1800
ENDCHAR
STARTCHAR 01A5
ENCODING 421
SWIDTH 600 0
DWIDTH 10 0
BBX 8 16 1 -4
BITMAP
30
70
E0
C0
DC
FE
E7
C3
C3
C3
E7
FE
DE
C0
C0
C0
ENDCHAR
STARTCHAR 01A6
ENCODING 422
SWIDTH 600 0
DWIDTH 10 0
BBX 9 14 1 -1
BITMAP
C000
C000
FE00
FF00
C700
C300
C700
FE00
FC00
CE00
C600
C700
0300
0380
ENDCHAR
STARTCHAR 01A7
ENCODING 423
SWIDTH 600 0
DWIDTH 10 0
BBX 8 12 1 0
BITMAP
7C
7E
47
03
0F
3E
78
E0
C0
E1
FF
3E
ENDCHAR
STARTCHAR 01A8
ENCODING 424
SWIDTH 600 0
DWIDTH 10 0
BBX 7 9 1 0
BITMAP
7C
7E
06
1E
7C
E0
C0
FE
7E
ENDCHAR
STARTCHAR 01A9
ENCODING 425
SWIDTH 600 0
DWIDTH 10 0
BBX 9 12 1 1
BITMAP
FF80
FF80
E000
7000
3800
1C00
1C00
3800
7000
E000
FF80
FF80
ENDCHAR
STARTCHAR 01AA
ENCODING 426
SWIDTH 600 0
DWIDTH 10 0
BBX 9 17 0 -4
BITMAP
7800
FC00
DC00
FF80
7F80
0C00
0C00
0C00
0C00
0C00
0C00
0C00
0C00
0C00
0C00
0F80
0780
ENDCHAR
STARTCHAR 01AB
ENCODING 427
SWIDTH 600 0
DWIDTH 10 0
BBX 8 16 1 -4
BITMAP
38
38
38
FF
FF
38
38
38
38
38
1F
1F
07
07
0E
0C
ENDCHAR
STARTCHAR 01AC
ENCODING 428
SWIDTH 600 0
DWIDTH 10 0
BBX 9 12 0 0
BITMAP
7F80
FF80
CC00
0C00
0C00
0C00
0C00
0C00
0C00
0C00
0C00
0C00
ENDCHAR
STARTCHAR 01AD
ENCODING 429
SWIDTH 600 0
DWIDTH 10 0
BBX 8 13 1 0
BITMAP
0E
1E
38
38
FF
FF
38
38
38
38
38
1F
1F
ENDCHAR
STARTCHAR 01AE
ENCODING 430
SWIDTH 600 0
DWIDTH 10 0
BBX 8 16 1 -3
BITMAP
FF
FF
18
18
18
18
18
18
18
18
18
18
18
1C
1E
0E
ENDCHAR
STARTCHAR 01AF
ENCODING 431
SWIDTH 600 0
DWIDTH 10 0
BBX 10 12 0 0
BITMAP
C340
C340
C3C0
C300
C300
C300
C300
C300
C300
E700
7E00
7E00
ENDCHAR
STARTCHAR 01B0
ENCODING 432
SWIDTH 600 0
DWIDTH 10 0
BBX 10 9 0 0
BITMAP
C640
C640
C7C0
C600
C600
CE00
EE00
FE00
7600
ENDCHAR
STARTCHAR 01B1
ENCODING 433
SWIDTH 600 0
DWIDTH 10 0
BBX 9 12 1 0
BITMAP
F780
F780
7600
6300
E380
E380
E380
E380
E380
6700
7F00
3C00
ENDCHAR
STARTCHAR 01B2
ENCODING 434
SWIDTH 600 0
DWIDTH 10 0
BBX 8 12 1 1
BITMAP
C0
C0
CE
C6
C7
C3
C3
C7
C7
E6
FE
7C
ENDCHAR
STARTCHAR 01B3
ENCODING 435
SWIDTH 600 0
DWIDTH 10 0
BBX 10 12 0 0
BITMAP
E1C0
63C0
7300
3700
3E00
1E00
1C00
0C00
0C00
0C00
0C00
0C00
ENDCHAR
STARTCHAR 01B4
ENCODING 436
SWIDTH 600 0
DWIDTH 10 0
BBX 10 13 0 -4
BITMAP
E1C0
63C0
6300
7700
3600
3600
3E00
1C00
1C00
1C00
1800
7800
7000
ENDCHAR
STARTCHAR 01B5
ENCODING 437
SWIDTH 600 0
DWIDTH 10 0
BBX 9 12 1 1
BITMAP
FF00
FF00
0700
0E00
0C00
1C00
7E00
7E00
7000
E000
FF80
FF80
ENDCHAR
STARTCHAR 01B6
ENCODING 438
SWIDTH 600 0
DWIDTH 10 0
BBX 7 9 2 0
BITMAP
FE
FE
0C
1C
FC
FC
E0
FE
FE
ENDCHAR
STARTCHAR 01B7
ENCODING 439
SWIDTH 600 0
DWIDTH 10 0
BBX 10 12 0 0
BITMAP
7F80
7F80
0780
0F00
1C00
1F00
1F80
01C0
E1C0
E3C0
7F80
3F00
ENDCHAR
STARTCHAR 01B8
ENCODING 440
SWIDTH 600 0
DWIDTH 10 0
BBX 10 12 0 0
BITMAP
7F80
7F80
7800
3C00
1E00
3E00
7E00
E000
E1C0
E1C0
7F80
3F00
ENDCHAR
STARTCHAR 01B9
ENCODING 441
SWIDTH 600 0
DWIDTH 10 0
BBX 8 12 1 -4
BITMAP
7F
7F
70
38
1C
3E
7E
F0
E0
E0
7F
3F
ENDCHAR
STARTCHAR 01BA
ENCODING 442
SWIDTH 600 0
DWIDTH 10 0
BBX 8 13 1 -4
BITMAP
FF
FF
0E
1E
1C
3E
07
07
7E
F0
E1
FF
1C
ENDCHAR
STARTCHAR 01BB
ENCODING 443
SWIDTH 600 0
DWIDTH 10 0
BBX 8 12 1 -1
BITMAP
7C
FE
87
07
06
0E
7E
7E
70
E0
FF
FF
ENDCHAR
STARTCHAR 01BC
ENCODING 444
SWIDTH 600 0
DWIDTH 10 0
BBX 10 12 0 0
BITMAP
3F80
3F80
3000
3000
3000
3F00
3F80
01C0
E1C0
E3C0
7F80
3F00
ENDCHAR
STARTCHAR 01BD
ENCODING 445
SWIDTH 600 0
DWIDTH 10 0
BBX 8 13 1 -4
BITMAP
7E
7E
60
60
60
7C
7E
07
07
07
8F
FE
FC
ENDCHAR
STARTCHAR 01BE
ENCODING 446
SWIDTH 600 0
DWIDTH 10 0
BBX 8 12 1 -1
BITMAP
30
FC
FC
38
3E
0E
06
07
07
8E
FE
F8
ENDCHAR
STARTCHAR 01BF
ENCODING 447
SWIDTH 600 0
DWIDTH 10 0
BBX 9 13 0 -3
BITMAP
EF00
FF80
F380
E380
E380
E700
E600
EE00
F800
F000
E000
E000
E000
ENDCHAR
STARTCHAR 01C0
ENCODING 448
SWIDTH 600 0
DWIDTH 10 0
BBX 2 12 4 1
BITMAP
C0
C0
C0
C0
C0
C0
C0
C0
C0
C0
C0
C0
ENDCHAR
STARTCHAR 01C1
ENCODING 449
SWIDTH 600 0
DWIDTH 10 0
BBX 6 12 2 1
BITMAP
CC
CC
CC
CC
CC
CC
CC
CC
CC
CC
CC
CC
ENDCHAR
STARTCHAR 01C2
ENCODING 450
SWIDTH 600 0
DWIDTH 10 0
BBX 9 12 1 1
BITMAP
1800
1800
1800
FF80
FF80
1800
FF80
FF80
1800
1800
1800
1800
ENDCHAR
STARTCHAR 01C3
ENCODING 451
SWIDTH 600 0
DWIDTH 10 0
BBX 2 12 4 1
BITMAP
C0
C0
C0
C0
C0
C0
C0
C0
00
00
C0
C0
ENDCHAR
STARTCHAR 01CD
ENCODING 461
SWIDTH 600 0
DWIDTH 10 0
BBX 10 15 0 1
BITMAP
1E00
0C00
0000
1E00
1E00
1E00
1E00
3300
3300
3300
7F80
7F80
6180
6180
E1C0
ENDCHAR
STARTCHAR 01CE
ENCODING 462
SWIDTH 600 0
DWIDTH 10 0
BBX 8 13 1 0
BITMAP
26
3C
1C
00
7E
7F
03
7F
FF
E3
E3
FF
7B
ENDCHAR
STARTCHAR 01CF
ENCODING 463
SWIDTH 600 0
DWIDTH 10 0
BBX 8 15 1 1
BITMAP
3C
18
00
FF
FF
18
18
18
18
18
18
18
18
FF
FF
ENDCHAR
STARTCHAR 01D0
ENCODING 464
SWIDTH 600 0
DWIDTH 10 0
BBX 8 13 1 1
BITMAP
64
3C
18
00
78
78
18
18
18
18
18
FF
FF
ENDCHAR
STARTCHAR 01D1
ENCODING 465
SWIDTH 600 0
DWIDTH 10 0
BBX 9 16 0 -1
BITMAP
2300
3600
1C00
0000
3E00
7F00
7300
6380
6380
E180
6180
6380
6380
7380
3F00
3E00
ENDCHAR
STARTCHAR 01D2
ENCODING 466
SWIDTH 600 0
DWIDTH 10 0
BBX 8 14 1 0
BITMAP
42
24
3C
18
00
3C
7E
E7
C3
C3
C3
E7
7E
3C
ENDCHAR
STARTCHAR 01D3
ENCODING 467
SWIDTH 600 0
DWIDTH 10 0
BBX 8 16 1 -1
BITMAP
42
3C
18
00
C3
C3
C3
C3
C3
C3
C3
C3
C3
E7
FF
7E
ENDCHAR
STARTCHAR 01D4
ENCODING 468
SWIDTH 600 0
DWIDTH 10 0
BBX 7 13 1 0
BITMAP
64
3C
18
00
C6
C6
C6
C6
C6
C6
E6
FE
76
ENDCHAR
STARTCHAR 01D5
ENCODING 469
SWIDTH 600 0
DWIDTH 10 0
BBX 8 17 1 -1
BITMAP
3E
3E
00
26
26
C3
C3
C3
C3
C3
C3
C3
C3
C3
E7
FF
7E
ENDCHAR
STARTCHAR 01D6
ENCODING 470
SWIDTH 600 0
DWIDTH 10 0
BBX 8 15 1 -1
BITMAP
FF
00
6C
6C
00
00
C6
C6
C6
C6
C6
C6
E6
FE
76
ENDCHAR
STARTCHAR 01D7
ENCODING 471
SWIDTH 600 0
DWIDTH 10 0
BBX 8 16 1 0
BITMAP
0C
18
66
66
C3
C3
C3
C3
C3
C3
C3
C3
C3
E7
FF
7E
ENDCHAR
STARTCHAR 01D8
ENCODING 472
SWIDTH 600 0
DWIDTH 10 0
BBX 7 17 1 -1
BITMAP
06
0C
18
00
6C
6C
00
00
C6
C6
C6
C6
C6
C6
E6
FE
76
ENDCHAR
STARTCHAR 01D9
ENCODING 473
SWIDTH 600 0
DWIDTH 10 0
BBX 8 16 1 0
BITMAP
66
3C
66
66
C3
C3
C3
C3
C3
C3
C3
C3
C3
E7
FF
7E
ENDCHAR
STARTCHAR 01DA
ENCODING 474
SWIDTH 600 0
DWIDTH 10 0
BBX 7 17 1 -1
BITMAP
44
2C
38
00
6C
6C
00
00
C6
C6
C6
C6
C6
C6
E6
FE
76
ENDCHAR
STARTCHAR 01DB
ENCODING 475
SWIDTH 600 0
DWIDTH 10 0
BBX 8 16 1 0
BITMAP
30
18
66
66
C3
C3
C3
C3
C3
C3
C3
C3
C3
E7
FF
7E
ENDCHAR
STARTCHAR 01DC
ENCODING 476
SWIDTH 600 0
DWIDTH 10 0
BBX 7 17 1 -1
BITMAP
60
30
10
00
6C
6C
00
00
C6
C6
C6
C6
C6
C6
E6
FE
76
ENDCHAR
STARTCHAR 01DD
ENCODING 477
SWIDTH 600 0
DWIDTH 10 0
BBX 8 9 1 0
BITMAP
7C
FE
87
03
FF
FF
C3
7E
3C
ENDCHAR
STARTCHAR 01DE
ENCODING 478
SWIDTH 600 0
DWIDTH 10 0
BBX 9 17 1 0
BITMAP
3E00
3E00
3600
3600
0000
1C00
3C00
3600
3600
3600
7600
6700
7F00
7F00
E380
C380
C180
ENDCHAR
STARTCHAR 01DF
ENCODING 479
SWIDTH 600 0
DWIDTH 10 0
BBX 8 15 1 -1
BITMAP
FF
00
36
36
00
00
7E
7F
03
3F
FF
E3
E3
FF
7F
ENDCHAR
STARTCHAR 01E0
ENCODING 480
SWIDTH 600 0
DWIDTH 10 0
BBX 9 17 1 0
BITMAP
3E00
3E00
1C00
1C00
0000
1C00
1C00
3600
3600
3600
7600
6700
7F00
7F00
E380
C380
C180
ENDCHAR
STARTCHAR 01E1
ENCODING 481
SWIDTH 600 0
DWIDTH 10 0
BBX 8 15 1 -1
BITMAP
FF
00
18
18
00
00
7E
7F
03
7F
FF
E3
E3
FF
7B
ENDCHAR
STARTCHAR 01E2
ENCODING 482
SWIDTH 600 0
DWIDTH 10 0
BBX 10 15 0 0
BITMAP
0F80
0F80
0000
1FC0
1FC0
1E00
3600
3600
3780
3780
7E00
7E00
6600
67C0
C7C0
ENDCHAR
STARTCHAR 01E3
ENCODING 483
SWIDTH 600 0
DWIDTH 10 0
BBX 10 13 0 0
BITMAP
1F00
1F00
0000
0000
7B80
7FC0
0CC0
3FC0
FFC0
CC00
CE40
FFC0
7B80
ENDCHAR
STARTCHAR 01E6
ENCODING 486
SWIDTH 600 0
DWIDTH 10 0
BBX 8 16 1 -1
BITMAP
23
16
1C
00
3F
7F
71
E0
E0
EF
EF
E3
E3
73
7F
3E
ENDCHAR
STARTCHAR 01E7
ENCODING 487
SWIDTH 600 0
DWIDTH 10 0
BBX 8 16 1 -3
BITMAP
64
3C
18
03
3B
7F
E7
C7
C3
C7
E7
7F
3B
07
7E
7C
ENDCHAR
STARTCHAR 01E8
ENCODING 488
SWIDTH 600 0
DWIDTH 10 0
BBX 9 15 1 1
BITMAP
3C00
1800
0000
C300
C700
CE00
DC00
F800
F800
FC00
EE00
CE00
C700
C300
C380
ENDCHAR
STARTCHAR 01E9
ENCODING 489
SWIDTH 600 0
DWIDTH 10 0
BBX 8 15 2 1
BITMAP
68
38
C0
C0
C0
C0
CE
DC
F8
F0
F8
DC
CC
CE
C7
ENDCHAR
STARTCHAR 01EA
ENCODING 490
SWIDTH 600 0
DWIDTH 10 0
BBX 9 15 0 -3
BITMAP
3E00
7F00
6300
6380
6380
E180
6180
6380
6380
7380
7F00
3E00
1800
1000
1C00
ENDCHAR
STARTCHAR 01EB
ENCODING 491
SWIDTH 600 0
DWIDTH 10 0
BBX 8 12 1 -4
BITMAP
3C
7E
E7
C3
C3
C3
E7
FF
7E
18
10
1C
ENDCHAR
STARTCHAR 01EC
ENCODING 492
SWIDTH 600 0
DWIDTH 10 0
BBX 9 18 0 -4
BITMAP
3E00
3E00
0000
3E00
7F00
7300
6380
6380
E180
6180
6380
6380
7380
7F00
3E00
0800
1800
0E00
ENDCHAR
STARTCHAR 01ED
ENCODING 493
SWIDTH 600 0
DWIDTH 10 0
BBX 8 16 1 -4
BITMAP
3E
3E
00
00
3C
7E
E7
C3
C3
C3
E7
FF
7E
10
10
1C
ENDCHAR
STARTCHAR 01EE
ENCODING 494
SWIDTH 600 0
DWIDTH 10 0
BBX 10 15 0 0
BITMAP
1600
1C00
0000
7F80
7F80
0780
0F00
1C00
1F00
1F80
01C0
E1C0
E3C0
7F80
3F00
ENDCHAR
STARTCHAR 01EF
ENCODING 495
SWIDTH 600 0
DWIDTH 10 0
BBX 8 17 1 -3
BITMAP
64
3C
18
00
FE
FE
0E
1C
38
30
7E
0F
07
07
8F
FE
FC
ENDCHAR
STARTCHAR 01F0
ENCODING 496
SWIDTH 600 0
DWIDTH 10 0
BBX 7 17 1 -3
BITMAP
26
3C
18
00
7C
7C
0C
0C
0C
0C
0C
0C
0C
0C
1C
FC
F8
ENDCHAR
STARTCHAR 01F4
ENCODING 500
SWIDTH 600 0
DWIDTH 10 0
BBX 8 15 1 0
BITMAP
06
0C
00
3F
7F
71
E0
E0
EF
EF
E3
E3
73
7F
3E
ENDCHAR
STARTCHAR 01F5
ENCODING 501
SWIDTH 600 0
DWIDTH 10 0
BBX 8 17 1 -4
BITMAP
06
0C
08
18
03
3B
7F
E7
C7
C3
C7
E7
7F
3B
07
7E
7C
ENDCHAR
STARTCHAR 01F6
ENCODING 502
SWIDTH 600 0
DWIDTH 10 0
BBX 10 12 0 0
BITMAP
CC00
CC00
CC00
CC00
CC00
FCC0
FCC0
CCC0
CCC0
CCC0
CFC0
C780
ENDCHAR
STARTCHAR 01F8
ENCODING 504
SWIDTH 600 0
DWIDTH 10 0
BBX 8 15 1 1
BITMAP
30
18
00
E3
E3
F3
F3
D3
DB
DB
CB
CF
C7
C7
C7
ENDCHAR
STARTCHAR 01F9
ENCODING 505
SWIDTH 600 0
DWIDTH 10 0
BBX 7 13 2 0
BITMAP
60
20
30
00
DC
FE
CE
C6
C6
C6
C6
C6
C6
ENDCHAR
STARTCHAR 01FC
ENCODING 508
SWIDTH 600 0
DWIDTH 10 0
BBX 10 15 0 1
BITMAP
0380
0200
0000
1F80
1F80
3600
3600
3600
3780
6780
7E00
7E00
6600
C7C0
C7C0
ENDCHAR
STARTCHAR 01FD
ENCODING 509
SWIDTH 600 0
DWIDTH 10 0
BBX 10 13 0 0
BITMAP
0300
0600
0C00
0000
7F80
7FC0
0CC0
3FC0
FFC0
CC00
CC40
FFC0
7380
ENDCHAR
STARTCHAR 01FE
ENCODING 510
SWIDTH 600 0
DWIDTH 10 0
BBX 10 16 0 -1
BITMAP
0300
0600
0C00
0000
1EC0
3F80
7380
7380
7780
77C0
7DC0
7980
7180
3380
7F80
DF00
ENDCHAR
STARTCHAR 01FF
ENCODING 511
SWIDTH 600 0
DWIDTH 10 0
BBX 10 15 0 -1
BITMAP
0300
0700
0600
0C00
0080
1EC0
3F80
7380
6780
6D80
7980
7380
7F00
DE00
4000
ENDCHAR
STARTCHAR 0200
ENCODING 512
SWIDTH 600 0
DWIDTH 10 0
BBX 10 15 0 1
BITMAP
3600
1B00
0000
1E00
1E00
1E00
1E00
3300
3300
3300
7F80
7F80
6180
6180
E1C0
ENDCHAR
STARTCHAR 0201
ENCODING 513
SWIDTH 600 0
DWIDTH 10 0
BBX 8 13 1 0
BITMAP
6C
24
36
00
7E
7F
03
7F
FF
E3
E3
FF
7B
ENDCHAR
STARTCHAR 0202
ENCODING 514
SWIDTH 600 0
DWIDTH 10 0
BBX 10 15 0 1
BITMAP
1E00
3300
0000
1E00
1E00
1E00
1E00
3300
3300
3300
7F80
7F80
6180
6180
E1C0
ENDCHAR
STARTCHAR 0203
ENCODING 515
SWIDTH 600 0
DWIDTH 10 0
BBX 8 13 1 0
BITMAP
3C
26
02
00
7E
7F
03
7F
FF
E3
E3
FF
7B
ENDCHAR
STARTCHAR 0204
ENCODING 516
SWIDTH 600 0
DWIDTH 10 0
BBX 7 15 2 1
BITMAP
D8
6C
00
FE
FE
C0
C0
C0
FE
FE
C0
C0
C0
FE
FE
ENDCHAR
STARTCHAR 0205
ENCODING 517
SWIDTH 600 0
DWIDTH 10 0
BBX 8 13 1 1
BITMAP
6C
24
36
00
3C
7F
E3
FF
FF
C0
E1
7F
3E
ENDCHAR
STARTCHAR 0206
ENCODING 518
SWIDTH 600 0
DWIDTH 10 0
BBX 7 15 2 1
BITMAP
78
44
00
FE
FE
C0
C0
C0
FE
FE
C0
C0
C0
FE
FE
ENDCHAR
STARTCHAR 0207
ENCODING 519
SWIDTH 600 0
DWIDTH 10 0
BBX 8 13 1 0
BITMAP
3C
26
02
00
3C
7F
E3
FF
FF
C0
E1
7F
3E
ENDCHAR
STARTCHAR 0208
ENCODING 520
SWIDTH 600 0
DWIDTH 10 0
BBX 8 15 1 1
BITMAP
6C
26
00
FF
FF
18
18
18
18
18
18
18
18
FF
FF
ENDCHAR
STARTCHAR 0209
ENCODING 521
SWIDTH 600 0
DWIDTH 10 0
BBX 8 13 1 1
BITMAP
D8
6C
24
00
78
78
18
18
18
18
18
FF
FF
ENDCHAR
STARTCHAR 020A
ENCODING 522
SWIDTH 600 0
DWIDTH 10 0
BBX 8 15 1 1
BITMAP
3C
66
00
FF
FF
18
18
18
18
18
18
18
18
FF
FF
ENDCHAR
STARTCHAR 020B
ENCODING 523
SWIDTH 600 0
DWIDTH 10 0
BBX 8 13 1 0
BITMAP
38
64
00
00
78
78
18
18
18
18
18
FF
FF
ENDCHAR
STARTCHAR 020C
ENCODING 524
SWIDTH 600 0
DWIDTH 10 0
BBX 9 15 0 0
BITMAP
6E00
3600
0000
3E00
7F00
7300
6380
6380
E180
6180
6380
6380
7380
3F00
3E00
ENDCHAR
STARTCHAR 020D
ENCODING 525
SWIDTH 600 0
DWIDTH 10 0
BBX 8 13 1 1
BITMAP
48
6C
34
00
3C
7E
E7
C3
C3
C3
E7
7E
3C
ENDCHAR
STARTCHAR 020E
ENCODING 526
SWIDTH 600 0
DWIDTH 10 0
BBX 9 15 0 0
BITMAP
1E00
2200
0000
3E00
7F00
7300
6380
6380
E180
6180
6380
6380
7380
3F00
3E00
ENDCHAR
STARTCHAR 020F
ENCODING 527
SWIDTH 600 0
DWIDTH 10 0
BBX 8 13 1 0
BITMAP
3C
64
00
00
3C
7E
E7
C3
C3
C3
E7
7E
3C
ENDCHAR
STARTCHAR 0210
ENCODING 528
SWIDTH 600 0
DWIDTH 10 0
BBX 9 15 1 0
BITMAP
D800
6C00
0000
FC00
FF00
C700
C700
C700
FE00
FC00
CE00
C600
C700
C300
C380
ENDCHAR
STARTCHAR 0211
ENCODING 529
SWIDTH 600 0
DWIDTH 10 0
BBX 7 13 3 1
BITMAP
90
D8
68
00
DE
FE
E2
C0
C0
C0
C0
C0
C0
ENDCHAR
STARTCHAR 0212
ENCODING 530
SWIDTH 600 0
DWIDTH 10 0
BBX 9 15 1 0
BITMAP
7C00
4400
0000
FC00
FF00
C700
C700
C700
FE00
FC00
CE00
C600
C700
C300
C380
ENDCHAR
STARTCHAR 0213
ENCODING 531
SWIDTH 600 0
DWIDTH 10 0
BBX 7 13 3 0
BITMAP
78
4C
04
00
DE
FE
E2
C0
C0
C0
C0
C0
C0
ENDCHAR
STARTCHAR 0214
ENCODING 532
SWIDTH 600 0
DWIDTH 10 0
BBX 8 15 1 0
BITMAP
6C
26
00
C3
C3
C3
C3
C3
C3
C3
C3
C3
E7
FF
7E
ENDCHAR
STARTCHAR 0215
ENCODING 533
SWIDTH 600 0
DWIDTH 10 0
BBX 7 13 1 0
BITMAP
D8
68
24
00
C6
C6
C6
C6
C6
C6
E6
FE
76
ENDCHAR
STARTCHAR 0216
ENCODING 534
SWIDTH 600 0
DWIDTH 10 0
BBX 8 15 1 0
BITMAP
3C
66
00
C3
C3
C3
C3
C3
C3
C3
C3
C3
E7
FF
7E
ENDCHAR
STARTCHAR 0217
ENCODING 535
SWIDTH 600 0
DWIDTH 10 0
BBX 7 13 1 -1
BITMAP
38
64
00
00
C6
C6
C6
C6
C6
C6
E6
FE
76
ENDCHAR
STARTCHAR 0218
ENCODING 536
SWIDTH 600 0
DWIDTH 10 0
BBX 8 16 1 -4
BITMAP
3E
FE
E2
C0
F0
7C
1E
07
03
87
FF
7C
00
18
30
30
ENDCHAR
STARTCHAR 0219
ENCODING 537
SWIDTH 600 0
DWIDTH 10 0
BBX 7 13 2 -4
BITMAP
7C
FC
C0
F0
7C
0E
06
FE
FC
00
30
30
20
ENDCHAR
STARTCHAR 021A
ENCODING 538
SWIDTH 600 0
DWIDTH 10 0
BBX 8 16 1 -3
BITMAP
FF
FF
18
18
18
18
18
18
18
18
18
18
00
18
30
30
ENDCHAR
STARTCHAR 021B
ENCODING 539
SWIDTH 600 0
DWIDTH 10 0
BBX 8 16 1 -4
BITMAP
38
38
38
FF
FF
38
38
38
38
38
1F
1F
00
0C
18
18
ENDCHAR
STARTCHAR 021C
ENCODING 540
SWIDTH 600 0
DWIDTH 10 0
BBX 9 16 0 -3
BITMAP
3E00
7F80
4780
0380
0380
0700
1E00
7F00
6780
0380
0380
0780
1F00
FE00
F000
8000
ENDCHAR
STARTCHAR 021D
ENCODING 541
SWIDTH 600 0
DWIDTH 10 0
BBX 8 13 1 -4
BITMAP
3C
FE
87
07
0E
3C
7E
07
07
0F
3E
F8
C0
ENDCHAR
STARTCHAR 021E
ENCODING 542
SWIDTH 600 0
DWIDTH 10 0
BBX 8 15 1 1
BITMAP
3C
3C
00
C3
C3
C3
C3
C3
FF
FF
C3
C3
C3
C3
C3
ENDCHAR
STARTCHAR 021F
ENCODING 543
SWIDTH 600 0
DWIDTH 10 0
BBX 7 15 2 1
BITMAP
6C
38
C0
C0
C0
C0
DC
FE
CE
C6
C6
C6
C6
C6
C6
ENDCHAR
STARTCHAR 0220
ENCODING 544
SWIDTH 600 0
DWIDTH 10 0
BBX 8 16 1 -3
BITMAP
DE
FF
E7
C3
C3
C3
C3
C3
C3
C3
C3
C3
03
03
03
03
ENDCHAR
STARTCHAR 0221
ENCODING 545
SWIDTH 600 0
DWIDTH 10 0
BBX 10 14 0 -1
BITMAP
0600
0600
0600
0600
3600
7E00
EE00
CE00
C6C0
CFC0
EF40
7FC0
3380
0200
ENDCHAR
STARTCHAR 0224
ENCODING 548
SWIDTH 600 0
DWIDTH 10 0
BBX 9 16 1 -3
BITMAP
FF00
FF00
0700
0E00
0C00
1C00
3800
3000
7000
E000
FF80
FF80
0300
0300
0F00
0E00
ENDCHAR
STARTCHAR 0225
ENCODING 549
SWIDTH 600 0
DWIDTH 10 0
BBX 7 13 2 -4
BITMAP
FE
FE
0C
1C
38
70
E0
FE
FE
06
0E
1E
1C
ENDCHAR
STARTCHAR 0226
ENCODING 550
SWIDTH 600 0
DWIDTH 10 0
BBX 10 15 0 0
BITMAP
0C00
0C00
0000
1E00
1E00
1E00
1E00
3300
3300
3300
3F00
7F80
6180
6180
E1C0
ENDCHAR
STARTCHAR 0227
ENCODING 551
SWIDTH 600 0
DWIDTH 10 0
BBX 8 13 1 -1
BITMAP
18
18
00
00
7E
7F
03
7F
FF
E3
E3
FF
7B
ENDCHAR
STARTCHAR 0228
ENCODING 552
SWIDTH 600 0
DWIDTH 10 0
BBX 7 15 2 -3
BITMAP
FE
FE
C0
C0
C0
FE
FE
C0
C0
C0
FE
FE
08
08
38
ENDCHAR
STARTCHAR 0229
ENCODING 553
SWIDTH 600 0
DWIDTH 10 0
BBX 8 12 1 -4
BITMAP
3C
7F
E3
FF
FF
C0
E0
7F
7F
08
04
3C
ENDCHAR
STARTCHAR 022A
ENCODING 554
SWIDTH 600 0
DWIDTH 10 0
BBX 9 17 0 -1
BITMAP
3E00
3E00
3600
3600
0000
3E00
7F00
7300
6380
6380
E180
6180
6380
6380
7380
3F00
3E00
ENDCHAR
STARTCHAR 022B
ENCODING 555
SWIDTH 600 0
DWIDTH 10 0
BBX 8 15 1 0
BITMAP
FF
00
66
66
00
00
3C
7E
E7
C3
C3
C3
E7
7E
3C
ENDCHAR
STARTCHAR 022C
ENCODING 556
SWIDTH 600 0
DWIDTH 10 0
BBX 9 17 0 -1
BITMAP
3E00
3E00
3900
2700
0000
3E00
7F00
7300
6380
6380
E180
6180
6380
6380
7380
3F00
3E00
ENDCHAR
STARTCHAR 022D
ENCODING 557
SWIDTH 600 0
DWIDTH 10 0
BBX 8 15 1 0
BITMAP
FF
00
32
5A
4C
00
3C
7E
E7
C3
C3
C3
E7
7E
3C
ENDCHAR
STARTCHAR 022E
ENCODING 558
SWIDTH 600 0
DWIDTH 10 0
BBX 9 15 0 -1
BITMAP
0C00
0C00
0000
3E00
7F00
7300
6380
6380
E180
6180
6380
6380
7380
3F00
3E00
ENDCHAR
STARTCHAR 022F
ENCODING 559
SWIDTH 600 0
DWIDTH 10 0
BBX 8 13 1 0
BITMAP
18
18
00
00
3C
7E
E7
C3
C3
C3
E7
7E
3C
ENDCHAR
STARTCHAR 0230
ENCODING 560
SWIDTH 600 0
DWIDTH 10 0
BBX 9 17 0 -1
BITMAP
3E00
3E00
0C00
0C00
0000
3E00
7F00
7300
6380
6380
E180
6180
6380
6380
7380
3F00
3E00
ENDCHAR
STARTCHAR 0231
ENCODING 561
SWIDTH 600 0
DWIDTH 10 0
BBX 8 15 1 0
BITMAP
FF
00
18
18
00
00
3C
7E
E7
C3
C3
C3
E7
7E
3C
ENDCHAR
STARTCHAR 0232
ENCODING 562
SWIDTH 600 0
DWIDTH 10 0
BBX 10 15 0 -1
BITMAP
3F00
3F00
0000
E1C0
6180
7380
3300
3F00
1E00
1E00
0C00
0C00
0C00
0C00
0C00
ENDCHAR
STARTCHAR 0233
ENCODING 563
SWIDTH 600 0
DWIDTH 10 0
BBX 9 17 1 -4
BITMAP
3E00
3E00
0000
0000
C380
E380
6300
7700
3600
3600
3E00
1C00
1C00
1C00
1800
F800
F000
ENDCHAR
STARTCHAR 0234
ENCODING 564
SWIDTH 600 0
DWIDTH 10 0
BBX 10 14 0 -1
BITMAP
F800
F800
1800
1800
1800
1800
1800
1800
18C0
19C0
1B40
1FC0
0F80
0600
ENDCHAR
STARTCHAR 0235
ENCODING 565
SWIDTH 600 0
DWIDTH 10 0
BBX 10 10 0 0
BITMAP
D800
FC00
EC00
CC00
CCC0
CDC0
CF40
CFC0
C780
0200
ENDCHAR
STARTCHAR 0236
ENCODING 566
SWIDTH 600 0
DWIDTH 10 0
BBX 8 13 1 -2
BITMAP
38
38
38
FF
FF
38
38
3B
3B
3D
1F
1E
08
ENDCHAR
STARTCHAR 0237
ENCODING 567
SWIDTH 600 0
DWIDTH 10 0
BBX 6 13 1 -4
BITMAP
7C
7C
0C
0C
0C
0C
0C
0C
0C
0C
1C
FC
F8
ENDCHAR
STARTCHAR 0238
ENCODING 568
SWIDTH 600 0
DWIDTH 10 0
BBX 10 13 0 0
BITMAP
0C00
0C00
0C00
0C00
7D80
7FC0
CCC0
CCC0
CCC0
CCC0
CCC0
7FC0
7F80
ENDCHAR
STARTCHAR 0239
ENCODING 569
SWIDTH 600 0
DWIDTH 10 0
BBX 10 13 0 -4
BITMAP
7F80
7F80
4CC0
CCC0
CCC0
CCC0
4CC0
7F80
7D80
0C00
0C00
0C00
0C00
ENDCHAR
STARTCHAR 023A
ENCODING 570
SWIDTH 600 0
DWIDTH 10 0
BBX 10 13 0 -1
BITMAP
0080
1EC0
1F80
1F00
1F00
3700
3F00
3F00
7F80
7F80
6180
6180
E1C0
ENDCHAR
STARTCHAR 023B
ENCODING 571
SWIDTH 600 0
DWIDTH 10 0
BBX 10 12 0 0
BITMAP
1FC0
3F80
3B80
7300
7600
7C00
7800
7800
7000
7880
FF80
DF80
ENDCHAR
STARTCHAR 023C
ENCODING 572
SWIDTH 600 0
DWIDTH 10 0
BBX 9 10 1 0
BITMAP
1F80
7F00
7700
6C00
7800
7000
7100
FF00
DE00
8000
ENDCHAR
STARTCHAR 023D
ENCODING 573
SWIDTH 600 0
DWIDTH 10 0
BBX 10 12 0 1
BITMAP
3000
3000
3000
3000
3000
3000
FC00
FC00
3000
3000
3FC0
3FC0
ENDCHAR
STARTCHAR 023E
ENCODING 574
SWIDTH 600 0
DWIDTH 10 0
BBX 10 12 0 0
BITMAP
7FC0
7F80
0D80
0F00
0E00
0C00
0C00
1C00
3C00
3C00
6C00
CC00
ENDCHAR
STARTCHAR 023F
ENCODING 575
SWIDTH 600 0
DWIDTH 10 0
BBX 7 13 2 -4
BITMAP
7C
FC
C0
F0
7C
0E
06
FE
FC
60
30
3E
0E
ENDCHAR
STARTCHAR 0240
ENCODING 576
SWIDTH 600 0
DWIDTH 10 0
BBX 8 13 1 -3
BITMAP
7F
7F
07
0E
1C
38
70
E0
E0
70
38
1F
0F
ENDCHAR
STARTCHAR 0241
ENCODING 577
SWIDTH 600 0
DWIDTH 10 0
BBX 9 12 0 0
BITMAP
7F00
FF80
C380
0180
0180
0380
1F80
1E00
1800
1800
1800
1800
ENDCHAR
STARTCHAR 0244
ENCODING 580
SWIDTH 600 0
DWIDTH 10 0
BBX 10 12 0 0
BITMAP
6180
6180
6180
6180
6180
6180
FFC0
FFC0
6180
7380
7F80
3F00
ENDCHAR
STARTCHAR 0245
ENCODING 581
SWIDTH 600 0
DWIDTH 10 0
BBX 8 12 1 1
BITMAP
3C
3C
3C
7E
66
66
66
66
E7
C3
C3
C3
ENDCHAR
STARTCHAR 024C
ENCODING 588
SWIDTH 600 0
DWIDTH 10 0
BBX 10 12 0 0
BITMAP
3E00
3F80
3380
3180
3380
FF00
FE00
3700
3300
3380
3180
31C0
ENDCHAR
STARTCHAR 024D
ENCODING 589
SWIDTH 600 0
DWIDTH 10 0
BBX 8 9 2 1
BITMAP
6F
7F
71
60
FC
FC
60
60
60
ENDCHAR
STARTCHAR 0250
ENCODING 592
SWIDTH 600 0
DWIDTH 10 0
BBX 8 10 1 0
BITMAP
0C
FE
E7
C7
C7
FF
FC
C0
FE
7E
ENDCHAR
STARTCHAR 0251
ENCODING 593
SWIDTH 600 0
DWIDTH 10 0
BBX 8 9 1 1
BITMAP
3B
7F
E7
C3
C3
C3
E7
7F
3B
ENDCHAR
STARTCHAR 0252
ENCODING 594
SWIDTH 600 0
DWIDTH 10 0
BBX 8 9 1 0
BITMAP
DC
FE
E7
C3
C3
C3
E7
FE
DC
ENDCHAR
STARTCHAR 0253
ENCODING 595
SWIDTH 600 0
DWIDTH 10 0
BBX 8 13 1 0
BITMAP
7C
FC
E0
C0
DC
FE
E7
C3
C3
C3
E7
FE
DE
ENDCHAR
STARTCHAR 0254
ENCODING 596
SWIDTH 600 0
DWIDTH 10 0
BBX 7 9 1 0
BITMAP
78
FC
8E
06
06
06
8E
FC
78
ENDCHAR
STARTCHAR 0255
ENCODING 597
SWIDTH 600 0
DWIDTH 10 0
BBX 7 10 2 -1
BITMAP
3C
7E
E2
C0
C8
DE
F2
7E
3C
30
ENDCHAR
STARTCHAR 0256
ENCODING 598
SWIDTH 600 0
DWIDTH 10 0
BBX 8 16 1 -3
BITMAP
06
06
06
06
76
FE
CE
C6
C6
C6
CE
FE
76
06
07
03
ENDCHAR
STARTCHAR 0257
ENCODING 599
SWIDTH 600 0
DWIDTH 10 0
BBX 8 13 1 0
BITMAP
03
07
06
06
76
FE
CE
C6
C6
C6
CE
FE
76
ENDCHAR
STARTCHAR 0258
ENCODING 600
SWIDTH 600 0
DWIDTH 10 0
BBX 8 9 1 0
BITMAP
3C
FE
C3
FF
FF
03
87
FE
7C
ENDCHAR
STARTCHAR 0259
ENCODING 601
SWIDTH 600 0
DWIDTH 10 0
BBX 8 9 1 0
BITMAP
7C
FE
87
03
FF
FF
C3
7E
3C
ENDCHAR
STARTCHAR 025A
ENCODING 602
SWIDTH 600 0
DWIDTH 10 0
BBX 10 9 0 0
BITMAP
F880
FD80
8780
0E80
3EC0
7600
C600
7C00
3800
ENDCHAR
STARTCHAR 025B
ENCODING 603
SWIDTH 600 0
DWIDTH 10 0
BBX 7 9 1 -1
BITMAP
7E
FE
C0
78
78
C0
C0
FE
7E
ENDCHAR
STARTCHAR 025C
ENCODING 604
SWIDTH 600 0
DWIDTH 10 0
BBX 8 9 1 -1
BITMAP
FE
FF
07
3E
3E
07
07
FF
FC
ENDCHAR
STARTCHAR 025D
ENCODING 605
SWIDTH 600 0
DWIDTH 10 0
BBX 9 9 1 0
BITMAP
F900
FF00
0F00
7900
7980
1C00
0C00
FC00
F800
ENDCHAR
STARTCHAR 025E
ENCODING 606
SWIDTH 600 0
DWIDTH 10 0
BBX 8 9 1 0
BITMAP
3E
7F
E3
C3
DE
DE
E3
7F
3E
ENDCHAR
STARTCHAR 025F
ENCODING 607
SWIDTH 600 0
DWIDTH 10 0
BBX 7 13 1 -4
BITMAP
7C
7C
1C
1C
7E
7E
1C
1C
18
18
18
F8
F0
ENDCHAR
STARTCHAR 0260
ENCODING 608
SWIDTH 600 0
DWIDTH 10 0
BBX 10 17 0 -4
BITMAP
01C0
03C0
0300
0300
3F00
7F00
E300
E300
C300
E300
E700
7F00
3B00
0700
4700
7E00
3C00
ENDCHAR
STARTCHAR 0261
ENCODING 609
SWIDTH 600 0
DWIDTH 10 0
BBX 8 13 1 -4
BITMAP
3F
7F
E3
E3
C3
E7
E7
7F
3B
07
47
7E
3C
ENDCHAR
STARTCHAR 0262
ENCODING 610
SWIDTH 600 0
DWIDTH 10 0
BBX 8 9 1 0
BITMAP
3E
7E
E0
C0
CF
CF
E3
7F
3E
ENDCHAR
STARTCHAR 0263
ENCODING 611
SWIDTH 600 0
DWIDTH 10 0
BBX 9 13 0 -4
BITMAP
E380
7700
3600
3E00
1C00
1C00
3E00
3600
7300
6300
6300
7F00
3E00
ENDCHAR
STARTCHAR 0264
ENCODING 612
SWIDTH 600 0
DWIDTH 10 0
BBX 7 10 1 0
BITMAP
C6
6E
7C
3C
38
3C
7C
6C
7C
3C
ENDCHAR
STARTCHAR 0265
ENCODING 613
SWIDTH 600 0
DWIDTH 10 0
BBX 7 13 2 -4
BITMAP
C6
C6
C6
C6
C6
C6
CE
FE
76
06
06
06
06
ENDCHAR
STARTCHAR 0266
ENCODING 614
SWIDTH 600 0
DWIDTH 10 0
BBX 7 13 2 -1
BITMAP
70
F0
C0
C0
DC
FE
CE
C6
C6
C6
C6
C6
C6
ENDCHAR
STARTCHAR 0267
ENCODING 615
SWIDTH 600 0
DWIDTH 10 0
BBX 7 17 2 -4
BITMAP
70
F0
C0
C0
DC
FE
C6
C6
C6
C6
C6
C6
C6
06
0E
1E
1C
ENDCHAR
STARTCHAR 0268
ENCODING 616
SWIDTH 600 0
DWIDTH 10 0
BBX 8 12 1 1
BITMAP
38
38
00
78
78
18
18
7E
7E
18
FF
FF
ENDCHAR
STARTCHAR 0269
ENCODING 617
SWIDTH 600 0
DWIDTH 10 0
BBX 8 9 1 0
BITMAP
F8
F8
18
18
18
18
18
1F
0F
ENDCHAR
STARTCHAR 026A
ENCODING 618
SWIDTH 600 0
DWIDTH 10 0
BBX 8 9 1 0
BITMAP
FF
FF
18
18
18
18
18
FF
FF
ENDCHAR
STARTCHAR 026B
ENCODING 619
SWIDTH 600 0
DWIDTH 10 0
BBX 8 13 1 0
BITMAP
F8
F8
18
18
18
18
78
FF
1F
18
18
1F
0F
ENDCHAR
STARTCHAR 026C
ENCODING 620
SWIDTH 600 0
DWIDTH 10 0
BBX 8 13 1 0
BITMAP
F8
F8
18
18
18
F8
B8
FE
18
18
18
1F
0F
ENDCHAR
STARTCHAR 026D
ENCODING 621
SWIDTH 600 0
DWIDTH 10 0
BBX 8 17 1 -4
BITMAP
F8
F8
18
18
18
18
18
18
18
18
18
18
18
18
18
1F
0F
ENDCHAR
STARTCHAR 026E
ENCODING 622
SWIDTH 600 0
DWIDTH 10 0
BBX 10 17 0 -4
BITMAP
F000
F000
3000
3000
3F80
3F80
3180
3300
3300
3600
3780
3DC0
1CC0
00C0
09C0
0F80
0F00
ENDCHAR
STARTCHAR 026F
ENCODING 623
SWIDTH 600 0
DWIDTH 10 0
BBX 9 9 1 0
BITMAP
D980
D980
D980
D980
D980
D980
D980
FF80
6F80
ENDCHAR
STARTCHAR 0270
ENCODING 624
SWIDTH 600 0
DWIDTH 10 0
BBX 9 13 1 -4
BITMAP
D980
D980
D980
D980
D980
D980
D980
FF80
6F80
0180
0180
0180
0180
ENDCHAR
STARTCHAR 0271
ENCODING 625
SWIDTH 600 0
DWIDTH 10 0
BBX 9 13 1 -3
BITMAP
FF00
FF80
D980
D980
D980
D980
D980
D980
D980
0180
0180
0380
0300
ENDCHAR
STARTCHAR 0272
ENCODING 626
SWIDTH 600 0
DWIDTH 10 0
BBX 8 13 1 -3
BITMAP
6E
7F
73
63
63
63
63
63
63
60
60
E0
C0
ENDCHAR
STARTCHAR 0273
ENCODING 627
SWIDTH 600 0
DWIDTH 10 0
BBX 9 13 1 -3
BITMAP
DC00
FE00
EE00
C600
C600
C600
C600
C600
C600
0600
0600
0780
0380
ENDCHAR
STARTCHAR 0274
ENCODING 628
SWIDTH 600 0
DWIDTH 10 0
BBX 8 9 1 1
BITMAP
E7
F7
F7
FF
FF
FF
EF
EF
E7
ENDCHAR
STARTCHAR 0275
ENCODING 629
SWIDTH 600 0
DWIDTH 10 0
BBX 8 9 1 0
BITMAP
3C
7E
E7
C3
FF
FF
E7
7E
3C
ENDCHAR
STARTCHAR 0276
ENCODING 630
SWIDTH 600 0
DWIDTH 10 0
BBX 8 9 1 -1
BITMAP
3F
7F
CC
CF
CF
CC
CC
7F
3F
ENDCHAR
STARTCHAR 0277
ENCODING 631
SWIDTH 600 0
DWIDTH 10 0
BBX 9 10 1 0
BITMAP
3C00
7F00
F700
E380
E380
FB80
FB80
FB80
FF00
6700
ENDCHAR
STARTCHAR 0278
ENCODING 632
SWIDTH 600 0
DWIDTH 10 0
BBX 10 17 0 -4
BITMAP
7F00
7F00
0C00
0C00
3F00
7F80
EF80
ED80
EDC0
ED80
ED80
7F80
7F00
0C00
0C00
7F00
7F00
ENDCHAR
STARTCHAR 0279
ENCODING 633
SWIDTH 600 0
DWIDTH 10 0
BBX 7 9 1 0
BITMAP
06
06
06
06
06
06
8E
FE
F6
ENDCHAR
STARTCHAR 027A
ENCODING 634
SWIDTH 600 0
DWIDTH 10 0
BBX 7 13 1 -1
BITMAP
06
06
06
06
06
06
06
06
06
06
8E
FE
F6
ENDCHAR
STARTCHAR 027B
ENCODING 635
SWIDTH 600 0
DWIDTH 10 0
BBX 9 13 0 -4
BITMAP
0600
0600
0600
0600
0600
0600
8E00
FE00
F600
0600
0700
0780
0380
ENDCHAR
STARTCHAR 027C
ENCODING 636
SWIDTH 600 0
DWIDTH 10 0
BBX 7 13 2 -3
BITMAP
DE
FE
E2
C0
C0
C0
C0
C0
C0
C0
C0
C0
C0
ENDCHAR
STARTCHAR 027D
ENCODING 637
SWIDTH 600 0
DWIDTH 10 0
BBX 7 13 2 -3
BITMAP
DE
FE
E2
C0
C0
C0
C0
C0
C0
C0
C0
F0
70
ENDCHAR
STARTCHAR 027E
ENCODING 638
SWIDTH 600 0
DWIDTH 10 0
BBX 8 9 1 0
BITMAP
0F
1F
38
38
38
38
38
FF
FF
ENDCHAR
STARTCHAR 027F
ENCODING 639
SWIDTH 600 0
DWIDTH 10 0
BBX 8 9 1 0
BITMAP
F8
F8
1C
1C
1C
1C
1C
FF
FF
ENDCHAR
STARTCHAR 0280
ENCODING 640
SWIDTH 600 0
DWIDTH 10 0
BBX 8 9 1 -1
BITMAP
FC
FE
EE
EE
FC
FC
EC
EE
E7
ENDCHAR
STARTCHAR 0281
ENCODING 641
SWIDTH 600 0
DWIDTH 10 0
BBX 9 9 0 1
BITMAP
E380
E700
E700
FE00
FE00
E700
E700
FF00
FE00
ENDCHAR
STARTCHAR 0282
ENCODING 642
SWIDTH 600 0
DWIDTH 10 0
BBX 7 13 1 -4
BITMAP
7C
FE
C2
F0
7C
0E
06
FE
FC
C0
E0
F0
70
ENDCHAR
STARTCHAR 0283
ENCODING 643
SWIDTH 600 0
DWIDTH 10 0
BBX 8 17 1 -4
BITMAP
0F
1F
18
18
18
18
18
18
18
18
18
18
18
18
18
F8
F0
ENDCHAR
STARTCHAR 0284
ENCODING 644
SWIDTH 600 0
DWIDTH 10 0
BBX 8 17 1 -4
BITMAP
0F
1F
1C
1C
7C
7C
1C
1C
7E
7E
1C
1C
1C
1C
18
F8
F0
ENDCHAR
STARTCHAR 0285
ENCODING 645
SWIDTH 600 0
DWIDTH 10 0
BBX 8 17 1 -4
BITMAP
F0
F8
18
18
18
18
18
18
18
18
18
18
18
18
18
1F
0F
ENDCHAR
STARTCHAR 0286
ENCODING 646
SWIDTH 600 0
DWIDTH 10 0
BBX 9 17 0 -4
BITMAP
0780
0F80
0C00
0C00
0C00
0C00
0C00
0C00
0C00
0C00
0C00
0C00
7F80
FF80
FC00
FC00
3000
ENDCHAR
STARTCHAR 0287
ENCODING 647
SWIDTH 600 0
DWIDTH 10 0
BBX 8 12 1 -3
BITMAP
F8
F8
1C
1C
1C
1C
1C
FF
FF
1C
1C
1C
ENDCHAR
STARTCHAR 0288
ENCODING 648
SWIDTH 600 0
DWIDTH 10 0
BBX 8 15 1 -3
BITMAP
18
18
FF
FF
18
18
18
18
18
18
18
18
18
1F
0F
ENDCHAR
STARTCHAR 0289
ENCODING 649
SWIDTH 600 0
DWIDTH 10 0
BBX 9 9 1 0
BITMAP
6300
6300
6300
6300
FF80
FF80
6700
7F00
3B00
ENDCHAR
STARTCHAR 028A
ENCODING 650
SWIDTH 600 0
DWIDTH 10 0
BBX 9 10 1 0
BITMAP
F780
F780
7700
E300
E380
E380
E380
E700
7F00
3C00
ENDCHAR
STARTCHAR 028B
ENCODING 651
SWIDTH 600 0
DWIDTH 10 0
BBX 8 9 1 0
BITMAP
E6
E7
67
63
63
63
67
7F
3C
ENDCHAR
STARTCHAR 028C
ENCODING 652
SWIDTH 600 0
DWIDTH 10 0
BBX 8 9 1 1
BITMAP
3C
3C
3C
7E
66
66
E7
E3
C3
ENDCHAR
STARTCHAR 028D
ENCODING 653
SWIDTH 600 0
DWIDTH 10 0
BBX 10 9 0 1
BITMAP
3300
7380
7380
7F80
7F80
6F80
CCC0
CCC0
CCC0
ENDCHAR
STARTCHAR 028E
ENCODING 654
SWIDTH 600 0
DWIDTH 10 0
BBX 8 13 1 0
BITMAP
07
0F
1C
18
18
3C
3C
7E
66
66
E7
C3
C3
ENDCHAR
STARTCHAR 028F
ENCODING 655
SWIDTH 600 0
DWIDTH 10 0
BBX 8 9 1 1
BITMAP
E7
66
7E
3C
1C
18
18
18
18
ENDCHAR
STARTCHAR 0290
ENCODING 656
SWIDTH 600 0
DWIDTH 10 0
BBX 9 13 1 -4
BITMAP
FE00
FE00
0C00
1C00
3800
7000
E000
FE00
FE00
0600
0600
0780
0380
ENDCHAR
STARTCHAR 0291
ENCODING 657
SWIDTH 600 0
DWIDTH 10 0
BBX 8 10 1 0
BITMAP
FE
FE
0E
1C
3E
77
EF
FF
FE
0C
ENDCHAR
STARTCHAR 0292
ENCODING 658
SWIDTH 600 0
DWIDTH 10 0
BBX 8 13 1 -4
BITMAP
FE
FE
0E
1C
38
30
7E
0F
07
07
8F
FE
FC
ENDCHAR
STARTCHAR 0293
ENCODING 659
SWIDTH 600 0
DWIDTH 10 0
BBX 8 13 1 -4
BITMAP
7F
7F
0E
0E
1C
38
3E
0F
7F
FF
FF
7E
02
ENDCHAR
STARTCHAR 0294
ENCODING 660
SWIDTH 600 0
DWIDTH 10 0
BBX 7 13 2 0
BITMAP
F0
FC
1C
0E
0E
0E
1E
7C
78
70
70
70
70
ENDCHAR
STARTCHAR 0295
ENCODING 661
SWIDTH 600 0
DWIDTH 10 0
BBX 8 12 1 1
BITMAP
1F
7F
70
E0
E0
70
7E
3E
0E
0E
0E
0E
ENDCHAR
STARTCHAR 0296
ENCODING 662
SWIDTH 600 0
DWIDTH 10 0
BBX 7 13 2 -1
BITMAP
70
70
70
70
78
7C
1E
0E
0E
0E
1E
FC
F8
ENDCHAR
STARTCHAR 0297
ENCODING 663
SWIDTH 600 0
DWIDTH 10 0
BBX 8 15 1 -3
BITMAP
1F
7F
71
E0
E0
E0
E0
E0
E0
E0
E0
E0
71
7F
3F
ENDCHAR
STARTCHAR 0298
ENCODING 664
SWIDTH 600 0
DWIDTH 10 0
BBX 9 9 1 0
BITMAP
3E00
7F00
E380
D980
D980
C180
E380
7F00
3E00
ENDCHAR
STARTCHAR 0299
ENCODING 665
SWIDTH 600 0
DWIDTH 10 0
BBX 8 9 1 0
BITMAP
FE
FF
E7
FE
FF
E7
E7
FF
FE
ENDCHAR
STARTCHAR 029A
ENCODING 666
SWIDTH 600 0
DWIDTH 10 0
BBX 8 9 1 0
BITMAP
7C
FE
C7
C3
7B
7B
C7
FE
7C
ENDCHAR
STARTCHAR 029B
ENCODING 667
SWIDTH 600 0
DWIDTH 10 0
BBX 9 13 1 0
BITMAP
0380
0780
0600
0600
3E00
7E00
E000
C000
DE00
DE00
E600
7E00
3C00
ENDCHAR
STARTCHAR 029C
ENCODING 668
SWIDTH 600 0
DWIDTH 10 0
BBX 8 9 1 1
BITMAP
E7
E7
E7
FF
FF
E7
E7
E7
E7
ENDCHAR
STARTCHAR 029D
ENCODING 669
SWIDTH 600 0
DWIDTH 10 0
BBX 9 18 1 -4
BITMAP
0600
0600
0600
0000
0000
3E00
3E00
0600
0600
0600
0600
0600
0600
7F80
FF80
C600
FE00
7C00
ENDCHAR
STARTCHAR 029E
ENCODING 670
SWIDTH 600 0
DWIDTH 10 0
BBX 8 13 1 -3
BITMAP
E3
63
33
3B
1F
1F
1B
33
63
03
03
03
03
ENDCHAR
STARTCHAR 029F
ENCODING 671
SWIDTH 600 0
DWIDTH 10 0
BBX 6 9 2 1
BITMAP
E0
E0
E0
E0
E0
E0
E0
FC
FC
ENDCHAR
STARTCHAR 02A0
ENCODING 672
SWIDTH 600 0
DWIDTH 10 0
BBX 8 16 1 -4
BITMAP
03
07
06
06
76
FE
CE
C6
C6
C6
CE
FE
76
06
06
06
ENDCHAR
STARTCHAR 02A1
ENCODING 673
SWIDTH 600 0
DWIDTH 10 0
BBX 8 13 1 0
BITMAP
F8
FC
8E
06
07
07
0E
3E
3C
30
FC
30
30
ENDCHAR
STARTCHAR 02A2
ENCODING 674
SWIDTH 600 0
DWIDTH 10 0
BBX 8 12 1 1
BITMAP
3E
7E
E0
E0
E0
E0
7C
3C
1C
3F
1C
1C
ENDCHAR
STARTCHAR 02A3
ENCODING 675
SWIDTH 600 0
DWIDTH 10 0
BBX 9 13 1 0
BITMAP
1000
1000
1000
1000
5F80
FF80
9100
9300
9200
9600
9400
FF80
FF80
ENDCHAR
STARTCHAR 02A4
ENCODING 676
SWIDTH 600 0
DWIDTH 10 0
BBX 10 17 0 -4
BITMAP
0800
0800
0800
0800
6F80
FF80
D980
C980
8B00
9A00
DB80
F9C0
68C0
00C0
05C0
0780
0780
ENDCHAR
STARTCHAR 02A5
ENCODING 677
SWIDTH 600 0
DWIDTH 10 0
BBX 10 13 0 0
BITMAP
0800
0800
0800
6FC0
FFC0
D980
9980
8B80
9BC0
DF40
FFC0
6F80
0100
ENDCHAR
STARTCHAR 02A6
ENCODING 678
SWIDTH 600 0
DWIDTH 10 0
BBX 8 12 1 0
BITMAP
40
40
40
F7
FF
48
4C
47
43
41
7F
3E
ENDCHAR
STARTCHAR 02A7
ENCODING 679
SWIDTH 600 0
DWIDTH 10 0
BBX 8 17 1 -4
BITMAP
03
27
24
24
FC
FC
24
24
24
24
24
3C
3C
04
04
1C
18
ENDCHAR
STARTCHAR 02A8
ENCODING 680
SWIDTH 600 0
DWIDTH 10 0
BBX 9 13 1 -1
BITMAP
6000
6000
6000
FB80
FF80
6400
6400
6500
6780
2680
3F80
3B00
0200
ENDCHAR
STARTCHAR 02A9
ENCODING 681
SWIDTH 600 0
DWIDTH 10 0
BBX 9 17 1 -4
BITMAP
3800
3800
2000
2000
FF00
FF80
2580
2480
2480
2480
2480
2480
2480
0080
0180
0380
0300
ENDCHAR
STARTCHAR 02AA
ENCODING 682
SWIDTH 600 0
DWIDTH 10 0
BBX 9 13 0 0
BITMAP
E000
E000
2000
2000
2380
2780
2400
2600
2780
2180
2080
3F80
1F80
ENDCHAR
STARTCHAR 02AB
ENCODING 683
SWIDTH 600 0
DWIDTH 10 0
BBX 9 13 0 0
BITMAP
E000
E000
2000
2000
2780
2780
2180
2180
2300
2200
2600
3F80
1F80
ENDCHAR
STARTCHAR 02AC
ENCODING 684
SWIDTH 600 0
DWIDTH 10 0
BBX 8 11 1 0
BITMAP
99
DB
DF
77
66
00
99
DB
FF
67
66
ENDCHAR
STARTCHAR 02AD
ENCODING 685
SWIDTH 600 0
DWIDTH 10 0
BBX 5 10 2 1
BITMAP
F8
88
88
88
00
00
F8
88
88
88
ENDCHAR
STARTCHAR 02AE
ENCODING 686
SWIDTH 600 0
DWIDTH 10 0
BBX 9 17 0 -4
BITMAP
E000
F000
3000
3000
3180
3180
3180
3180
3180
3180
3980
3F80
1D80
0180
0180
0180
0180
ENDCHAR
STARTCHAR 02AF
ENCODING 687
SWIDTH 600 0
DWIDTH 10 0
BBX 8 17 1 -4
BITMAP
C0
E0
60
60
66
66
66
66
66
66
66
7E
3E
06
06
07
03
ENDCHAR
STARTCHAR 02B0
ENCODING 688
SWIDTH 600 0
DWIDTH 10 0
BBX 5 7 2 5
BITMAP
C0
F8
D8
D8
D8
D8
D8
ENDCHAR
STARTCHAR 02B1
ENCODING 689
SWIDTH 600 0
DWIDTH 10 0
BBX 5 7 2 5
BITMAP
60
40
F8
D8
D8
D8
D8
ENDCHAR
STARTCHAR 02B2
ENCODING 690
SWIDTH 600 0
DWIDTH 10 0
BBX 4 10 3 2
BITMAP
30
30
00
70
30
30
30
30
30
F0
ENDCHAR
STARTCHAR 02B3
ENCODING 691
SWIDTH 600 0
DWIDTH 10 0
BBX 4 6 3 5
BITMAP
30
C0
C0
C0
C0
C0
ENDCHAR
STARTCHAR 02B4
ENCODING 692
SWIDTH 600 0
DWIDTH 10 0
BBX 4 5 3 6
BITMAP
30
30
30
30
F0
ENDCHAR
STARTCHAR 02B5
ENCODING 693
SWIDTH 600 0
DWIDTH 10 0
BBX 7 7 1 4
BITMAP
0C
0C
0C
0C
9C
7C
0E
ENDCHAR
STARTCHAR 02B6
ENCODING 694
SWIDTH 600 0
DWIDTH 10 0
BBX 5 5 2 6
BITMAP
D8
F0
D8
D8
F8
ENDCHAR
STARTCHAR 02B7
ENCODING 695
SWIDTH 600 0
DWIDTH 10 0
BBX 6 5 2 6
BITMAP
84
B4
FC
7C
48
ENDCHAR
STARTCHAR 02B8
ENCODING 696
SWIDTH 600 0
DWIDTH 10 0
BBX 6 7 2 3
BITMAP
CC
48
78
30
30
30
E0
ENDCHAR
STARTCHAR 02B9
ENCODING 697
SWIDTH 600 0
DWIDTH 10 0
BBX 2 4 4 10
BITMAP
40
C0
C0
C0
ENDCHAR
STARTCHAR 02BB
ENCODING 699
SWIDTH 600 0
DWIDTH 10 0
BBX 4 5 3 7
BITMAP
30
60
60
E0
E0
ENDCHAR
STARTCHAR 02BC
ENCODING 700
SWIDTH 600 0
DWIDTH 10 0
BBX 3 5 4 7
BITMAP
E0
E0
E0
C0
C0
ENDCHAR
STARTCHAR 02BD
ENCODING 701
SWIDTH 600 0
DWIDTH 10 0
BBX 2 4 4 9
BITMAP
C0
C0
80
C0
ENDCHAR
STARTCHAR 02BE
ENCODING 702
SWIDTH 600 0
DWIDTH 10 0
BBX 2 5 4 8
BITMAP
80
40
40
40
80
ENDCHAR
STARTCHAR 02BF
ENCODING 703
SWIDTH 600 0
DWIDTH 10 0
BBX 2 5 4 8
BITMAP
40
C0
80
80
40
ENDCHAR
STARTCHAR 02C0
ENCODING 704
SWIDTH 600 0
DWIDTH 10 0
BBX 5 6 2 6
BITMAP
F0
18
18
70
60
60
ENDCHAR
STARTCHAR 02C1
ENCODING 705
SWIDTH 600 0
DWIDTH 10 0
BBX 5 6 3 6
BITMAP
78
C0
C0
70
30
30
ENDCHAR
STARTCHAR 02C6
ENCODING 710
SWIDTH 600 0
DWIDTH 10 0
BBX 6 3 2 11
BITMAP
78
68
CC
ENDCHAR
STARTCHAR 02C7
ENCODING 711
SWIDTH 600 0
DWIDTH 10 0
BBX 5 3 3 11
BITMAP
98
F0
60
ENDCHAR
STARTCHAR 02C8
ENCODING 712
SWIDTH 600 0
DWIDTH 10 0
BBX 2 5 4 8
BITMAP
C0
C0
C0
C0
C0
ENDCHAR
STARTCHAR 02C9
ENCODING 713
SWIDTH 600 0
DWIDTH 10 0
BBX 5 2 3 11
BITMAP
F8
F8
ENDCHAR
STARTCHAR 02CC
ENCODING 716
SWIDTH 600 0
DWIDTH 10 0
BBX 2 5 4 -2
BITMAP
C0
C0
C0
C0
C0
ENDCHAR
STARTCHAR 02CD
ENCODING 717
SWIDTH 600 0
DWIDTH 10 0
BBX 5 2 3 -4
BITMAP
F8
F8
ENDCHAR
STARTCHAR 02D0
ENCODING 720
SWIDTH 600 0
DWIDTH 10 0
BBX 2 9 4 1
BITMAP
C0
C0
00
00
00
00
00
C0
C0
ENDCHAR
STARTCHAR 02D1
ENCODING 721
SWIDTH 600 0
DWIDTH 10 0
BBX 2 2 4 7
BITMAP
C0
C0
ENDCHAR
STARTCHAR 02D2
ENCODING 722
SWIDTH 600 0
DWIDTH 10 0
BBX 2 4 4 5
BITMAP
80
40
40
C0
ENDCHAR
STARTCHAR 02D3
ENCODING 723
SWIDTH 600 0
DWIDTH 10 0
BBX 2 4 4 5
BITMAP
40
80
80
40
ENDCHAR
STARTCHAR 02D6
ENCODING 726
SWIDTH 600 0
DWIDTH 10 0
BBX 5 5 3 2
BITMAP
20
20
F8
20
20
ENDCHAR
STARTCHAR 02D7
ENCODING 727
SWIDTH 600 0
DWIDTH 10 0
BBX 4 1 3 4
BITMAP
F0
ENDCHAR
STARTCHAR 02D8
ENCODING 728
SWIDTH 600 0
DWIDTH 10 0
BBX 5 2 3 11
BITMAP
88
F0
ENDCHAR
STARTCHAR 02D9
ENCODING 729
SWIDTH 600 0
DWIDTH 10 0
BBX 2 2 4 11
BITMAP
C0
C0
ENDCHAR
STARTCHAR 02DA
ENCODING 730
SWIDTH 600 0
DWIDTH 10 0
BBX 4 5 3 10
BITMAP
60
90
90
90
60
ENDCHAR
STARTCHAR 02DB
ENCODING 731
SWIDTH 600 0
DWIDTH 10 0
BBX 3 3 4 -3
BITMAP
80
80
E0
ENDCHAR
STARTCHAR 02DC
ENCODING 732
SWIDTH 600 0
DWIDTH 10 0
BBX 6 2 2 10
BITMAP
E4
9C
ENDCHAR
STARTCHAR 02DD
ENCODING 733
SWIDTH 600 0
DWIDTH 10 0
BBX 5 3 3 11
BITMAP
48
D8
B0
ENDCHAR
STARTCHAR 02DE
ENCODING 734
SWIDTH 600 0
DWIDTH 10 0
BBX 10 5 -3 3
BITMAP
0600
7E00
FE00
C600
03C0
ENDCHAR
STARTCHAR 02E0
ENCODING 736
SWIDTH 600 0
DWIDTH 10 0
BBX 4 7 3 4
BITMAP
90
F0
60
F0
90
90
F0
ENDCHAR
STARTCHAR 02E1
ENCODING 737
SWIDTH 600 0
DWIDTH 10 0
BBX 6 8 2 5
BITMAP
F0
30
30
30
30
30
30
3C
ENDCHAR
STARTCHAR 02E2
ENCODING 738
SWIDTH 600 0
DWIDTH 10 0
BBX 4 6 3 5
BITMAP
F0
80
E0
70
10
F0
ENDCHAR
STARTCHAR 02E3
ENCODING 739
SWIDTH 600 0
DWIDTH 10 0
BBX 6 5 2 6
BITMAP
48
38
30
78
CC
ENDCHAR
STARTCHAR 02E4
ENCODING 740
SWIDTH 600 0
DWIDTH 10 0
BBX 5 6 3 6
BITMAP
78
C0
C0
70
30
30
ENDCHAR
STARTCHAR 02E5
ENCODING 741
SWIDTH 600 0
DWIDTH 10 0
BBX 6 12 2 -1
BITMAP
FC
FC
0C
0C
0C
0C
0C
0C
0C
0C
0C
0C
ENDCHAR
STARTCHAR 02E6
ENCODING 742
SWIDTH 600 0
DWIDTH 10 0
BBX 6 12 2 0
BITMAP
0C
0C
0C
FC
FC
0C
0C
0C
0C
0C
0C
0C
ENDCHAR
STARTCHAR 02E7
ENCODING 743
SWIDTH 600 0
DWIDTH 10 0
BBX 6 12 2 0
BITMAP
0C
0C
0C
0C
0C
FC
FC
0C
0C
0C
0C
0C
ENDCHAR
STARTCHAR 02E8
ENCODING 744
SWIDTH 600 0
DWIDTH 10 0
BBX 6 12 2 0
BITMAP
0C
0C
0C
0C
0C
0C
0C
0C
FC
FC
0C
0C
ENDCHAR
STARTCHAR 02E9
ENCODING 745
SWIDTH 600 0
DWIDTH 10 0
BBX 6 12 2 0
BITMAP
0C
0C
0C
0C
0C
0C
0C
0C
0C
0C
FC
FC
ENDCHAR
STARTCHAR 02EE
ENCODING 750
SWIDTH 600 0
DWIDTH 10 0
BBX 8 5 1 7
BITMAP
77
77
67
66
C6
ENDCHAR
STARTCHAR 02F3
ENCODING 755
SWIDTH 600 0
DWIDTH 10 0
BBX 4 3 3 -4
BITMAP
F0
90
F0
ENDCHAR
STARTCHAR 0300
ENCODING 768
SWIDTH 600 0
DWIDTH 10 0
BBX 4 3 2 11
BITMAP
E0
60
30
ENDCHAR
STARTCHAR 0301
ENCODING 769
SWIDTH 600 0
DWIDTH 10 0
BBX 4 3 4 11
BITMAP
70
60
C0
ENDCHAR
STARTCHAR 0302
ENCODING 770
SWIDTH 600 0
DWIDTH 10 0
BBX 6 3 2 11
BITMAP
78
68
CC
ENDCHAR
STARTCHAR 0303
ENCODING 771
SWIDTH 600 0
DWIDTH 10 0
BBX 6 2 2 10
BITMAP
E4
9C
ENDCHAR
STARTCHAR 0304
ENCODING 772
SWIDTH 600 0
DWIDTH 10 0
BBX 5 2 3 11
BITMAP
F8
F8
ENDCHAR
STARTCHAR 0305
ENCODING 773
SWIDTH 600 0
DWIDTH 10 0
BBX 10 2 0 12
BITMAP
FFC0
FFC0
ENDCHAR
STARTCHAR 0306
ENCODING 774
SWIDTH 600 0
DWIDTH 10 0
BBX 5 2 3 11
BITMAP
88
F0
ENDCHAR
STARTCHAR 0307
ENCODING 775
SWIDTH 600 0
DWIDTH 10 0
BBX 2 2 4 11
BITMAP
C0
C0
ENDCHAR
STARTCHAR 0308
ENCODING 776
SWIDTH 600 0
DWIDTH 10 0
BBX 5 2 2 11
BITMAP
D8
D8
ENDCHAR
STARTCHAR 0309
ENCODING 777
SWIDTH 600 0
DWIDTH 10 0
BBX 4 4 3 11
BITMAP
F0
10
30
60
ENDCHAR
STARTCHAR 030A
ENCODING 778
SWIDTH 600 0
DWIDTH 10 0
BBX 4 5 3 10
BITMAP
60
90
90
90
60
ENDCHAR
STARTCHAR 030B
ENCODING 779
SWIDTH 600 0
DWIDTH 10 0
BBX 5 3 3 11
BITMAP
48
D8
B0
ENDCHAR
STARTCHAR 030C
ENCODING 780
SWIDTH 600 0
DWIDTH 10 0
BBX 5 3 3 11
BITMAP
98
F0
60
ENDCHAR
STARTCHAR 030D
ENCODING 781
SWIDTH 600 0
DWIDTH 10 0
BBX 2 4 4 10
BITMAP
C0
C0
C0
C0
ENDCHAR
STARTCHAR 030E
ENCODING 782
SWIDTH 600 0
DWIDTH 10 0
BBX 6 4 2 10
BITMAP
CC
CC
CC
CC
ENDCHAR
STARTCHAR 030F
ENCODING 783
SWIDTH 600 0
DWIDTH 10 0
BBX 5 3 2 11
BITMAP
90
D8
68
ENDCHAR
STARTCHAR 0310
ENCODING 784
SWIDTH 600 0
DWIDTH 10 0
BBX 6 4 2 10
BITMAP
30
30
CC
78
ENDCHAR
STARTCHAR 0311
ENCODING 785
SWIDTH 600 0
DWIDTH 10 0
BBX 5 2 2 10
BITMAP
78
C8
ENDCHAR
STARTCHAR 0312
ENCODING 786
SWIDTH 600 0
DWIDTH 10 0
BBX 3 3 4 7
BITMAP
60
C0
C0
ENDCHAR
STARTCHAR 0313
ENCODING 787
SWIDTH 600 0
DWIDTH 10 0
BBX 2 4 4 9
BITMAP
C0
C0
40
C0
ENDCHAR
STARTCHAR 0314
ENCODING 788
SWIDTH 600 0
DWIDTH 10 0
BBX 2 4 4 9
BITMAP
C0
C0
80
C0
ENDCHAR
STARTCHAR 0315
ENCODING 789
SWIDTH 600 0
DWIDTH 10 0
BBX 3 3 4 11
BITMAP
E0
C0
C0
ENDCHAR
STARTCHAR 0316
ENCODING 790
SWIDTH 600 0
DWIDTH 10 0
BBX 4 3 3 -4
BITMAP
E0
60
30
ENDCHAR
STARTCHAR 0317
ENCODING 791
SWIDTH 600 0
DWIDTH 10 0
BBX 4 3 3 -4
BITMAP
70
60
C0
ENDCHAR
STARTCHAR 0318
ENCODING 792
SWIDTH 600 0
DWIDTH 10 0
BBX 3 5 3 -7
BITMAP
60
E0
E0
60
60
ENDCHAR
STARTCHAR 0319
ENCODING 793
SWIDTH 600 0
DWIDTH 10 0
BBX 3 5 4 -7
BITMAP
C0
E0
E0
C0
C0
ENDCHAR
STARTCHAR 031A
ENCODING 794
SWIDTH 600 0
DWIDTH 10 0
BBX 5 5 3 11
BITMAP
F8
F8
18
18
18
ENDCHAR
STARTCHAR 031B
ENCODING 795
SWIDTH 600 0
DWIDTH 10 0
BBX 3 3 4 7
BITMAP
20
20
E0
ENDCHAR
STARTCHAR 031C
ENCODING 796
SWIDTH 600 0
DWIDTH 10 0
BBX 2 3 4 -4
BITMAP
C0
80
C0
ENDCHAR
STARTCHAR 031D
ENCODING 797
SWIDTH 600 0
DWIDTH 10 0
BBX 5 3 3 -4
BITMAP
60
F8
F8
ENDCHAR
STARTCHAR 031E
ENCODING 798
SWIDTH 600 0
DWIDTH 10 0
BBX 5 3 2 -7
BITMAP
F8
F8
30
ENDCHAR
STARTCHAR 031F
ENCODING 799
SWIDTH 600 0
DWIDTH 10 0
BBX 5 5 3 -7
BITMAP
60
F8
F8
60
60
ENDCHAR
STARTCHAR 0320
ENCODING 800
SWIDTH 600 0
DWIDTH 10 0
BBX 5 2 3 -4
BITMAP
F8
F8
ENDCHAR
STARTCHAR 0321
ENCODING 801
SWIDTH 600 0
DWIDTH 10 0
BBX 4 5 5 -4
BITMAP
30
30
70
F0
E0
ENDCHAR
STARTCHAR 0322
ENCODING 802
SWIDTH 600 0
DWIDTH 10 0
BBX 4 5 2 -4
BITMAP
C0
C0
C0
F0
70
ENDCHAR
STARTCHAR 0323
ENCODING 803
SWIDTH 600 0
DWIDTH 10 0
BBX 2 2 4 -4
BITMAP
C0
C0
ENDCHAR
STARTCHAR 0324
ENCODING 804
SWIDTH 600 0
DWIDTH 10 0
BBX 5 2 2 -4
BITMAP
D8
D8
ENDCHAR
STARTCHAR 0325
ENCODING 805
SWIDTH 600 0
DWIDTH 10 0
BBX 4 3 3 -4
BITMAP
F0
90
F0
ENDCHAR
STARTCHAR 0326
ENCODING 806
SWIDTH 600 0
DWIDTH 10 0
BBX 3 3 3 -4
BITMAP
60
C0
C0
ENDCHAR
STARTCHAR 0327
ENCODING 807
SWIDTH 600 0
DWIDTH 10 0
BBX 3 3 3 -3
BITMAP
20
20
E0
ENDCHAR
STARTCHAR 0328
ENCODING 808
SWIDTH 600 0
DWIDTH 10 0
BBX 3 3 3 -3
BITMAP
C0
80
E0
ENDCHAR
STARTCHAR 0329
ENCODING 809
SWIDTH 600 0
DWIDTH 10 0
BBX 2 4 4 -6
BITMAP
C0
C0
C0
C0
ENDCHAR
STARTCHAR 032A
ENCODING 810
SWIDTH 600 0
DWIDTH 10 0
BBX 6 3 2 -6
BITMAP
FC
FC
CC
ENDCHAR
STARTCHAR 032B
ENCODING 811
SWIDTH 600 0
DWIDTH 10 0
BBX 6 2 2 -3
BITMAP
B4
F8
ENDCHAR
STARTCHAR 032C
ENCODING 812
SWIDTH 600 0
DWIDTH 10 0
BBX 6 3 2 -3
BITMAP
CC
78
30
ENDCHAR
STARTCHAR 032D
ENCODING 813
SWIDTH 600 0
DWIDTH 10 0
BBX 6 3 2 -3
BITMAP
30
78
CC
ENDCHAR
STARTCHAR 032E
ENCODING 814
SWIDTH 600 0
DWIDTH 10 0
BBX 5 2 3 -3
BITMAP
98
F0
ENDCHAR
STARTCHAR 032F
ENCODING 815
SWIDTH 600 0
DWIDTH 10 0
BBX 5 2 3 -4
BITMAP
F0
88
ENDCHAR
STARTCHAR 0330
ENCODING 816
SWIDTH 600 0
DWIDTH 10 0
BBX 6 2 2 -3
BITMAP
E4
98
ENDCHAR
STARTCHAR 0331
ENCODING 817
SWIDTH 600 0
DWIDTH 10 0
BBX 5 2 3 -4
BITMAP
F8
F8
ENDCHAR
STARTCHAR 0332
ENCODING 818
SWIDTH 600 0
DWIDTH 10 0
BBX 10 2 0 -3
BITMAP
FFC0
FFC0
ENDCHAR
STARTCHAR 0333
ENCODING 819
SWIDTH 600 0
DWIDTH 10 0
BBX 10 4 0 -3
BITMAP
FFC0
FFC0
FFC0
FFC0
ENDCHAR
STARTCHAR 0334
ENCODING 820
SWIDTH 600 0
DWIDTH 10 0
BBX 10 5 0 3
BITMAP
3000
7880
CCC0
0780
0300
ENDCHAR
STARTCHAR 0335
ENCODING 821
SWIDTH 600 0
DWIDTH 10 0
BBX 6 2 2 3
BITMAP
FC
FC
ENDCHAR
STARTCHAR 0336
ENCODING 822
SWIDTH 600 0
DWIDTH 10 0
BBX 10 2 0 3
BITMAP
FFC0
FFC0
ENDCHAR
STARTCHAR 0337
ENCODING 823
SWIDTH 600 0
DWIDTH 10 0
BBX 8 11 1 0
BITMAP
01
03
06
06
0C
18
30
60
C0
C0
80
ENDCHAR
STARTCHAR 0338
ENCODING 824
SWIDTH 600 0
DWIDTH 10 0
BBX 10 13 0 -1
BITMAP
0080
00C0
0180
0300
0300
0600
0C00
0C00
1800
3000
6000
6000
C000
ENDCHAR
STARTCHAR 0339
ENCODING 825
SWIDTH 600 0
DWIDTH 10 0
BBX 2 3 4 -4
BITMAP
C0
40
C0
ENDCHAR
STARTCHAR 033A
ENCODING 826
SWIDTH 600 0
DWIDTH 10 0
BBX 6 3 2 -3
BITMAP
CC
FC
FC
ENDCHAR
STARTCHAR 033B
ENCODING 827
SWIDTH 600 0
DWIDTH 10 0
BBX 4 4 3 -6
BITMAP
F0
90
90
F0
ENDCHAR
STARTCHAR 033C
ENCODING 828
SWIDTH 600 0
DWIDTH 10 0
BBX 7 2 2 -4
BITMAP
FC
B6
ENDCHAR
STARTCHAR 033D
ENCODING 829
SWIDTH 600 0
DWIDTH 10 0
BBX 4 4 3 9
BITMAP
90
F0
60
F0
ENDCHAR
STARTCHAR 033E
ENCODING 830
SWIDTH 600 0
DWIDTH 10 0
BBX 2 4 4 10
BITMAP
C0
80
40
C0
ENDCHAR
STARTCHAR 033F
ENCODING 831
SWIDTH 600 0
DWIDTH 10 0
BBX 10 5 0 9
BITMAP
FFC0
FFC0
0000
FFC0
FFC0
ENDCHAR
STARTCHAR 0343
ENCODING 835
SWIDTH 600 0
DWIDTH 10 0
BBX 2 4 4 9
BITMAP
C0
C0
40
C0
ENDCHAR
STARTCHAR 0358
ENCODING 856
SWIDTH 600 0
DWIDTH 10 0
BBX 2 2 8 11
BITMAP
C0
C0
ENDCHAR
STARTCHAR 0361
ENCODING 865
SWIDTH 600 0
DWIDTH 10 0
BBX 14 2 -2 13
BITMAP
1FE0
F01C
ENDCHAR
STARTCHAR 0374
ENCODING 884
SWIDTH 600 0
DWIDTH 10 0
BBX 2 4 4 10
BITMAP
40
C0
C0
C0
ENDCHAR
STARTCHAR 0375
ENCODING 885
SWIDTH 600 0
DWIDTH 10 0
BBX 2 4 4 -4
BITMAP
C0
C0
C0
C0
ENDCHAR
STARTCHAR 037A
ENCODING 890
SWIDTH 600 0
DWIDTH 10 0
BBX 3 3 4 -3
BITMAP
C0
C0
60
ENDCHAR
STARTCHAR 037E
ENCODING 894
SWIDTH 600 0
DWIDTH 10 0
BBX 3 11 4 -3
BITMAP
E0
E0
E0
00
00
00
E0
E0
E0
C0
C0
ENDCHAR
STARTCHAR 0384
ENCODING 900
SWIDTH 600 0
DWIDTH 10 0
BBX 4 3 4 11
BITMAP
70
60
C0
ENDCHAR
STARTCHAR 0385
ENCODING 901
SWIDTH 600 0
DWIDTH 10 0
BBX 6 6 2 11
BITMAP
1C
18
30
00
D8
D8
ENDCHAR
STARTCHAR 0386
ENCODING 902
SWIDTH 600 0
DWIDTH 10 0
BBX 11 13 -1 1
BITMAP
3000
6F00
CF00
0F00
0F00
1980
1980
1980
3FC0
3FC0
30C0
30C0
70E0
ENDCHAR
STARTCHAR 0387
ENCODING 903
SWIDTH 600 0
DWIDTH 10 0
BBX 3 3 4 4
BITMAP
E0
E0
E0
ENDCHAR
STARTCHAR 0388
ENCODING 904
SWIDTH 600 0
DWIDTH 10 0
BBX 11 13 -2 1
BITMAP
6000
CFE0
8FE0
0C00
0C00
0C00
0FE0
0FE0
0C00
0C00
0C00
0FE0
0FE0
ENDCHAR
STARTCHAR 0389
ENCODING 905
SWIDTH 600 0
DWIDTH 10 0
BBX 12 13 -3 1
BITMAP
7000
6C30
CC30
0C30
0C30
0C30
0FF0
0FF0
0C30
0C30
0C30
0C30
0C30
ENDCHAR
STARTCHAR 038A
ENCODING 906
SWIDTH 600 0
DWIDTH 10 0
BBX 12 13 -3 1
BITMAP
3000
6FF0
CFF0
0180
0180
0180
0180
0180
0180
0180
0180
0FF0
0FF0
ENDCHAR
STARTCHAR 038C
ENCODING 908
SWIDTH 600 0
DWIDTH 10 0
BBX 10 13 -1 0
BITMAP
6000
CF00
9F80
3980
31C0
31C0
70C0
30C0
31C0
31C0
39C0
1F80
1F00
ENDCHAR
STARTCHAR 038E
ENCODING 910
SWIDTH 600 0
DWIDTH 10 0
BBX 14 13 -4 1
BITMAP
3000
6E1C
C618
0738
0330
03F0
01E0
01E0
00C0
00C0
00C0
00C0
00C0
ENDCHAR
STARTCHAR 038F
ENCODING 911
SWIDTH 600 0
DWIDTH 10 0
BBX 11 13 -1 1
BITMAP
3000
6F00
DFC0
19C0
38C0
38E0
30E0
30E0
38E0
18C0
1DC0
3DE0
3DE0
ENDCHAR
STARTCHAR 0390
ENCODING 912
SWIDTH 600 0
DWIDTH 10 0
BBX 6 17 2 0
BITMAP
0C
18
30
00
D8
D8
00
00
F0
F0
30
30
30
30
30
3C
1C
ENDCHAR
STARTCHAR 0391
ENCODING 913
SWIDTH 600 0
DWIDTH 10 0
BBX 10 12 0 1
BITMAP
1E00
1E00
1E00
1E00
3300
3300
3300
7F80
7F80
6180
6180
E1C0
ENDCHAR
STARTCHAR 0392
ENCODING 914
SWIDTH 600 0
DWIDTH 10 0
BBX 8 12 1 1
BITMAP
FC
FF
C7
C3
C7
FE
FE
C3
C3
C3
FF
FE
ENDCHAR
STARTCHAR 0393
ENCODING 915
SWIDTH 600 0
DWIDTH 10 0
BBX 7 12 2 0
BITMAP
FE
FE
C0
C0
C0
C0
C0
C0
C0
C0
C0
C0
ENDCHAR
STARTCHAR 0394
ENCODING 916
SWIDTH 600 0
DWIDTH 10 0
BBX 10 12 0 1
BITMAP
1E00
1E00
1E00
1E00
3300
3300
3300
7380
7180
6180
7F80
FFC0
ENDCHAR
STARTCHAR 0395
ENCODING 917
SWIDTH 600 0
DWIDTH 10 0
BBX 7 12 2 1
BITMAP
FE
FE
C0
C0
C0
FE
FE
C0
C0
C0
FE
FE
ENDCHAR
STARTCHAR 0396
ENCODING 918
SWIDTH 600 0
DWIDTH 10 0
BBX 9 12 1 1
BITMAP
FF00
FF00
0700
0E00
0C00
1C00
3800
3000
7000
E000
FF80
FF80
ENDCHAR
STARTCHAR 0397
ENCODING 919
SWIDTH 600 0
DWIDTH 10 0
BBX 8 12 1 1
BITMAP
C3
C3
C3
C3
C3
FF
FF
C3
C3
C3
C3
C3
ENDCHAR
STARTCHAR 0398
ENCODING 920
SWIDTH 600 0
DWIDTH 10 0
BBX 9 12 0 0
BITMAP
3E00
3F00
7300
6380
6380
ED80
ED80
6380
6380
7380
7F00
3E00
ENDCHAR
STARTCHAR 0399
ENCODING 921
SWIDTH 600 0
DWIDTH 10 0
BBX 8 12 1 1
BITMAP
FF
FF
18
18
18
18
18
18
18
18
FF
FF
ENDCHAR
STARTCHAR 039A
ENCODING 922
SWIDTH 600 0
DWIDTH 10 0
BBX 9 12 1 1
BITMAP
C300
C700
CE00
DC00
F800
F800
FC00
EE00
CE00
C700
C300
C380
ENDCHAR
STARTCHAR 039B
ENCODING 923
SWIDTH 600 0
DWIDTH 10 0
BBX 10 12 0 1
BITMAP
1E00
1E00
1E00
1E00
3300
3300
3300
7380
7180
6180
6180
E1C0
ENDCHAR
STARTCHAR 039C
ENCODING 924
SWIDTH 600 0
DWIDTH 10 0
BBX 9 12 1 1
BITMAP
E380
E380
F780
F780
D580
DD80
DD80
DD80
C180
C180
C180
C180
ENDCHAR
STARTCHAR 039D
ENCODING 925
SWIDTH 600 0
DWIDTH 10 0
BBX 8 12 1 1
BITMAP
E3
E3
F3
F3
D3
DB
DB
CB
CF
C7
C7
C7
ENDCHAR
STARTCHAR 039E
ENCODING 926
SWIDTH 600 0
DWIDTH 10 0
BBX 8 12 1 1
BITMAP
FF
FF
00
00
00
3C
3C
00
00
00
FF
FF
ENDCHAR
STARTCHAR 039F
ENCODING 927
SWIDTH 600 0
DWIDTH 10 0
BBX 9 12 0 0
BITMAP
3E00
7F00
7300
6380
6380
E180
6180
6380
6380
7380
3F00
3E00
ENDCHAR
STARTCHAR 03A0
ENCODING 928
SWIDTH 600 0
DWIDTH 10 0
BBX 8 12 1 0
BITMAP
FF
FF
C3
C3
C3
C3
C3
C3
C3
C3
C3
C3
ENDCHAR
STARTCHAR 03A1
ENCODING 929
SWIDTH 600 0
DWIDTH 10 0
BBX 7 12 2 -1
BITMAP
FC
FE
C6
C6
C6
FE
FC
C0
C0
C0
C0
C0
ENDCHAR
STARTCHAR 03A3
ENCODING 931
SWIDTH 600 0
DWIDTH 10 0
BBX 9 12 1 1
BITMAP
FF80
FF80
E000
7000
3800
1C00
1C00
3800
7000
E000
FF80
FF80
ENDCHAR
STARTCHAR 03A4
ENCODING 932
SWIDTH 600 0
DWIDTH 10 0
BBX 8 12 1 0
BITMAP
FF
FF
18
18
18
18
18
18
18
18
18
18
ENDCHAR
STARTCHAR 03A5
ENCODING 933
SWIDTH 600 0
DWIDTH 10 0
BBX 10 12 0 1
BITMAP
E1C0
6180
7380
3300
3F00
1E00
1E00
0C00
0C00
0C00
0C00
0C00
ENDCHAR
STARTCHAR 03A6
ENCODING 934
SWIDTH 600 0
DWIDTH 10 0
BBX 8 12 1 1
BITMAP
3C
3C
18
7E
FF
DB
DB
FF
7E
18
3C
3C
ENDCHAR
STARTCHAR 03A7
ENCODING 935
SWIDTH 600 0
DWIDTH 10 0
BBX 10 12 0 1
BITMAP
6180
7380
3300
3F00
1E00
0C00
1E00
1E00
3F00
3300
7380
E1C0
ENDCHAR
STARTCHAR 03A8
ENCODING 936
SWIDTH 600 0
DWIDTH 10 0
BBX 8 12 1 1
BITMAP
DB
DB
DB
DB
DB
DB
FF
7E
3C
18
3C
3C
ENDCHAR
STARTCHAR 03A9
ENCODING 937
SWIDTH 600 0
DWIDTH 10 0
BBX 9 12 1 0
BITMAP
3C00
7F00
6700
E300
E380
C380
C380
E380
6300
7700
F780
F780
ENDCHAR
STARTCHAR 03AA
ENCODING 938
SWIDTH 600 0
DWIDTH 10 0
BBX 8 15 1 0
BITMAP
66
66
00
FF
FF
18
18
18
18
18
18
18
18
FF
FF
ENDCHAR
STARTCHAR 03AB
ENCODING 939
SWIDTH 600 0
DWIDTH 10 0
BBX 9 15 0 -1
BITMAP
3600
3600
0000
C180
E380
6300
7700
3600
3E00
1E00
0C00
0C00
0C00
0C00
0C00
ENDCHAR
STARTCHAR 03AC
ENCODING 940
SWIDTH 600 0
DWIDTH 10 0
BBX 9 13 1 0
BITMAP
0600
0C00
1800
0000
3F80
FF00
E700
C700
C600
C600
EF00
FF80
7B80
ENDCHAR
STARTCHAR 03AD
ENCODING 941
SWIDTH 600 0
DWIDTH 10 0
BBX 7 13 1 0
BITMAP
0C
18
10
00
7E
FE
C0
78
78
C0
C0
FE
7E
ENDCHAR
STARTCHAR 03AE
ENCODING 942
SWIDTH 600 0
DWIDTH 10 0
BBX 7 17 2 -4
BITMAP
0C
18
30
00
DC
FE
CE
C6
C6
C6
C6
C6
C6
06
06
06
06
ENDCHAR
STARTCHAR 03AF
ENCODING 943
SWIDTH 600 0
DWIDTH 10 0
BBX 6 13 2 1
BITMAP
1C
18
30
00
F0
F0
30
30
30
30
30
3C
1C
ENDCHAR
STARTCHAR 03B0
ENCODING 944
SWIDTH 600 0
DWIDTH 10 0
BBX 8 17 1 0
BITMAP
06
0C
18
00
66
66
00
00
E3
E3
63
63
63
63
67
7F
3C
ENDCHAR
STARTCHAR 03B1
ENCODING 945
SWIDTH 600 0
DWIDTH 10 0
BBX 9 9 1 0
BITMAP
3F80
FF00
E700
C700
C600
C600
EF00
FF80
7B80
ENDCHAR
STARTCHAR 03B2
ENCODING 946
SWIDTH 600 0
DWIDTH 10 0
BBX 8 16 1 -4
BITMAP
38
7E
E6
C6
C6
C6
DC
DF
C7
C3
E3
FF
FE
C0
C0
C0
ENDCHAR
STARTCHAR 03B3
ENCODING 947
SWIDTH 600 0
DWIDTH 10 0
BBX 9 13 0 -4
BITMAP
E180
F380
3300
3300
3F00
1E00
1E00
1E00
0C00
0C00
0C00
0C00
0C00
ENDCHAR
STARTCHAR 03B4
ENCODING 948
SWIDTH 600 0
DWIDTH 10 0
BBX 8 13 1 0
BITMAP
1C
7E
60
60
3C
7E
E7
C3
C3
C3
E7
7E
3C
ENDCHAR
STARTCHAR 03B5
ENCODING 949
SWIDTH 600 0
DWIDTH 10 0
BBX 7 9 1 -1
BITMAP
7E
FE
C0
78
78
C0
C0
FE
7E
ENDCHAR
STARTCHAR 03B6
ENCODING 950
SWIDTH 600 0
DWIDTH 10 0
BBX 8 17 1 -4
BITMAP
FE
FE
1C
38
70
60
E0
E0
C0
C0
E0
7C
3E
03
03
06
04
ENDCHAR
STARTCHAR 03B7
ENCODING 951
SWIDTH 600 0
DWIDTH 10 0
BBX 7 13 2 -3
BITMAP
DC
FE
CE
C6
C6
C6
C6
C6
C6
06
06
06
06
ENDCHAR
STARTCHAR 03B8
ENCODING 952
SWIDTH 600 0
DWIDTH 10 0
BBX 8 13 1 0
BITMAP
3C
7E
66
E7
C3
C3
FF
FF
C3
C3
E7
7E
3C
ENDCHAR
STARTCHAR 03B9
ENCODING 953
SWIDTH 600 0
DWIDTH 10 0
BBX 6 9 2 0
BITMAP
F0
F0
30
30
30
30
30
3C
1C
ENDCHAR
STARTCHAR 03BA
ENCODING 954
SWIDTH 600 0
DWIDTH 10 0
BBX 8 9 2 1
BITMAP
CE
DC
F8
F0
F8
DC
CC
CE
C7
ENDCHAR
STARTCHAR 03BB
ENCODING 955
SWIDTH 600 0
DWIDTH 10 0
BBX 8 13 1 0
BITMAP
E0
F0
38
18
1C
3C
3C
3E
76
66
67
E3
C3
ENDCHAR
STARTCHAR 03BC
ENCODING 956
SWIDTH 600 0
DWIDTH 10 0
BBX 8 13 2 -3
BITMAP
C6
C6
C6
C6
C6
C6
CE
FF
FB
C0
C0
C0
C0
ENDCHAR
STARTCHAR 03BD
ENCODING 957
SWIDTH 600 0
DWIDTH 10 0
BBX 9 9 1 1
BITMAP
C700
E300
E300
6380
6700
7700
7E00
3C00
3800
ENDCHAR
STARTCHAR 03BE
ENCODING 958
SWIDTH 600 0
DWIDTH 10 0
BBX 8 17 1 -4
BITMAP
FE
FE
70
E0
E0
70
3E
7E
E0
C0
E0
FC
3E
03
03
06
04
ENDCHAR
STARTCHAR 03BF
ENCODING 959
SWIDTH 600 0
DWIDTH 10 0
BBX 8 9 1 0
BITMAP
3C
7E
E7
C3
C3
C3
E7
7E
3C
ENDCHAR
STARTCHAR 03C0
ENCODING 960
SWIDTH 600 0
DWIDTH 10 0
BBX 10 9 0 -1
BITMAP
FFC0
FFC0
6300
6300
6300
6300
6300
6300
63C0
ENDCHAR
STARTCHAR 03C1
ENCODING 961
SWIDTH 600 0
DWIDTH 10 0
BBX 8 13 1 -3
BITMAP
3C
7E
E7
C3
C3
C3
E7
FE
DC
C0
C0
C0
C0
ENDCHAR
STARTCHAR 03C2
ENCODING 962
SWIDTH 600 0
DWIDTH 10 0
BBX 7 13 2 -4
BITMAP
3C
7E
E2
C0
C0
C0
E0
FC
7E
06
06
0E
0C
ENDCHAR
STARTCHAR 03C3
ENCODING 963
SWIDTH 600 0
DWIDTH 10 0
BBX 9 9 1 0
BITMAP
3F80
7F80
E700
C300
C300
C300
E700
7E00
3C00
ENDCHAR
STARTCHAR 03C4
ENCODING 964
SWIDTH 600 0
DWIDTH 10 0
BBX 8 9 1 0
BITMAP
FF
FF
18
18
18
18
18
1E
0E
ENDCHAR
STARTCHAR 03C5
ENCODING 965
SWIDTH 600 0
DWIDTH 10 0
BBX 8 9 1 1
BITMAP
E7
E3
63
63
63
63
67
7E
3C
ENDCHAR
STARTCHAR 03C6
ENCODING 966
SWIDTH 600 0
DWIDTH 10 0
BBX 9 13 1 -3
BITMAP
6F00
FF00
DF80
D980
D980
D980
DB80
FF00
7E00
1800
1800
1800
1800
ENDCHAR
STARTCHAR 03C7
ENCODING 967
SWIDTH 600 0
DWIDTH 10 0
BBX 8 12 1 -3
BITMAP
C3
E7
76
3E
3C
1C
18
3C
3C
66
E7
C3
ENDCHAR
STARTCHAR 03C8
ENCODING 968
SWIDTH 600 0
DWIDTH 10 0
BBX 9 13 1 -4
BITMAP
DB80
DB80
DB80
DB80
DB80
DB00
DB00
FF00
7E00
1800
1800
1800
1800
ENDCHAR
STARTCHAR 03C9
ENCODING 969
SWIDTH 600 0
DWIDTH 10 0
BBX 9 9 1 1
BITMAP
C300
C380
C180
D980
D980
D980
D980
FF80
7700
ENDCHAR
STARTCHAR 03CA
ENCODING 970
SWIDTH 600 0
DWIDTH 10 0
BBX 6 13 2 0
BITMAP
D8
D8
00
00
F0
F0
30
30
30
30
30
3C
1C
ENDCHAR
STARTCHAR 03CB
ENCODING 971
SWIDTH 600 0
DWIDTH 10 0
BBX 8 13 1 0
BITMAP
66
66
00
00
E3
E3
63
63
63
63
67
7F
3C
ENDCHAR
STARTCHAR 03CC
ENCODING 972
SWIDTH 600 0
DWIDTH 10 0
BBX 8 14 1 0
BITMAP
06
0E
0C
18
00
3C
7E
E7
C3
C3
C3
E7
7E
3C
ENDCHAR
STARTCHAR 03CD
ENCODING 973
SWIDTH 600 0
DWIDTH 10 0
BBX 8 13 1 1
BITMAP
0E
0C
18
00
E7
E3
63
63
63
63
67
7E
3C
ENDCHAR
STARTCHAR 03CE
ENCODING 974
SWIDTH 600 0
DWIDTH 10 0
BBX 9 14 1 0
BITMAP
0700
0E00
0C00
1000
0000
C300
C380
C180
D980
D980
D980
D980
FF80
7700
ENDCHAR
STARTCHAR 03D0
ENCODING 976
SWIDTH 600 0
DWIDTH 10 0
BBX 8 13 1 0
BITMAP
10
3E
7E
E6
C6
C6
FE
FE
C3
E3
7F
7E
3C
ENDCHAR
STARTCHAR 03D1
ENCODING 977
SWIDTH 600 0
DWIDTH 10 0
BBX 8 13 1 1
BITMAP
3C
7E
7F
67
63
7F
3F
C3
C3
E7
7E
7E
3C
ENDCHAR
STARTCHAR 03D2
ENCODING 978
SWIDTH 600 0
DWIDTH 10 0
BBX 10 12 0 0
BITMAP
E1C0
F3C0
3EC0
1E00
1E00
0C00
0C00
0C00
0C00
0C00
0C00
0C00
ENDCHAR
STARTCHAR 03D3
ENCODING 979
SWIDTH 600 0
DWIDTH 10 0
BBX 14 13 -4 0
BITMAP
3000
6E1C
CF3C
03EC
01E0
01E0
00C0
00C0
00C0
00C0
00C0
00C0
00C0
ENDCHAR
STARTCHAR 03D4
ENCODING 980
SWIDTH 600 0
DWIDTH 10 0
BBX 9 15 0 -1
BITMAP
3600
3600
0000
C180
F380
7780
1780
1C00
1C00
0C00
0C00
0C00
0C00
0C00
0C00
ENDCHAR
STARTCHAR 03D5
ENCODING 981
SWIDTH 600 0
DWIDTH 10 0
BBX 9 16 1 -4
BITMAP
1800
1800
1800
1800
7F00
FF00
DB80
D980
D980
D980
FB80
7F00
3C00
1800
1800
1800
ENDCHAR
STARTCHAR 03D6
ENCODING 982
SWIDTH 600 0
DWIDTH 10 0
BBX 10 9 0 -1
BITMAP
FFC0
FFC0
60C0
60C0
6CC0
6CC0
6EC0
7FC0
3B80
ENDCHAR
STARTCHAR 03D7
ENCODING 983
SWIDTH 600 0
DWIDTH 10 0
BBX 9 12 0 -3
BITMAP
F180
F380
3380
3700
3E00
7600
7600
E780
C380
0180
0B00
0F00
ENDCHAR
STARTCHAR 03D8
ENCODING 984
SWIDTH 600 0
DWIDTH 10 0
BBX 8 15 1 -3
BITMAP
3C
7E
67
E3
E3
E3
E3
E3
E3
E7
7E
3E
18
18
18
ENDCHAR
STARTCHAR 03D9
ENCODING 985
SWIDTH 600 0
DWIDTH 10 0
BBX 8 12 1 -4
BITMAP
3C
7E
E7
C3
C3
C3
E7
7E
3C
18
18
18
ENDCHAR
STARTCHAR 03DA
ENCODING 986
SWIDTH 600 0
DWIDTH 10 0
BBX 9 16 1 -3
BITMAP
3F80
7F80
E000
E000
C000
C000
C000
C000
E000
E000
7C00
3E00
0600
0600
0E00
0C00
ENDCHAR
STARTCHAR 03DB
ENCODING 987
SWIDTH 600 0
DWIDTH 10 0
BBX 8 13 1 -4
BITMAP
3F
7F
E0
C0
C0
C0
E0
78
3C
06
06
0C
08
ENDCHAR
STARTCHAR 03DC
ENCODING 988
SWIDTH 600 0
DWIDTH 10 0
BBX 7 12 2 0
BITMAP
FE
FE
C0
C0
C0
FE
FE
C0
C0
C0
C0
C0
ENDCHAR
STARTCHAR 03DD
ENCODING 989
SWIDTH 600 0
DWIDTH 10 0
BBX 8 17 0 -4
BITMAP
07
0F
1C
18
18
18
1E
1E
18
18
18
18
18
18
38
F0
E0
ENDCHAR
STARTCHAR 03DE
ENCODING 990
SWIDTH 600 0
DWIDTH 10 0
BBX 8 12 1 0
BITMAP
E0
F0
70
71
77
7F
FE
E6
8E
0E
0F
07
ENDCHAR
STARTCHAR 03DF
ENCODING 991
SWIDTH 600 0
DWIDTH 10 0
BBX 8 13 1 -1
BITMAP
38
30
30
70
60
60
FF
FF
06
06
0E
0C
0C
ENDCHAR
STARTCHAR 03E0
ENCODING 992
SWIDTH 600 0
DWIDTH 10 0
BBX 9 15 0 -3
BITMAP
FC00
FE00
6300
6780
6F80
6D80
0D80
0D80
0D80
0D80
0D80
0D80
0180
0180
0380
ENDCHAR
STARTCHAR 03E1
ENCODING 993
SWIDTH 600 0
DWIDTH 10 0
BBX 8 12 1 -3
BITMAP
E0
F8
3C
1C
1E
36
6F
FF
DB
03
03
03
ENDCHAR
STARTCHAR 03F0
ENCODING 1008
SWIDTH 600 0
DWIDTH 10 0
BBX 9 9 0 0
BITMAP
7180
7180
1B80
1F00
3E00
3E00
7600
E380
4380
ENDCHAR
STARTCHAR 03F1
ENCODING 1009
SWIDTH 600 0
DWIDTH 10 0
BBX 8 13 1 -4
BITMAP
3C
7E
E7
C3
C3
C3
E7
FE
DC
C0
E0
7F
3F
ENDCHAR
STARTCHAR 03F2
ENCODING 1010
SWIDTH 600 0
DWIDTH 10 0
BBX 7 9 2 0
BITMAP
3C
FE
E2
C0
C0
C0
E2
FE
3C
ENDCHAR
STARTCHAR 03F3
ENCODING 1011
SWIDTH 600 0
DWIDTH 10 0
BBX 6 18 1 -4
BITMAP
0C
0C
0C
00
00
7C
7C
0C
0C
0C
0C
0C
0C
0C
0C
1C
FC
F8
ENDCHAR
STARTCHAR 03F4
ENCODING 1012
SWIDTH 600 0
DWIDTH 10 0
BBX 9 12 1 0
BITMAP
3E00
7F00
6700
E300
E300
FF00
FF80
E300
E300
6700
7F00
3E00
ENDCHAR
STARTCHAR 03F5
ENCODING 1013
SWIDTH 600 0
DWIDTH 10 0
BBX 7 9 1 0
BITMAP
3E
7E
E0
FE
FE
E0
E0
7E
3E
ENDCHAR
STARTCHAR 03F6
ENCODING 1014
SWIDTH 600 0
DWIDTH 10 0
BBX 7 9 2 0
BITMAP
F8
FC
0C
FE
FE
0E
0E
FC
F8
ENDCHAR
STARTCHAR 03F7
ENCODING 1015
SWIDTH 600 0
DWIDTH 10 0
BBX 7 12 2 1
BITMAP
C0
C0
FC
FE
C6
C6
C6
FE
FC
C0
C0
C0
ENDCHAR
STARTCHAR 03F8
ENCODING 1016
SWIDTH 600 0
DWIDTH 10 0
BBX 8 16 1 -4
BITMAP
C0
C0
C0
C0
DC
FE
E7
C3
C3
C3
E7
FE
DC
C0
C0
C0
ENDCHAR
STARTCHAR 03F9
ENCODING 1017
SWIDTH 600 0
DWIDTH 10 0
BBX 8 12 1 0
BITMAP
3F
7F
71
E0
E0
E0
E0
E0
E0
71
7F
3F
ENDCHAR
STARTCHAR 03FA
ENCODING 1018
SWIDTH 600 0
DWIDTH 10 0
BBX 9 12 1 1
BITMAP
E380
F780
FF80
DD80
DD80
C180
C180
C180
C180
C180
C180
C180
ENDCHAR
STARTCHAR 03FB
ENCODING 1019
SWIDTH 600 0
DWIDTH 10 0
BBX 8 12 1 -3
BITMAP
E7
FF
FF
DB
DB
C3
C3
C3
C0
C0
C0
C0
ENDCHAR
STARTCHAR 03FC
ENCODING 1020
SWIDTH 600 0
DWIDTH 10 0
BBX 9 13 0 -4
BITMAP
1E00
3F00
7380
7180
6180
7180
7380
7F00
6E00
6000
FE00
FE00
6000
ENDCHAR
STARTCHAR 03FD
ENCODING 1021
SWIDTH 600 0
DWIDTH 10 0
BBX 8 12 1 0
BITMAP
FC
FE
8E
07
07
07
07
07
07
8E
FE
FC
ENDCHAR
STARTCHAR 03FE
ENCODING 1022
SWIDTH 600 0
DWIDTH 10 0
BBX 8 12 1 0
BITMAP
3F
7F
71
E0
E0
EE
EE
EE
E0
71
7F
1F
ENDCHAR
STARTCHAR 03FF
ENCODING 1023
SWIDTH 600 0
DWIDTH 10 0
BBX 7 12 1 0
BITMAP
F8
FC
8E
06
06
76
76
76
06
8E
FC
F8
ENDCHAR
STARTCHAR 0400
ENCODING 1024
SWIDTH 600 0
DWIDTH 10 0
BBX 7 15 2 1
BITMAP
30
18
00
FE
FE
C0
C0
C0
FE
FE
C0
C0
C0
FE
FE
ENDCHAR
STARTCHAR 0401
ENCODING 1025
SWIDTH 600 0
DWIDTH 10 0
BBX 7 15 2 0
BITMAP
6C
6C
00
FE
FE
C0
C0
C0
FE
FE
C0
C0
C0
FE
FE
ENDCHAR
STARTCHAR 0402
ENCODING 1026
SWIDTH 600 0
DWIDTH 10 0
BBX 10 17 0 -4
BITMAP
FF00
FF00
3000
3000
3000
3780
3FC0
39C0
30C0
30C0
30C0
30C0
30C0
00C0
01C0
07C0
0780
ENDCHAR
STARTCHAR 0403
ENCODING 1027
SWIDTH 600 0
DWIDTH 10 0
BBX 7 15 2 0
BITMAP
18
30
00
FE
FE
C0
C0
C0
C0
C0
C0
C0
C0
C0
C0
ENDCHAR
STARTCHAR 0404
ENCODING 1028
SWIDTH 600 0
DWIDTH 10 0
BBX 8 12 1 0
BITMAP
3F
7F
71
E0
E0
FE
FE
E0
E0
71
7F
3F
ENDCHAR
STARTCHAR 0405
ENCODING 1029
SWIDTH 600 0
DWIDTH 10 0
BBX 8 12 1 0
BITMAP
3E
FE
E2
C0
F0
7C
1E
07
03
87
FF
7C
ENDCHAR
STARTCHAR 0406
ENCODING 1030
SWIDTH 600 0
DWIDTH 10 0
BBX 8 12 1 1
BITMAP
FF
FF
18
18
18
18
18
18
18
18
FF
FF
ENDCHAR
STARTCHAR 0407
ENCODING 1031
SWIDTH 600 0
DWIDTH 10 0
BBX 7 15 1 0
BITMAP
6C
6C
00
FE
FE
18
18
18
18
18
18
18
18
FE
FE
ENDCHAR
STARTCHAR 0408
ENCODING 1032
SWIDTH 600 0
DWIDTH 10 0
BBX 7 12 1 0
BITMAP
3E
3E
06
06
06
06
06
06
06
8E
FE
FC
ENDCHAR
STARTCHAR 0409
ENCODING 1033
SWIDTH 600 0
DWIDTH 10 0
BBX 10 12 0 0
BITMAP
3E00
3E00
3600
3600
3600
3700
3780
36C0
36C0
36C0
E7C0
E700
ENDCHAR
STARTCHAR 040A
ENCODING 1034
SWIDTH 600 0
DWIDTH 10 0
BBX 10 12 0 0
BITMAP
C600
C600
C600
C600
C600
FF00
FF80
C6C0
C6C0
C6C0
C780
C700
ENDCHAR
STARTCHAR 040B
ENCODING 1035
SWIDTH 600 0
DWIDTH 10 0
BBX 10 13 0 0
BITMAP
FF00
FF00
3000
3000
3000
3780
3FC0
39C0
30C0
30C0
30C0
30C0
30C0
ENDCHAR
STARTCHAR 040C
ENCODING 1036
SWIDTH 600 0
DWIDTH 10 0
BBX 9 15 1 1
BITMAP
0C00
1800
0000
C300
C700
CE00
DC00
F800
F800
FC00
EE00
CE00
C700
C300
C380
ENDCHAR
STARTCHAR 040D
ENCODING 1037
SWIDTH 600 0
DWIDTH 10 0
BBX 8 15 1 1
BITMAP
18
08
00
C7
C7
CF
CF
CB
DB
DB
D3
F3
F3
E3
E3
ENDCHAR
STARTCHAR 040E
ENCODING 1038
SWIDTH 600 0
DWIDTH 10 0
BBX 9 15 1 1
BITMAP
6600
3C00
0000
C380
E300
6700
7600
3E00
3E00
1C00
1C00
1800
3800
F000
F000
ENDCHAR
STARTCHAR 040F
ENCODING 1039
SWIDTH 600 0
DWIDTH 10 0
BBX 8 15 1 -2
BITMAP
C3
C3
C3
C3
C3
C3
C3
C3
C3
C3
FF
FF
18
18
18
ENDCHAR
STARTCHAR 0410
ENCODING 1040
SWIDTH 600 0
DWIDTH 10 0
BBX 10 12 0 1
BITMAP
1E00
1E00
1E00
1E00
3300
3300
3300
7F80
7F80
6180
6180
E1C0
ENDCHAR
STARTCHAR 0411
ENCODING 1041
SWIDTH 600 0
DWIDTH 10 0
BBX 7 12 2 0
BITMAP
FE
FE
C0
C0
FC
FE
C6
C6
C6
C6
FE
FC
ENDCHAR
STARTCHAR 0412
ENCODING 1042
SWIDTH 600 0
DWIDTH 10 0
BBX 8 12 1 1
BITMAP
FC
FF
C7
C3
C7
FE
FE
C3
C3
C3
FF
FE
ENDCHAR
STARTCHAR 0413
ENCODING 1043
SWIDTH 600 0
DWIDTH 10 0
BBX 7 12 2 0
BITMAP
FE
FE
C0
C0
C0
C0
C0
C0
C0
C0
C0
C0
ENDCHAR
STARTCHAR 0414
ENCODING 1044
SWIDTH 600 0
DWIDTH 10 0
BBX 9 15 0 -2
BITMAP
3F00
3F00
3300
3300
3300
3300
3300
3300
3300
7300
FF80
FF80
C180
C180
C180
ENDCHAR
STARTCHAR 0415
ENCODING 1045
SWIDTH 600 0
DWIDTH 10 0
BBX 7 12 2 1
BITMAP
FE
FE
C0
C0
C0
FE
FE
C0
C0
C0
FE
FE
ENDCHAR
STARTCHAR 0416
ENCODING 1046
SWIDTH 600 0
DWIDTH 10 0
BBX 10 12 0 1
BITMAP
ECC0
6D80
6D80
3F00
3F00
3F00
3F00
7F80
6D80
6D80
6D80
CCC0
ENDCHAR
STARTCHAR 0417
ENCODING 1047
SWIDTH 600 0
DWIDTH 10 0
BBX 8 12 0 0
BITMAP
7E
7F
43
03
03
1E
1E
03
03
83
FF
7E
ENDCHAR
STARTCHAR 0418
ENCODING 1048
SWIDTH 600 0
DWIDTH 10 0
BBX 8 12 1 1
BITMAP
C7
C7
CF
CF
CB
DB
DB
D3
F3
F3
E3
E3
ENDCHAR
STARTCHAR 0419
ENCODING 1049
SWIDTH 600 0
DWIDTH 10 0
BBX 8 15 1 1
BITMAP
26
3C
00
C7
C7
CF
CF
CB
DB
DB
D3
F3
F3
E3
E3
ENDCHAR
STARTCHAR 041A
ENCODING 1050
SWIDTH 600 0
DWIDTH 10 0
BBX 9 12 1 1
BITMAP
C300
C700
CE00
DC00
F800
F800
FC00
EE00
CE00
C700
C300
C380
ENDCHAR
STARTCHAR 041B
ENCODING 1051
SWIDTH 600 0
DWIDTH 10 0
BBX 9 12 0 0
BITMAP
3F80
3F80
3180
3180
3180
3180
3180
3180
3180
7180
F180
E180
ENDCHAR
STARTCHAR 041C
ENCODING 1052
SWIDTH 600 0
DWIDTH 10 0
BBX 9 12 1 1
BITMAP
E380
E380
F780
F780
D580
DD80
DD80
DD80
C180
C180
C180
C180
ENDCHAR
STARTCHAR 041D
ENCODING 1053
SWIDTH 600 0
DWIDTH 10 0
BBX 8 12 1 1
BITMAP
C3
C3
C3
C3
C3
FF
FF
C3
C3
C3
C3
C3
ENDCHAR
STARTCHAR 041E
ENCODING 1054
SWIDTH 600 0
DWIDTH 10 0
BBX 9 12 0 0
BITMAP
3E00
7F00
7300
6380
6380
E180
6180
6380
6380
7380
3F00
3E00
ENDCHAR
STARTCHAR 041F
ENCODING 1055
SWIDTH 600 0
DWIDTH 10 0
BBX 8 12 1 0
BITMAP
FF
FF
C3
C3
C3
C3
C3
C3
C3
C3
C3
C3
ENDCHAR
STARTCHAR 0420
ENCODING 1056
SWIDTH 600 0
DWIDTH 10 0
BBX 7 12 2 -1
BITMAP
FC
FE
C6
C6
C6
FE
FC
C0
C0
C0
C0
C0
ENDCHAR
STARTCHAR 0421
ENCODING 1057
SWIDTH 600 0
DWIDTH 10 0
BBX 8 12 1 0
BITMAP
3F
7F
71
E0
E0
E0
E0
E0
E0
71
7F
3F
ENDCHAR
STARTCHAR 0422
ENCODING 1058
SWIDTH 600 0
DWIDTH 10 0
BBX 8 12 1 0
BITMAP
FF
FF
18
18
18
18
18
18
18
18
18
18
ENDCHAR
STARTCHAR 0423
ENCODING 1059
SWIDTH 600 0
DWIDTH 10 0
BBX 9 12 1 1
BITMAP
C380
E300
6700
7600
3E00
3E00
1C00
1C00
1800
3800
F000
F000
ENDCHAR
STARTCHAR 0424
ENCODING 1060
SWIDTH 600 0
DWIDTH 10 0
BBX 10 12 0 1
BITMAP
0C00
3F00
7F80
ED80
CCC0
CCC0
CCC0
CCC0
6D80
7F80
3E00
0C00
ENDCHAR
STARTCHAR 0425
ENCODING 1061
SWIDTH 600 0
DWIDTH 10 0
BBX 10 12 0 1
BITMAP
6180
7380
3300
3F00
1E00
0C00
1E00
1E00
3F00
3300
7380
E1C0
ENDCHAR
STARTCHAR 0426
ENCODING 1062
SWIDTH 600 0
DWIDTH 10 0
BBX 8 15 1 -2
BITMAP
C6
C6
C6
C6
C6
C6
C6
C6
C6
C6
FF
FF
03
03
03
ENDCHAR
STARTCHAR 0427
ENCODING 1063
SWIDTH 600 0
DWIDTH 10 0
BBX 8 13 1 0
BITMAP
C3
C3
C3
C3
C3
E7
FF
7B
03
03
03
03
03
ENDCHAR
STARTCHAR 0428
ENCODING 1064
SWIDTH 600 0
DWIDTH 10 0
BBX 8 12 1 1
BITMAP
DB
DB
DB
DB
DB
DB
DB
DB
DB
DB
FF
FF
ENDCHAR
STARTCHAR 0429
ENCODING 1065
SWIDTH 600 0
DWIDTH 10 0
BBX 9 15 1 -2
BITMAP
D980
D980
D980
D980
D980
D980
D980
D980
D980
D980
FF80
FF80
0180
0180
0180
ENDCHAR
STARTCHAR 042A
ENCODING 1066
SWIDTH 600 0
DWIDTH 10 0
BBX 9 12 0 0
BITMAP
F000
F000
3000
3000
3000
3F00
3F80
3180
3180
3180
3F80
3F00
ENDCHAR
STARTCHAR 042B
ENCODING 1067
SWIDTH 600 0
DWIDTH 10 0
BBX 9 12 0 0
BITMAP
C180
C180
C180
C180
C180
F180
FD80
CD80
CD80
CD80
FD80
F980
ENDCHAR
STARTCHAR 042C
ENCODING 1068
SWIDTH 600 0
DWIDTH 10 0
BBX 8 12 1 1
BITMAP
C0
C0
C0
C0
C0
FC
FE
C7
C3
C7
FF
FC
ENDCHAR
STARTCHAR 042D
ENCODING 1069
SWIDTH 600 0
DWIDTH 10 0
BBX 8 12 1 0
BITMAP
FC
FE
8E
07
07
7F
7F
07
07
8E
FE
FC
ENDCHAR
STARTCHAR 042E
ENCODING 1070
SWIDTH 600 0
DWIDTH 10 0
BBX 10 12 0 0
BITMAP
C780
CF80
DDC0
D8C0
D8C0
F8C0
F8C0
D8C0
D8C0
DD80
CF80
C700
ENDCHAR
STARTCHAR 042F
ENCODING 1071
SWIDTH 600 0
DWIDTH 10 0
BBX 8 12 1 0
BITMAP
3F
FF
E3
C3
E3
7F
3F
33
73
63
E3
C3
ENDCHAR
STARTCHAR 0430
ENCODING 1072
SWIDTH 600 0
DWIDTH 10 0
BBX 8 9 1 -1
BITMAP
7E
7F
03
7F
FF
E3
E3
FF
7B
ENDCHAR
STARTCHAR 0431
ENCODING 1073
SWIDTH 600 0
DWIDTH 10 0
BBX 8 13 1 1
BITMAP
3E
7E
E0
C0
FC
FE
E7
C3
C3
C3
E7
7E
3C
ENDCHAR
STARTCHAR 0432
ENCODING 1074
SWIDTH 600 0
DWIDTH 10 0
BBX 8 9 1 0
BITMAP
FE
FF
C3
FE
FE
C7
C3
FF
FE
ENDCHAR
STARTCHAR 0433
ENCODING 1075
SWIDTH 600 0
DWIDTH 10 0
BBX 6 9 2 -1
BITMAP
FC
FC
C0
C0
C0
C0
C0
C0
C0
ENDCHAR
STARTCHAR 0434
ENCODING 1076
SWIDTH 600 0
DWIDTH 10 0
BBX 9 11 0 -3
BITMAP
3F00
3F00
3300
3300
3300
3300
7300
FF80
FF80
C180
C180
ENDCHAR
STARTCHAR 0435
ENCODING 1077
SWIDTH 600 0
DWIDTH 10 0
BBX 8 9 1 0
BITMAP
3C
7F
E3
FF
FF
C0
E1
7F
3E
ENDCHAR
STARTCHAR 0436
ENCODING 1078
SWIDTH 600 0
DWIDTH 10 0
BBX 10 9 0 1
BITMAP
EDC0
6D80
3F00
3F00
3F00
7F80
6D80
6D80
CCC0
ENDCHAR
STARTCHAR 0437
ENCODING 1079
SWIDTH 600 0
DWIDTH 10 0
BBX 7 9 1 -1
BITMAP
FC
FE
06
3E
3C
06
06
FE
FC
ENDCHAR
STARTCHAR 0438
ENCODING 1080
SWIDTH 600 0
DWIDTH 10 0
BBX 7 9 1 1
BITMAP
C6
CE
CE
DE
D6
F6
F6
E6
E6
ENDCHAR
STARTCHAR 0439
ENCODING 1081
SWIDTH 600 0
DWIDTH 10 0
BBX 7 13 1 1
BITMAP
44
3C
00
00
C6
CE
CE
DE
D6
F6
F6
E6
E6
ENDCHAR
STARTCHAR 043A
ENCODING 1082
SWIDTH 600 0
DWIDTH 10 0
BBX 8 9 2 1
BITMAP
CE
DC
F8
F0
F8
DC
CC
CE
C7
ENDCHAR
STARTCHAR 043B
ENCODING 1083
SWIDTH 600 0
DWIDTH 10 0
BBX 9 9 0 -1
BITMAP
3F80
3F80
3180
3180
3180
3180
3180
F180
E180
ENDCHAR
STARTCHAR 043C
ENCODING 1084
SWIDTH 600 0
DWIDTH 10 0
BBX 9 9 1 1
BITMAP
E380
E380
F780
F780
D580
DD80
DD80
DD80
C180
ENDCHAR
STARTCHAR 043D
ENCODING 1085
SWIDTH 600 0
DWIDTH 10 0
BBX 7 9 2 1
BITMAP
C6
C6
C6
FE
FE
C6
C6
C6
C6
ENDCHAR
STARTCHAR 043E
ENCODING 1086
SWIDTH 600 0
DWIDTH 10 0
BBX 8 9 1 0
BITMAP
3C
7E
E7
C3
C3
C3
E7
7E
3C
ENDCHAR
STARTCHAR 043F
ENCODING 1087
SWIDTH 600 0
DWIDTH 10 0
BBX 7 9 2 -1
BITMAP
FE
FE
C6
C6
C6
C6
C6
C6
C6
ENDCHAR
STARTCHAR 0440
ENCODING 1088
SWIDTH 600 0
DWIDTH 10 0
BBX 8 13 1 -4
BITMAP
DC
FE
E7
C3
C3
C3
E7
FE
DC
C0
C0
C0
C0
ENDCHAR
STARTCHAR 0441
ENCODING 1089
SWIDTH 600 0
DWIDTH 10 0
BBX 7 9 2 0
BITMAP
3C
FE
E2
C0
C0
C0
E2
FE
3C
ENDCHAR
STARTCHAR 0442
ENCODING 1090
SWIDTH 600 0
DWIDTH 10 0
BBX 8 9 1 -1
BITMAP
FF
FF
18
18
18
18
18
18
18
ENDCHAR
STARTCHAR 0443
ENCODING 1091
SWIDTH 600 0
DWIDTH 10 0
BBX 8 13 1 -4
BITMAP
C3
C3
E7
66
66
3E
3C
3C
18
18
38
F0
E0
ENDCHAR
STARTCHAR 0444
ENCODING 1092
SWIDTH 600 0
DWIDTH 10 0
BBX 9 16 1 -4
BITMAP
1800
1800
1800
1C00
7F00
7B00
D980
D980
D980
D980
DB80
7F00
3E00
1800
1800
1800
ENDCHAR
STARTCHAR 0445
ENCODING 1093
SWIDTH 600 0
DWIDTH 10 0
BBX 8 9 1 1
BITMAP
E7
66
3C
3C
18
3C
7E
67
E3
ENDCHAR
STARTCHAR 0446
ENCODING 1094
SWIDTH 600 0
DWIDTH 10 0
BBX 8 11 1 -2
BITMAP
C6
C6
C6
C6
C6
C6
C6
FF
FF
03
03
ENDCHAR
STARTCHAR 0447
ENCODING 1095
SWIDTH 600 0
DWIDTH 10 0
BBX 7 9 1 0
BITMAP
C6
C6
C6
E6
FE
3E
06
06
06
ENDCHAR
STARTCHAR 0448
ENCODING 1096
SWIDTH 600 0
DWIDTH 10 0
BBX 8 9 1 1
BITMAP
DB
DB
DB
DB
DB
DB
DB
FF
FF
ENDCHAR
STARTCHAR 0449
ENCODING 1097
SWIDTH 600 0
DWIDTH 10 0
BBX 10 11 0 -2
BITMAP
D980
D980
D980
D980
D980
D980
D980
FFC0
FFC0
00C0
00C0
ENDCHAR
STARTCHAR 044A
ENCODING 1098
SWIDTH 600 0
DWIDTH 10 0
BBX 9 9 1 0
BITMAP
F000
F000
3000
3E00
3F80
3380
3180
3F80
3F00
ENDCHAR
STARTCHAR 044B
ENCODING 1099
SWIDTH 600 0
DWIDTH 10 0
BBX 9 9 0 0
BITMAP
C180
C180
C180
F180
FD80
CD80
CD80
FD80
F980
ENDCHAR
STARTCHAR 044C
ENCODING 1100
SWIDTH 600 0
DWIDTH 10 0
BBX 7 9 1 1
BITMAP
C0
C0
C0
FC
FE
C6
C6
FE
FC
ENDCHAR
STARTCHAR 044D
ENCODING 1101
SWIDTH 600 0
DWIDTH 10 0
BBX 7 9 1 0
BITMAP
F8
FC
0E
7E
7E
06
8E
FC
F8
ENDCHAR
STARTCHAR 044E
ENCODING 1102
SWIDTH 600 0
DWIDTH 10 0
BBX 9 9 0 1
BITMAP
CE00
CF00
D980
F980
F980
D980
D980
CF00
CE00
ENDCHAR
STARTCHAR 044F
ENCODING 1103
SWIDTH 600 0
DWIDTH 10 0
BBX 7 9 2 -1
BITMAP
7E
FE
C6
C6
FE
7E
76
E6
C6
ENDCHAR
STARTCHAR 0450
ENCODING 1104
SWIDTH 600 0
DWIDTH 10 0
BBX 8 14 1 0
BITMAP
60
30
18
08
00
3C
7F
E3
FF
FF
C0
E1
7F
3E
ENDCHAR
STARTCHAR 0451
ENCODING 1105
SWIDTH 600 0
DWIDTH 10 0
BBX 8 13 1 0
BITMAP
36
36
00
00
3C
7F
E3
FF
FF
C0
E1
7F
3E
ENDCHAR
STARTCHAR 0452
ENCODING 1106
SWIDTH 600 0
DWIDTH 10 0
BBX 9 16 0 -4
BITMAP
7000
7000
7000
7000
FE00
FE00
7000
7700
7F80
7180
7180
7180
7180
0380
0700
0E00
ENDCHAR
STARTCHAR 0453
ENCODING 1107
SWIDTH 600 0
DWIDTH 10 0
BBX 6 13 2 0
BITMAP
0C
18
30
00
FC
FC
C0
C0
C0
C0
C0
C0
C0
ENDCHAR
STARTCHAR 0454
ENCODING 1108
SWIDTH 600 0
DWIDTH 10 0
BBX 7 9 1 0
BITMAP
3E
7E
E0
FC
FC
E0
E0
7E
3E
ENDCHAR
STARTCHAR 0455
ENCODING 1109
SWIDTH 600 0
DWIDTH 10 0
BBX 7 9 2 0
BITMAP
7C
FC
C0
F0
7C
0E
06
FE
FC
ENDCHAR
STARTCHAR 0456
ENCODING 1110
SWIDTH 600 0
DWIDTH 10 0
BBX 8 14 1 0
BITMAP
18
18
18
00
00
78
78
18
18
18
18
18
FF
FF
ENDCHAR
STARTCHAR 0457
ENCODING 1111
SWIDTH 600 0
DWIDTH 10 0
BBX 8 13 1 0
BITMAP
6C
6C
00
00
78
78
18
18
18
18
18
FF
FF
ENDCHAR
STARTCHAR 0458
ENCODING 1112
SWIDTH 600 0
DWIDTH 10 0
BBX 6 18 1 -4
BITMAP
0C
0C
0C
00
00
7C
7C
0C
0C
0C
0C
0C
0C
0C
0C
1C
FC
F8
ENDCHAR
STARTCHAR 0459
ENCODING 1113
SWIDTH 600 0
DWIDTH 10 0
BBX 10 9 0 0
BITMAP
3E00
3E00
3600
3700
37C0
36C0
36C0
E7C0
E780
ENDCHAR
STARTCHAR 045A
ENCODING 1114
SWIDTH 600 0
DWIDTH 10 0
BBX 10 9 0 0
BITMAP
CC00
CC00
CC00
FF00
FFC0
CCC0
CCC0
CFC0
CF00
ENDCHAR
STARTCHAR 045B
ENCODING 1115
SWIDTH 600 0
DWIDTH 10 0
BBX 9 13 0 0
BITMAP
7000
7000
7000
7000
FE00
FE00
7000
7700
7F80
7380
7180
7180
7180
ENDCHAR
STARTCHAR 045C
ENCODING 1116
SWIDTH 600 0
DWIDTH 10 0
BBX 8 13 2 1
BITMAP
0C
18
30
00
CE
DC
F8
F0
F8
DC
CC
CE
C7
ENDCHAR
STARTCHAR 045D
ENCODING 1117
SWIDTH 600 0
DWIDTH 10 0
BBX 7 13 1 1
BITMAP
70
30
18
00
C6
CE
CE
DE
D6
F6
F6
E6
E6
ENDCHAR
STARTCHAR 045E
ENCODING 1118
SWIDTH 600 0
DWIDTH 10 0
BBX 9 17 1 -4
BITMAP
2200
3E00
0000
0000
C380
E300
6300
6700
7600
3600
3E00
1C00
1C00
1800
1800
F800
F000
ENDCHAR
STARTCHAR 045F
ENCODING 1119
SWIDTH 600 0
DWIDTH 10 0
BBX 7 11 2 -2
BITMAP
C6
C6
C6
C6
C6
C6
C6
FE
FE
30
30
ENDCHAR
STARTCHAR 0472
ENCODING 1138
SWIDTH 600 0
DWIDTH 10 0
BBX 9 12 1 0
BITMAP
3E00
7F00
E700
E300
E300
FF80
FF80
E300
E300
6700
7F00
3E00
ENDCHAR
STARTCHAR 0473
ENCODING 1139
SWIDTH 600 0
DWIDTH 10 0
BBX 8 9 1 0
BITMAP
3C
7E
E7
C3
FF
FF
E7
7E
3C
ENDCHAR
STARTCHAR 0490
ENCODING 1168
SWIDTH 600 0
DWIDTH 10 0
BBX 7 15 2 -1
BITMAP
06
06
06
FE
FE
C0
C0
C0
C0
C0
C0
C0
C0
C0
C0
ENDCHAR
STARTCHAR 0491
ENCODING 1169
SWIDTH 600 0
DWIDTH 10 0
BBX 6 12 2 -1
BITMAP
0C
0C
0C
FC
FC
C0
C0
C0
C0
C0
C0
C0
ENDCHAR
STARTCHAR 0492
ENCODING 1170
SWIDTH 600 0
DWIDTH 10 0
BBX 9 12 0 0
BITMAP
7F80
7F80
7000
7000
7000
FE00
FE00
7000
7000
7000
7000
7000
ENDCHAR
STARTCHAR 0493
ENCODING 1171
SWIDTH 600 0
DWIDTH 10 0
BBX 7 9 1 -1
BITMAP
7E
7E
60
FC
FC
60
60
60
60
ENDCHAR
STARTCHAR 0494
ENCODING 1172
SWIDTH 600 0
DWIDTH 10 0
BBX 7 16 2 -3
BITMAP
FE
FE
C0
C0
FC
FE
C6
C6
C6
C6
C6
C6
06
06
3E
3C
ENDCHAR
STARTCHAR 0495
ENCODING 1173
SWIDTH 600 0
DWIDTH 10 0
BBX 7 13 2 -4
BITMAP
FC
FC
C0
C0
FC
FE
CE
C6
C6
06
0E
3E
3C
ENDCHAR
STARTCHAR 0496
ENCODING 1174
SWIDTH 600 0
DWIDTH 10 0
BBX 10 15 0 -2
BITMAP
ECC0
6D80
6D80
3F00
3F00
3F00
3F00
7F80
6D80
6D80
6DC0
CCC0
00C0
00C0
00C0
ENDCHAR
STARTCHAR 0497
ENCODING 1175
SWIDTH 600 0
DWIDTH 10 0
BBX 10 11 0 -2
BITMAP
6DC0
6D80
3F00
3F00
3F00
6F80
6D80
6DC0
CCC0
00C0
00C0
ENDCHAR
STARTCHAR 0498
ENCODING 1176
SWIDTH 600 0
DWIDTH 10 0
BBX 8 15 1 -3
BITMAP
FC
FE
86
06
06
3C
3E
07
03
03
FF
FE
18
08
38
ENDCHAR
STARTCHAR 0499
ENCODING 1177
SWIDTH 600 0
DWIDTH 10 0
BBX 8 12 1 -4
BITMAP
FC
FE
06
3E
3E
07
03
FF
FE
10
08
78
ENDCHAR
STARTCHAR 049A
ENCODING 1178
SWIDTH 600 0
DWIDTH 10 0
BBX 9 15 1 -2
BITMAP
C300
C700
CE00
DC00
D800
F800
FC00
EE00
CE00
C700
C380
C380
0180
0180
0180
ENDCHAR
STARTCHAR 049B
ENCODING 1179
SWIDTH 600 0
DWIDTH 10 0
BBX 8 11 2 -2
BITMAP
CE
DC
F8
F8
F8
DC
CE
C7
C7
03
03
ENDCHAR
STARTCHAR 04A2
ENCODING 1186
SWIDTH 600 0
DWIDTH 10 0
BBX 10 15 0 -2
BITMAP
C300
C300
C300
C300
C300
FF00
FF00
C300
C300
C300
C3C0
C3C0
00C0
00C0
00C0
ENDCHAR
STARTCHAR 04A3
ENCODING 1187
SWIDTH 600 0
DWIDTH 10 0
BBX 9 11 0 -2
BITMAP
C600
C600
C600
FE00
FE00
C600
C600
C780
C780
0180
0180
ENDCHAR
STARTCHAR 04AA
ENCODING 1194
SWIDTH 600 0
DWIDTH 10 0
BBX 7 15 1 -3
BITMAP
3E
7E
70
E0
E0
E0
E0
E0
E0
E0
7E
3E
0C
04
1C
ENDCHAR
STARTCHAR 04AB
ENCODING 1195
SWIDTH 600 0
DWIDTH 10 0
BBX 7 12 2 -4
BITMAP
3C
7E
E2
C0
C0
C0
E0
FE
7E
18
08
38
ENDCHAR
STARTCHAR 04AC
ENCODING 1196
SWIDTH 600 0
DWIDTH 10 0
BBX 8 15 1 -2
BITMAP
FF
FF
18
18
18
18
18
18
18
18
1E
1E
06
06
06
ENDCHAR
STARTCHAR 04AD
ENCODING 1197
SWIDTH 600 0
DWIDTH 10 0
BBX 8 11 1 -3
BITMAP
FF
FF
18
18
18
18
18
1E
1E
06
06
ENDCHAR
STARTCHAR 04AE
ENCODING 1198
SWIDTH 600 0
DWIDTH 10 0
BBX 10 12 0 1
BITMAP
E1C0
6180
7380
3300
3F00
1E00
1E00
0C00
0C00
0C00
0C00
0C00
ENDCHAR
STARTCHAR 04AF
ENCODING 1199
SWIDTH 600 0
DWIDTH 10 0
BBX 8 12 1 -3
BITMAP
C3
E7
E7
66
7E
3C
3C
3C
18
18
18
18
ENDCHAR
STARTCHAR 04B0
ENCODING 1200
SWIDTH 600 0
DWIDTH 10 0
BBX 10 12 0 -1
BITMAP
E1C0
6180
7380
3300
3F00
1E00
1E00
0C00
3F00
3F00
0C00
0C00
ENDCHAR
STARTCHAR 04B1
ENCODING 1201
SWIDTH 600 0
DWIDTH 10 0
BBX 8 12 1 -3
BITMAP
C3
E3
67
66
76
3E
3C
1C
18
7E
7E
18
ENDCHAR
STARTCHAR 04B2
ENCODING 1202
SWIDTH 600 0
DWIDTH 10 0
BBX 9 15 1 -2
BITMAP
C380
E700
6600
3E00
3C00
1C00
1C00
3C00
7E00
6600
E380
C380
0180
0180
0180
ENDCHAR
STARTCHAR 04B3
ENCODING 1203
SWIDTH 600 0
DWIDTH 10 0
BBX 8 11 1 -2
BITMAP
E7
6E
7C
38
38
3C
6E
E7
C7
03
03
ENDCHAR
STARTCHAR 04BA
ENCODING 1210
SWIDTH 600 0
DWIDTH 10 0
BBX 8 13 1 0
BITMAP
C0
C0
C0
C0
C0
DE
FF
E3
C3
C3
C3
C3
C3
ENDCHAR
STARTCHAR 04BB
ENCODING 1211
SWIDTH 600 0
DWIDTH 10 0
BBX 7 13 2 0
BITMAP
C0
C0
C0
C0
DC
FE
CE
C6
C6
C6
C6
C6
C6
ENDCHAR
STARTCHAR 04C0
ENCODING 1216
SWIDTH 600 0
DWIDTH 10 0
BBX 8 12 1 1
BITMAP
FF
FF
18
18
18
18
18
18
18
18
FF
FF
ENDCHAR
STARTCHAR 04C1
ENCODING 1217
SWIDTH 600 0
DWIDTH 10 0
BBX 10 15 0 1
BITMAP
3300
1E00
0000
ECC0
6D80
6D80
3F00
3F00
3F00
3F00
7F80
6D80
6D80
6D80
CCC0
ENDCHAR
STARTCHAR 04C2
ENCODING 1218
SWIDTH 600 0
DWIDTH 10 0
BBX 9 13 1 1
BITMAP
2200
3C00
0000
0000
D980
FB00
7F00
7E00
7F00
7F00
DB00
D980
D980
ENDCHAR
STARTCHAR 04C3
ENCODING 1219
SWIDTH 600 0
DWIDTH 10 0
BBX 8 16 1 -3
BITMAP
C3
C7
CE
DC
DC
FE
FF
E7
C3
C3
C3
C3
03
07
1F
1E
ENDCHAR
STARTCHAR 04C4
ENCODING 1220
SWIDTH 600 0
DWIDTH 10 0
BBX 7 13 2 -3
BITMAP
CE
DC
D8
F0
F8
FC
CC
CC
CC
0C
0C
3C
38
ENDCHAR
STARTCHAR 04C7
ENCODING 1223
SWIDTH 600 0
DWIDTH 10 0
BBX 8 16 1 -3
BITMAP
C3
C3
C3
C3
C3
FF
FF
C3
C3
C3
C3
C3
03
07
1E
1C
ENDCHAR
STARTCHAR 04C8
ENCODING 1224
SWIDTH 600 0
DWIDTH 10 0
BBX 7 13 2 -3
BITMAP
C6
C6
C6
FE
FE
C6
C6
C6
C6
06
0E
3E
38
ENDCHAR
STARTCHAR 04CB
ENCODING 1227
SWIDTH 600 0
DWIDTH 10 0
BBX 8 16 1 -3
BITMAP
C3
C3
C3
C3
C3
E7
FF
7B
03
03
03
0F
0F
0C
0C
0C
ENDCHAR
STARTCHAR 04CC
ENCODING 1228
SWIDTH 600 0
DWIDTH 10 0
BBX 7 11 1 -2
BITMAP
C6
C6
C6
E6
7E
3E
06
1E
1E
18
18
ENDCHAR
STARTCHAR 04CF
ENCODING 1231
SWIDTH 600 0
DWIDTH 10 0
BBX 2 13 3 0
BITMAP
C0
C0
C0
C0
C0
C0
C0
C0
C0
C0
C0
C0
C0
ENDCHAR
STARTCHAR 04D0
ENCODING 1232
SWIDTH 600 0
DWIDTH 10 0
BBX 10 15 0 1
BITMAP
1300
1E00
0000
1E00
1E00
1E00
1E00
3300
3300
3300
7F80
7F80
6180
6180
E1C0
ENDCHAR
STARTCHAR 04D1
ENCODING 1233
SWIDTH 600 0
DWIDTH 10 0
BBX 8 13 1 0
BITMAP
22
3C
00
00
7E
7F
03
7F
FF
E3
E3
FF
7B
ENDCHAR
STARTCHAR 04D2
ENCODING 1234
SWIDTH 600 0
DWIDTH 10 0
BBX 9 15 0 -1
BITMAP
3600
3600
0000
1C00
1C00
3600
3600
3600
3600
7700
7F00
7F00
6300
E380
E180
ENDCHAR
STARTCHAR 04D3
ENCODING 1235
SWIDTH 600 0
DWIDTH 10 0
BBX 8 13 1 -1
BITMAP
36
36
00
00
7E
7F
03
3F
FF
E3
E3
FF
7B
ENDCHAR
STARTCHAR 04D4
ENCODING 1236
SWIDTH 600 0
DWIDTH 10 0
BBX 10 12 0 1
BITMAP
1F80
1F80
3600
3600
3600
3780
6780
7E00
7E00
6600
C7C0
C7C0
ENDCHAR
STARTCHAR 04D5
ENCODING 1237
SWIDTH 600 0
DWIDTH 10 0
BBX 10 9 0 0
BITMAP
7F80
7FC0
0CC0
3FC0
FFC0
CC00
CC40
FFC0
7380
ENDCHAR
STARTCHAR 04D6
ENCODING 1238
SWIDTH 600 0
DWIDTH 10 0
BBX 7 15 2 1
BITMAP
4C
38
00
FE
FE
C0
C0
C0
FE
FE
C0
C0
C0
FE
FE
ENDCHAR
STARTCHAR 04D7
ENCODING 1239
SWIDTH 600 0
DWIDTH 10 0
BBX 8 13 1 1
BITMAP
26
3C
00
00
3C
7F
E3
FF
FF
C0
E1
7F
3E
ENDCHAR
STARTCHAR 04D8
ENCODING 1240
SWIDTH 600 0
DWIDTH 10 0
BBX 8 12 1 0
BITMAP
3C
3E
07
03
03
FF
FF
E3
E3
67
7F
3E
ENDCHAR
STARTCHAR 04D9
ENCODING 1241
SWIDTH 600 0
DWIDTH 10 0
BBX 8 9 1 0
BITMAP
7C
FE
87
03
FF
FF
C3
7E
3C
ENDCHAR
STARTCHAR 04DA
ENCODING 1242
SWIDTH 600 0
DWIDTH 10 0
BBX 8 15 1 -1
BITMAP
36
36
00
3E
3F
27
03
03
FF
FF
E3
E3
67
7F
3E
ENDCHAR
STARTCHAR 04DB
ENCODING 1243
SWIDTH 600 0
DWIDTH 10 0
BBX 8 13 1 0
BITMAP
66
66
00
00
7C
FE
87
03
FF
FF
C3
7E
3C
ENDCHAR
STARTCHAR 04DC
ENCODING 1244
SWIDTH 600 0
DWIDTH 10 0
BBX 9 15 0 0
BITMAP
3600
3600
0000
CD80
6D80
6F00
7F00
3E00
3F00
7F00
7F00
6D00
6D80
CD80
CD80
ENDCHAR
STARTCHAR 04DD
ENCODING 1245
SWIDTH 600 0
DWIDTH 10 0
BBX 9 13 0 0
BITMAP
3600
3600
0000
0000
CD80
6F00
7F00
3E00
7F00
7F00
6D00
CD80
CD80
ENDCHAR
STARTCHAR 04DE
ENCODING 1246
SWIDTH 600 0
DWIDTH 10 0
BBX 8 15 1 -1
BITMAP
6C
6C
00
FC
FE
86
06
0E
3C
3E
07
03
87
FF
FC
ENDCHAR
STARTCHAR 04DF
ENCODING 1247
SWIDTH 600 0
DWIDTH 10 0
BBX 7 13 1 -1
BITMAP
6C
6C
00
00
FC
FE
06
3E
3C
06
06
FE
FC
ENDCHAR
STARTCHAR 04E0
ENCODING 1248
SWIDTH 600 0
DWIDTH 10 0
BBX 10 12 0 0
BITMAP
7F80
7F80
0780
0F00
1C00
1F00
1F80
01C0
E1C0
E3C0
7F80
3F00
ENDCHAR
STARTCHAR 04E1
ENCODING 1249
SWIDTH 600 0
DWIDTH 10 0
BBX 8 13 1 -4
BITMAP
FE
FE
0E
1C
38
30
7E
0F
07
07
8F
FE
FC
ENDCHAR
STARTCHAR 04E2
ENCODING 1250
SWIDTH 600 0
DWIDTH 10 0
BBX 8 15 1 0
BITMAP
3E
3E
00
C7
C7
CF
CF
CB
DB
DB
D3
F3
F3
E3
E3
ENDCHAR
STARTCHAR 04E3
ENCODING 1251
SWIDTH 600 0
DWIDTH 10 0
BBX 7 13 1 0
BITMAP
7C
7C
00
00
C6
CE
CE
DE
D6
F6
F6
E6
E6
ENDCHAR
STARTCHAR 04E4
ENCODING 1252
SWIDTH 600 0
DWIDTH 10 0
BBX 8 15 1 0
BITMAP
66
66
00
C7
C7
C7
CF
CB
DB
DB
D3
F3
E3
E3
E3
ENDCHAR
STARTCHAR 04E5
ENCODING 1253
SWIDTH 600 0
DWIDTH 10 0
BBX 7 13 1 0
BITMAP
6C
6C
00
00
C6
CE
CE
DE
D6
F6
F6
E6
E6
ENDCHAR
STARTCHAR 04E6
ENCODING 1254
SWIDTH 600 0
DWIDTH 10 0
BBX 9 15 0 -1
BITMAP
3600
3600
0000
3E00
7F00
7300
6380
6380
E180
6180
6380
6380
7380
3F00
3E00
ENDCHAR
STARTCHAR 04E7
ENCODING 1255
SWIDTH 600 0
DWIDTH 10 0
BBX 8 13 1 0
BITMAP
66
66
00
00
3C
7E
E7
C3
C3
C3
E7
7E
3C
ENDCHAR
STARTCHAR 04E8
ENCODING 1256
SWIDTH 600 0
DWIDTH 10 0
BBX 9 12 1 0
BITMAP
3E00
7F00
6700
E300
E300
FF00
FF80
E300
E300
6700
7F00
3E00
ENDCHAR
STARTCHAR 04E9
ENCODING 1257
SWIDTH 600 0
DWIDTH 10 0
BBX 8 9 1 0
BITMAP
3C
7E
E7
C3
FF
FF
E7
7E
3C
ENDCHAR
STARTCHAR 04EA
ENCODING 1258
SWIDTH 600 0
DWIDTH 10 0
BBX 9 15 1 -1
BITMAP
3600
3600
0000
3E00
7F00
6700
E300
E300
FF00
FF80
E300
E300
6700
7F00
3E00
ENDCHAR
STARTCHAR 04EB
ENCODING 1259
SWIDTH 600 0
DWIDTH 10 0
BBX 8 13 1 0
BITMAP
66
66
00
00
3C
7E
C7
C3
FF
FF
C3
7E
3C
ENDCHAR
STARTCHAR 04EC
ENCODING 1260
SWIDTH 600 0
DWIDTH 10 0
BBX 8 15 1 -1
BITMAP
6C
6C
00
FC
FE
8E
07
07
7F
7F
07
07
8E
FE
FC
ENDCHAR
STARTCHAR 04ED
ENCODING 1261
SWIDTH 600 0
DWIDTH 10 0
BBX 7 13 1 0
BITMAP
6C
6C
00
00
F8
FC
0E
7E
7E
06
8E
FC
F8
ENDCHAR
STARTCHAR 04EE
ENCODING 1262
SWIDTH 600 0
DWIDTH 10 0
BBX 9 15 1 0
BITMAP
3E00
3E00
0000
C380
E380
6300
3700
3600
1E00
1E00
0C00
1C00
1800
7800
7000
ENDCHAR
STARTCHAR 04EF
ENCODING 1263
SWIDTH 600 0
DWIDTH 10 0
BBX 9 17 1 -4
BITMAP
3E00
3E00
0000
0000
C380
E380
6300
7700
3600
3600
3E00
1C00
1C00
1C00
1800
F800
F000
ENDCHAR
STARTCHAR 04F0
ENCODING 1264
SWIDTH 600 0
DWIDTH 10 0
BBX 9 15 0 0
BITMAP
3600
3600
0000
E380
6380
7300
3700
3E00
1E00
1E00
0C00
1C00
1800
7800
7000
ENDCHAR
STARTCHAR 04F1
ENCODING 1265
SWIDTH 600 0
DWIDTH 10 0
BBX 9 17 0 -4
BITMAP
3600
3600
0000
0000
E380
6380
6300
7700
3600
3600
1E00
1C00
1C00
1C00
1800
7800
7000
ENDCHAR
STARTCHAR 04F2
ENCODING 1266
SWIDTH 600 0
DWIDTH 10 0
BBX 9 15 1 1
BITMAP
3600
6400
0000
C380
E300
6700
7600
3E00
3E00
1C00
1C00
1800
3800
F000
F000
ENDCHAR
STARTCHAR 04F3
ENCODING 1267
SWIDTH 600 0
DWIDTH 10 0
BBX 9 17 1 -3
BITMAP
1200
3600
2C00
0000
C380
C300
E700
6600
6600
3E00
3C00
3C00
1C00
1800
3800
F000
E000
ENDCHAR
STARTCHAR 04F4
ENCODING 1268
SWIDTH 600 0
DWIDTH 10 0
BBX 8 15 1 0
BITMAP
66
66
C3
C3
C3
C3
C3
E7
FF
7B
03
03
03
03
03
ENDCHAR
STARTCHAR 04F5
ENCODING 1269
SWIDTH 600 0
DWIDTH 10 0
BBX 7 13 1 -1
BITMAP
66
66
00
00
C6
C6
C6
E6
FE
7E
06
06
06
ENDCHAR
STARTCHAR 04F6
ENCODING 1270
SWIDTH 600 0
DWIDTH 10 0
BBX 7 15 2 -2
BITMAP
FE
FE
C0
C0
C0
C0
C0
C0
C0
C0
F0
F0
30
30
30
ENDCHAR
STARTCHAR 04F7
ENCODING 1271
SWIDTH 600 0
DWIDTH 10 0
BBX 6 11 2 -3
BITMAP
FC
FC
C0
C0
C0
C0
C0
F0
F0
30
30
ENDCHAR
STARTCHAR 04F8
ENCODING 1272
SWIDTH 600 0
DWIDTH 10 0
BBX 9 15 0 -1
BITMAP
3300
3300
0000
C180
C180
C180
C180
C180
F180
FD80
CD80
CD80
CD80
FD80
F980
ENDCHAR
STARTCHAR 04F9
ENCODING 1273
SWIDTH 600 0
DWIDTH 10 0
BBX 9 13 0 -1
BITMAP
3600
3600
0000
0000
C180
C180
C180
F180
FD80
CD80
CD80
FD80
F980
ENDCHAR
STARTCHAR 0510
ENCODING 1296
SWIDTH 600 0
DWIDTH 10 0
BBX 8 12 1 0
BITMAP
7E
FE
C0
C0
78
78
E0
C0
C0
E1
7F
3F
ENDCHAR
STARTCHAR 0511
ENCODING 1297
SWIDTH 600 0
DWIDTH 10 0
BBX 7 9 1 -1
BITMAP
7E
FE
C0
78
78
C0
C0
FE
7E
ENDCHAR
STARTCHAR 051A
ENCODING 1306
SWIDTH 600 0
DWIDTH 10 0
BBX 8 14 1 -2
BITMAP
3C
7E
E7
C3
C3
C3
C3
C3
C3
E7
7E
3E
07
02
ENDCHAR
STARTCHAR 051B
ENCODING 1307
SWIDTH 600 0
DWIDTH 10 0
BBX 8 13 1 -4
BITMAP
7B
FF
E7
C3
C3
C7
E7
FF
7B
03
03
03
03
ENDCHAR
STARTCHAR 051C
ENCODING 1308
SWIDTH 600 0
DWIDTH 10 0
BBX 10 12 0 1
BITMAP
C0C0
C0C0
C0C0
CCC0
6CC0
6F80
7F80
7F80
7380
7380
7380
7380
ENDCHAR
STARTCHAR 051D
ENCODING 1309
SWIDTH 600 0
DWIDTH 10 0
BBX 10 9 0 1
BITMAP
C0C0
C0C0
CCC0
6D80
6D80
7F80
7B80
7380
3300
ENDCHAR
STARTCHAR 0606
ENCODING 1542
SWIDTH 600 0
DWIDTH 10 0
BBX 9 15 0 0
BITMAP
0A80
CF80
EC00
6C00
6400
3400
3000
3100
1380
1B80
1B00
1E00
0E00
0E00
0C00
ENDCHAR
STARTCHAR 0607
ENCODING 1543
SWIDTH 600 0
DWIDTH 10 0
BBX 9 15 0 0
BITMAP
0700
C400
C600
6C00
6C00
2700
3000
3300
3380
1B00
1E00
1E00
0E00
0E00
0C00
ENDCHAR
STARTCHAR 0609
ENCODING 1545
SWIDTH 600 0
DWIDTH 10 0
BBX 10 10 0 1
BITMAP
CC00
DC00
1C00
1800
3800
3000
7000
6000
ECC0
CCC0
ENDCHAR
STARTCHAR 060A
ENCODING 1546
SWIDTH 600 0
DWIDTH 10 0
BBX 10 10 0 1
BITMAP
9800
9800
1000
3000
2000
2000
6000
4000
4A40
CA40
ENDCHAR
STARTCHAR 060C
ENCODING 1548
SWIDTH 600 0
DWIDTH 10 0
BBX 3 5 4 0
BITMAP
60
40
C0
C0
C0
ENDCHAR
STARTCHAR 0615
ENCODING 1557
SWIDTH 600 0
DWIDTH 10 0
BBX 4 5 3 10
BITMAP
40
40
70
50
E0
ENDCHAR
STARTCHAR 061B
ENCODING 1563
SWIDTH 600 0
DWIDTH 10 0
BBX 3 11 3 0
BITMAP
60
40
C0
C0
C0
00
00
00
C0
C0
C0
ENDCHAR
STARTCHAR 061F
ENCODING 1567
SWIDTH 600 0
DWIDTH 10 0
BBX 7 12 1 0
BITMAP
7C
FE
C2
C0
60
70
38
18
18
00
18
18
ENDCHAR
STARTCHAR 0621
ENCODING 1569
SWIDTH 600 0
DWIDTH 10 0
BBX 5 8 3 0
BITMAP
78
F8
C0
C0
F8
38
F0
C0
ENDCHAR
STARTCHAR 0622
ENCODING 1570
SWIDTH 600 0
DWIDTH 10 0
BBX 6 16 2 1
BITMAP
C4
FC
00
30
30
30
30
30
30
30
30
30
30
30
30
30
ENDCHAR
STARTCHAR 0623
ENCODING 1571
SWIDTH 600 0
DWIDTH 10 0
BBX 3 17 4 0
BITMAP
E0
80
E0
80
C0
C0
C0
C0
C0
C0
C0
C0
C0
C0
C0
C0
C0
ENDCHAR
STARTCHAR 0624
ENCODING 1572
SWIDTH 600 0
DWIDTH 10 0
BBX 9 15 1 -4
BITMAP
1C00
1000
1800
1C00
1000
0000
1E00
3F00
3300
3F80
1F00
0700
0F00
FE00
F800
ENDCHAR
STARTCHAR 0625
ENCODING 1573
SWIDTH 600 0
DWIDTH 10 0
BBX 3 18 4 -6
BITMAP
C0
C0
C0
C0
C0
C0
C0
C0
C0
C0
C0
C0
C0
00
E0
80
E0
C0
ENDCHAR
STARTCHAR 0626
ENCODING 1574
SWIDTH 600 0
DWIDTH 10 0
BBX 10 13 0 -3
BITMAP
3000
4000
7000
7780
0FC0
0CC0
0F00
C7C0
C0C0
C1C0
C3C0
7F80
3E00
ENDCHAR
STARTCHAR 0627
ENCODING 1575
SWIDTH 600 0
DWIDTH 10 0
BBX 2 13 4 0
BITMAP
C0
C0
C0
C0
C0
C0
C0
C0
C0
C0
C0
C0
C0
ENDCHAR
STARTCHAR 0628
ENCODING 1576
SWIDTH 600 0
DWIDTH 10 0
BBX 10 8 0 -3
BITMAP
C0C0
C0C0
C1C0
FF80
7F00
0000
0C00
0C00
ENDCHAR
STARTCHAR 0629
ENCODING 1577
SWIDTH 600 0
DWIDTH 10 0
BBX 7 10 2 -1
BITMAP
D8
D8
00
70
FC
CE
C6
CE
FE
78
ENDCHAR
STARTCHAR 062A
ENCODING 1578
SWIDTH 600 0
DWIDTH 10 0
BBX 10 7 0 0
BITMAP
3600
3600
0000
C0C0
C1C0
FF80
7F00
ENDCHAR
STARTCHAR 062B
ENCODING 1579
SWIDTH 600 0
DWIDTH 10 0
BBX 10 10 0 0
BITMAP
0C00
0C00
0000
3600
3600
0000
C0C0
C1C0
FF80
7F00
ENDCHAR
STARTCHAR 062C
ENCODING 1580
SWIDTH 600 0
DWIDTH 10 0
BBX 9 11 1 -4
BITMAP
FF00
FF00
3800
7000
6000
E600
E600
E000
6000
7F80
1F00
ENDCHAR
STARTCHAR 062D
ENCODING 1581
SWIDTH 600 0
DWIDTH 10 0
BBX 9 11 1 -4
BITMAP
FF00
FF00
3800
7000
6000
C000
C000
E000
6000
7F80
1F00
ENDCHAR
STARTCHAR 062E
ENCODING 1582
SWIDTH 600 0
DWIDTH 10 0
BBX 9 14 1 -5
BITMAP
1800
1800
0000
FF00
FF00
3800
7000
6000
C000
C000
E000
6000
7F80
1F00
ENDCHAR
STARTCHAR 062F
ENCODING 1583
SWIDTH 600 0
DWIDTH 10 0
BBX 7 8 2 -1
BITMAP
18
1C
0E
06
06
0E
FC
F8
ENDCHAR
STARTCHAR 0630
ENCODING 1584
SWIDTH 600 0
DWIDTH 10 0
BBX 7 11 2 -1
BITMAP
30
30
00
38
1C
0E
06
06
0E
FC
F8
ENDCHAR
STARTCHAR 0631
ENCODING 1585
SWIDTH 600 0
DWIDTH 10 0
BBX 10 9 -1 -4
BITMAP
00C0
00C0
00C0
00C0
00C0
0180
0780
FE00
F800
ENDCHAR
STARTCHAR 0632
ENCODING 1586
SWIDTH 600 0
DWIDTH 10 0
BBX 9 12 0 -4
BITMAP
0180
0180
0000
0000
0180
0180
0180
0180
0380
0F00
FE00
F000
ENDCHAR
STARTCHAR 0633
ENCODING 1587
SWIDTH 600 0
DWIDTH 10 0
BBX 12 10 -2 -3
BITMAP
0030
0DB0
0DB0
CDB0
CFF0
CF60
CC00
CC00
F800
7800
ENDCHAR
STARTCHAR 0634
ENCODING 1588
SWIDTH 600 0
DWIDTH 10 0
BBX 12 15 -2 -4
BITMAP
0600
0600
0000
0D80
0D80
0030
09B0
0DB0
CDB0
CFF0
CF60
CC00
C800
F800
7000
ENDCHAR
STARTCHAR 0635
ENCODING 1589
SWIDTH 600 0
DWIDTH 10 0
BBX 12 9 -2 -3
BITMAP
01E0
0FF0
CF30
CFF0
CFE0
CC00
D800
F800
7000
ENDCHAR
STARTCHAR 0636
ENCODING 1590
SWIDTH 600 0
DWIDTH 10 0
BBX 12 12 -2 -4
BITMAP
0C00
0C00
0000
01E0
0FF0
CF30
CFF0
CFE0
CC00
D800
F800
7000
ENDCHAR
STARTCHAR 0637
ENCODING 1591
SWIDTH 600 0
DWIDTH 10 0
BBX 10 13 0 0
BITMAP
3000
3000
3000
3000
3000
3000
3000
3000
3780
3FC0
3CC0
FFC0
FF00
ENDCHAR
STARTCHAR 0638
ENCODING 1592
SWIDTH 600 0
DWIDTH 10 0
BBX 10 13 0 0
BITMAP
3000
3000
3000
3000
3600
3600
3000
3000
3780
3FC0
38C0
FFC0
FF00
ENDCHAR
STARTCHAR 0639
ENCODING 1593
SWIDTH 600 0
DWIDTH 10 0
BBX 9 13 1 -3
BITMAP
3800
7800
E000
C200
FE00
7800
E000
C000
C000
C000
E080
7F80
3F00
ENDCHAR
STARTCHAR 063A
ENCODING 1594
SWIDTH 600 0
DWIDTH 10 0
BBX 9 16 1 -4
BITMAP
3000
3000
0000
3C00
7C00
E000
C200
FE00
7800
E000
C000
C000
C000
E080
7F80
3F00
ENDCHAR
STARTCHAR 0640
ENCODING 1600
SWIDTH 600 0
DWIDTH 10 0
BBX 11 2 0 0
BITMAP
FFE0
FFE0
ENDCHAR
STARTCHAR 0641
ENCODING 1601
SWIDTH 600 0
DWIDTH 10 0
BBX 11 11 -1 -1
BITMAP
0180
0180
0000
03C0
07E0
0660
C7E0
C3E0
E0E0
7FC0
3F00
ENDCHAR
STARTCHAR 0642
ENCODING 1602
SWIDTH 600 0
DWIDTH 10 0
BBX 10 16 0 -5
BITMAP
0D80
0D80
0000
0000
0F80
1F80
1DC0
1DC0
1FC0
CFC0
C0C0
C1C0
C180
E380
7F00
3E00
ENDCHAR
STARTCHAR 0643
ENCODING 1603
SWIDTH 600 0
DWIDTH 10 0
BBX 10 13 0 0
BITMAP
00C0
00C0
00C0
38C0
20C0
38C0
08C0
38C0
00C0
C0C0
E3C0
FF80
3E00
ENDCHAR
STARTCHAR 0644
ENCODING 1604
SWIDTH 600 0
DWIDTH 10 0
BBX 9 16 0 -3
BITMAP
0180
0180
0180
0180
0180
0180
0180
0180
0180
0180
E180
C180
C180
E380
7F00
3E00
ENDCHAR
STARTCHAR 0645
ENCODING 1605
SWIDTH 600 0
DWIDTH 10 0
BBX 8 10 1 -4
BITMAP
1E
3F
33
73
FF
CE
C0
C0
C0
C0
ENDCHAR
STARTCHAR 0646
ENCODING 1606
SWIDTH 600 0
DWIDTH 10 0
BBX 9 11 0 -3
BITMAP
1800
1800
0180
0180
E180
C180
C180
C180
E380
7F00
3E00
ENDCHAR
STARTCHAR 0647
ENCODING 1607
SWIDTH 600 0
DWIDTH 10 0
BBX 7 7 2 -1
BITMAP
70
FC
CE
C6
CE
FE
78
ENDCHAR
STARTCHAR 0648
ENCODING 1608
SWIDTH 600 0
DWIDTH 10 0
BBX 9 9 1 -3
BITMAP
1E00
3F00
3300
3F80
1F00
0300
0F00
FE00
F800
ENDCHAR
STARTCHAR 0649
ENCODING 1609
SWIDTH 600 0
DWIDTH 10 0
BBX 10 10 0 -3
BITMAP
0780
0FC0
0CC0
0F00
E7C0
C0C0
C1C0
E3C0
7F80
3E00
ENDCHAR
STARTCHAR 064A
ENCODING 1610
SWIDTH 600 0
DWIDTH 10 0
BBX 10 12 0 -5
BITMAP
0780
0FC0
0CC0
0F00
E7C0
C0C0
C1C0
E3C0
7F80
3E00
3600
3600
ENDCHAR
STARTCHAR 064B
ENCODING 1611
SWIDTH 600 0
DWIDTH 10 0
BBX 5 4 3 10
BITMAP
38
F0
18
F0
ENDCHAR
STARTCHAR 064C
ENCODING 1612
SWIDTH 600 0
DWIDTH 10 0
BBX 6 6 2 9
BITMAP
38
28
9C
98
D0
70
ENDCHAR
STARTCHAR 064D
ENCODING 1613
SWIDTH 600 0
DWIDTH 10 0
BBX 5 5 3 -5
BITMAP
18
F8
88
F8
80
ENDCHAR
STARTCHAR 064E
ENCODING 1614
SWIDTH 600 0
DWIDTH 10 0
BBX 6 3 2 10
BITMAP
1C
F8
80
ENDCHAR
STARTCHAR 064F
ENCODING 1615
SWIDTH 600 0
DWIDTH 10 0
BBX 5 5 2 11
BITMAP
38
28
18
70
C0
ENDCHAR
STARTCHAR 0650
ENCODING 1616
SWIDTH 600 0
DWIDTH 10 0
BBX 6 3 2 -3
BITMAP
0C
F8
C0
ENDCHAR
STARTCHAR 0651
ENCODING 1617
SWIDTH 600 0
DWIDTH 10 0
BBX 5 5 2 10
BITMAP
08
A8
A8
B8
C0
ENDCHAR
STARTCHAR 0652
ENCODING 1618
SWIDTH 600 0
DWIDTH 10 0
BBX 4 5 3 9
BITMAP
60
F0
90
F0
F0
ENDCHAR
STARTCHAR 0653
ENCODING 1619
SWIDTH 600 0
DWIDTH 10 0
BBX 6 2 2 10
BITMAP
E4
BC
ENDCHAR
STARTCHAR 0654
ENCODING 1620
SWIDTH 600 0
DWIDTH 10 0
BBX 3 4 4 9
BITMAP
E0
80
E0
C0
ENDCHAR
STARTCHAR 0655
ENCODING 1621
SWIDTH 600 0
DWIDTH 10 0
BBX 3 4 4 -5
BITMAP
E0
80
E0
C0
ENDCHAR
STARTCHAR 065A
ENCODING 1626
SWIDTH 600 0
DWIDTH 10 0
BBX 4 3 3 10
BITMAP
F0
F0
60
ENDCHAR
STARTCHAR 0660
ENCODING 1632
SWIDTH 600 0
DWIDTH 10 0
BBX 3 3 4 4
BITMAP
E0
E0
E0
ENDCHAR
STARTCHAR 0661
ENCODING 1633
SWIDTH 600 0
DWIDTH 10 0
BBX 4 11 3 1
BITMAP
E0
60
60
70
70
30
30
30
30
30
30
ENDCHAR
STARTCHAR 0662
ENCODING 1634
SWIDTH 600 0
DWIDTH 10 0
BBX 8 11 1 0
BITMAP
E3
67
7E
7C
70
30
30
30
30
30
30
ENDCHAR
STARTCHAR 0663
ENCODING 1635
SWIDTH 600 0
DWIDTH 10 0
BBX 9 11 1 0
BITMAP
CD80
ED80
7F80
7F00
7000
7000
7000
3000
3000
3000
3000
ENDCHAR
STARTCHAR 0664
ENCODING 1636
SWIDTH 600 0
DWIDTH 10 0
BBX 6 11 2 1
BITMAP
1C
7C
60
60
78
78
E0
C0
C0
FC
7C
ENDCHAR
STARTCHAR 0665
ENCODING 1637
SWIDTH 600 0
DWIDTH 10 0
BBX 8 11 1 0
BITMAP
3C
7E
66
E7
C3
C3
C3
C3
E7
7E
3C
ENDCHAR
STARTCHAR 0666
ENCODING 1638
SWIDTH 600 0
DWIDTH 10 0
BBX 9 11 0 1
BITMAP
FF00
FF00
0300
0300
0300
0300
0300
0380
0380
0180
0180
ENDCHAR
STARTCHAR 0667
ENCODING 1639
SWIDTH 600 0
DWIDTH 10 0
BBX 8 11 1 0
BITMAP
E7
E7
66
7E
3C
3C
3C
3C
18
18
18
ENDCHAR
STARTCHAR 0668
ENCODING 1640
SWIDTH 600 0
DWIDTH 10 0
BBX 8 11 1 1
BITMAP
18
18
38
3C
3C
3C
7E
76
66
E7
C3
ENDCHAR
STARTCHAR 0669
ENCODING 1641
SWIDTH 600 0
DWIDTH 10 0
BBX 8 11 1 0
BITMAP
7C
FC
CE
E6
FE
3E
06
07
07
07
03
ENDCHAR
STARTCHAR 066A
ENCODING 1642
SWIDTH 600 0
DWIDTH 10 0
BBX 8 10 1 1
BITMAP
C7
C6
0C
0C
18
38
30
70
63
E3
ENDCHAR
STARTCHAR 066B
ENCODING 1643
SWIDTH 600 0
DWIDTH 10 0
BBX 6 7 2 -2
BITMAP
0C
0C
0C
1C
38
F0
C0
ENDCHAR
STARTCHAR 066C
ENCODING 1644
SWIDTH 600 0
DWIDTH 10 0
BBX 3 5 3 8
BITMAP
60
60
60
60
C0
ENDCHAR
STARTCHAR 066D
ENCODING 1645
SWIDTH 600 0
DWIDTH 10 0
BBX 6 6 2 2
BITMAP
10
30
FC
78
78
48
ENDCHAR
STARTCHAR 066E
ENCODING 1646
SWIDTH 600 0
DWIDTH 10 0
BBX 10 5 0 0
BITMAP
C0C0
C0C0
C1C0
FF80
7F00
ENDCHAR
STARTCHAR 066F
ENCODING 1647
SWIDTH 600 0
DWIDTH 10 0
BBX 10 12 0 -4
BITMAP
0F80
1F80
1DC0
1DC0
1FC0
CFC0
C0C0
C1C0
C180
E380
7F00
3E00
ENDCHAR
STARTCHAR 0674
ENCODING 1652
SWIDTH 600 0
DWIDTH 10 0
BBX 3 4 4 10
BITMAP
E0
80
E0
C0
ENDCHAR
STARTCHAR 0679
ENCODING 1657
SWIDTH 600 0
DWIDTH 10 0
BBX 10 10 0 0
BITMAP
0800
0800
0E00
0A00
1C00
0000
C0C0
C1C0
FFC0
7F00
ENDCHAR
STARTCHAR 067A
ENCODING 1658
SWIDTH 600 0
DWIDTH 10 0
BBX 10 9 0 0
BITMAP
0C00
0C00
0000
0C00
0C00
C0C0
C1C0
FFC0
7F00
ENDCHAR
STARTCHAR 067B
ENCODING 1659
SWIDTH 600 0
DWIDTH 10 0
BBX 10 11 0 -6
BITMAP
C0C0
C0C0
C1C0
FF80
7F00
0000
0C00
0C00
0000
0C00
0C00
ENDCHAR
STARTCHAR 067C
ENCODING 1660
SWIDTH 600 0
DWIDTH 10 0
BBX 10 11 0 -5
BITMAP
3600
3600
0000
C0C0
C1C0
FF80
7F00
0000
1C00
1400
1C00
ENDCHAR
STARTCHAR 067D
ENCODING 1661
SWIDTH 600 0
DWIDTH 10 0
BBX 10 10 0 0
BITMAP
3600
3600
0000
0C00
0C00
00C0
C0C0
C1C0
FF80
7F00
ENDCHAR
STARTCHAR 067E
ENCODING 1662
SWIDTH 600 0
DWIDTH 10 0
BBX 10 11 0 -6
BITMAP
C0C0
C0C0
C1C0
FF80
7F00
0000
3600
3600
0000
0C00
0C00
ENDCHAR
STARTCHAR 067F
ENCODING 1663
SWIDTH 600 0
DWIDTH 10 0
BBX 10 10 0 0
BITMAP
3600
3600
0000
3600
3600
0000
C0C0
C1C0
FF80
7F00
ENDCHAR
STARTCHAR 0680
ENCODING 1664
SWIDTH 600 0
DWIDTH 10 0
BBX 10 11 0 -6
BITMAP
C0C0
C0C0
C1C0
FF80
7F00
0000
3600
3600
0000
3600
3600
ENDCHAR
STARTCHAR 0681
ENCODING 1665
SWIDTH 600 0
DWIDTH 10 0
BBX 9 16 1 -4
BITMAP
3800
2000
3800
3800
0000
FF00
FF00
3800
7000
E000
C000
C000
C000
6000
7F80
1F00
ENDCHAR
STARTCHAR 0682
ENCODING 1666
SWIDTH 600 0
DWIDTH 10 0
BBX 9 17 1 -5
BITMAP
1800
1800
0000
1800
1800
0000
FF00
FF00
3800
7000
6000
E000
C000
E000
6000
7F80
1F00
ENDCHAR
STARTCHAR 0683
ENCODING 1667
SWIDTH 600 0
DWIDTH 10 0
BBX 9 11 1 -4
BITMAP
FF00
FF00
3800
7000
6000
CD80
CD80
E000
6000
7F80
1F80
ENDCHAR
STARTCHAR 0684
ENCODING 1668
SWIDTH 600 0
DWIDTH 10 0
BBX 9 11 1 -4
BITMAP
FF00
FF00
3800
6600
E600
C000
C600
C600
6000
7F80
1F00
ENDCHAR
STARTCHAR 0685
ENCODING 1669
SWIDTH 600 0
DWIDTH 10 0
BBX 9 18 1 -5
BITMAP
1800
1800
0000
6C00
6C00
0000
0000
FF00
FF00
3800
7000
E000
C000
C000
C000
6000
7F80
1F00
ENDCHAR
STARTCHAR 0686
ENCODING 1670
SWIDTH 600 0
DWIDTH 10 0
BBX 9 11 1 -4
BITMAP
FF00
FF00
3800
7D80
ED80
C000
C300
C300
6000
7F80
1F00
ENDCHAR
STARTCHAR 0687
ENCODING 1671
SWIDTH 600 0
DWIDTH 10 0
BBX 9 11 1 -4
BITMAP
FF00
FF00
3800
7D80
ED80
C000
CD80
CD80
6000
7F80
1F00
ENDCHAR
STARTCHAR 0691
ENCODING 1681
SWIDTH 600 0
DWIDTH 10 0
BBX 10 15 -1 -4
BITMAP
0100
0100
0100
01C0
03C0
0000
0180
00C0
00C0
00C0
01C0
0380
0F00
FE00
F000
ENDCHAR
STARTCHAR 0692
ENCODING 1682
SWIDTH 600 0
DWIDTH 10 0
BBX 11 13 -1 -4
BITMAP
0360
01C0
01C0
0000
00C0
00C0
00C0
00C0
00C0
0380
0F80
FE00
F800
ENDCHAR
STARTCHAR 0698
ENCODING 1688
SWIDTH 600 0
DWIDTH 10 0
BBX 11 15 -1 -4
BITMAP
00C0
00C0
0000
0360
0360
0000
0000
00C0
00C0
00C0
00C0
01C0
0780
FF00
F800
ENDCHAR
STARTCHAR 06A1
ENCODING 1697
SWIDTH 600 0
DWIDTH 10 0
BBX 11 8 -1 -1
BITMAP
03C0
07E0
0660
C7E0
C3E0
E0E0
7FC0
3F00
ENDCHAR
STARTCHAR 06A4
ENCODING 1700
SWIDTH 600 0
DWIDTH 10 0
BBX 11 14 -1 -1
BITMAP
0180
0180
0000
06C0
06C0
0000
03C0
07E0
0660
C7E0
C3E0
E1E0
7FC0
3F00
ENDCHAR
STARTCHAR 06A9
ENCODING 1705
SWIDTH 600 0
DWIDTH 10 0
BBX 11 14 0 0
BITMAP
0020
0060
01E0
03C0
0700
0600
0700
0380
01C0
C0C0
C1C0
E1C0
7F80
3F00
ENDCHAR
STARTCHAR 06AF
ENCODING 1711
SWIDTH 600 0
DWIDTH 10 0
BBX 11 17 0 0
BITMAP
0020
00E0
01C0
03A0
0660
05E0
0380
0700
0600
0700
0380
0180
C1C0
C1C0
E380
7F80
3E00
ENDCHAR
STARTCHAR 06B5
ENCODING 1717
SWIDTH 600 0
DWIDTH 10 0
BBX 10 19 0 -3
BITMAP
0340
03C0
0180
0000
0180
0180
0180
0180
0180
0180
0180
0180
0180
E180
C180
C180
E380
7F00
3E00
ENDCHAR
STARTCHAR 06BA
ENCODING 1722
SWIDTH 600 0
DWIDTH 10 0
BBX 9 8 0 -2
BITMAP
0180
E180
E180
C180
C180
E380
7F00
3E00
ENDCHAR
STARTCHAR 06BE
ENCODING 1726
SWIDTH 600 0
DWIDTH 10 0
BBX 11 9 -1 0
BITMAP
0C00
0F00
1F80
1BC0
1BC0
DF60
FE60
7FE0
03C0
ENDCHAR
STARTCHAR 06C6
ENCODING 1734
SWIDTH 600 0
DWIDTH 10 0
BBX 9 13 1 -4
BITMAP
1A00
0E00
0C00
0000
1E00
3F00
3300
3F80
1F00
0300
0F00
FE00
F800
ENDCHAR
STARTCHAR 06CC
ENCODING 1740
SWIDTH 600 0
DWIDTH 10 0
BBX 10 10 0 -3
BITMAP
0780
0FC0
0CC0
0F00
E7C0
C0C0
C1C0
E3C0
7F80
3E00
ENDCHAR
STARTCHAR 06CE
ENCODING 1742
SWIDTH 600 0
DWIDTH 10 0
BBX 10 12 0 -3
BITMAP
5000
7000
2780
0FC0
0CC0
0F00
E7C0
C0C0
C1C0
E3C0
7F80
3E00
ENDCHAR
STARTCHAR 06D5
ENCODING 1749
SWIDTH 600 0
DWIDTH 10 0
BBX 7 7 2 -1
BITMAP
70
FC
CE
C6
CE
FE
78
ENDCHAR
STARTCHAR 06F0
ENCODING 1776
SWIDTH 600 0
DWIDTH 10 0
BBX 3 3 4 4
BITMAP
E0
E0
E0
ENDCHAR
STARTCHAR 06F1
ENCODING 1777
SWIDTH 600 0
DWIDTH 10 0
BBX 4 11 3 1
BITMAP
E0
60
60
70
70
30
30
30
30
30
30
ENDCHAR
STARTCHAR 06F2
ENCODING 1778
SWIDTH 600 0
DWIDTH 10 0
BBX 8 11 1 0
BITMAP
E3
67
7E
7C
70
30
30
30
30
30
30
ENDCHAR
STARTCHAR 06F3
ENCODING 1779
SWIDTH 600 0
DWIDTH 10 0
BBX 9 11 1 0
BITMAP
CD80
ED80
7F80
7F00
7000
7000
7000
3000
3000
3000
3000
ENDCHAR
STARTCHAR 06F4
ENCODING 1780
SWIDTH 600 0
DWIDTH 10 0
BBX 9 12 1 0
BITMAP
0700
EF00
6C00
7C00
7F80
7F80
7000
3000
3000
3000
3000
3000
ENDCHAR
STARTCHAR 06F5
ENCODING 1781
SWIDTH 600 0
DWIDTH 10 0
BBX 8 11 1 0
BITMAP
3C
7E
66
E7
C3
C3
C3
C3
DB
FF
7E
ENDCHAR
STARTCHAR 06F6
ENCODING 1782
SWIDTH 600 0
DWIDTH 10 0
BBX 7 11 2 0
BITMAP
3C
7C
60
60
7E
3E
38
70
E0
C0
C0
ENDCHAR
STARTCHAR 06F7
ENCODING 1783
SWIDTH 600 0
DWIDTH 10 0
BBX 8 11 1 0
BITMAP
E7
E7
66
7E
3C
3C
3C
3C
18
18
18
ENDCHAR
STARTCHAR 06F8
ENCODING 1784
SWIDTH 600 0
DWIDTH 10 0
BBX 8 11 1 1
BITMAP
18
18
38
3C
3C
3C
7E
76
66
E7
C3
ENDCHAR
STARTCHAR 06F9
ENCODING 1785
SWIDTH 600 0
DWIDTH 10 0
BBX 8 11 1 0
BITMAP
7C
FC
CE
E6
FE
3E
06
07
07
07
03
ENDCHAR
STARTCHAR 0E81
ENCODING 3713
SWIDTH 600 0
DWIDTH 10 0
BBX 9 9 0 0
BITMAP
FF00
FF80
F180
3180
3180
3180
F180
F180
F180
ENDCHAR
STARTCHAR 0E82
ENCODING 3714
SWIDTH 600 0
DWIDTH 10 0
BBX 9 10 1 -1
BITMAP
3C00
FF00
A300
E300
0F00
7E00
F800
E000
FF00
7F80
ENDCHAR
STARTCHAR 0E84
ENCODING 3716
SWIDTH 600 0
DWIDTH 10 0
BBX 8 10 1 -1
BITMAP
3C
7F
E7
E3
F3
F3
C3
FB
FB
7B
ENDCHAR
STARTCHAR 0E87
ENCODING 3719
SWIDTH 600 0
DWIDTH 10 0
BBX 8 13 1 -4
BITMAP
FC
BE
E7
03
03
03
03
03
03
C3
E7
7F
3E
ENDCHAR
STARTCHAR 0E88
ENCODING 3720
SWIDTH 600 0
DWIDTH 10 0
BBX 8 10 1 0
BITMAP
3C
FF
E7
C3
3F
27
3B
03
03
03
ENDCHAR
STARTCHAR 0E8A
ENCODING 3722
SWIDTH 600 0
DWIDTH 10 0
BBX 9 14 1 -4
BITMAP
3C00
7F00
E300
A300
E700
3E00
7000
C200
FF00
7F00
0300
0300
0180
0100
ENDCHAR
STARTCHAR 0E8D
ENCODING 3725
SWIDTH 600 0
DWIDTH 10 0
BBX 8 9 1 0
BITMAP
73
FB
FB
C3
F3
F3
C3
FF
3E
ENDCHAR
STARTCHAR 0E94
ENCODING 3732
SWIDTH 600 0
DWIDTH 10 0
BBX 8 9 1 0
BITMAP
7E
FF
E7
C3
C3
C3
E3
F3
F3
ENDCHAR
STARTCHAR 0E95
ENCODING 3733
SWIDTH 600 0
DWIDTH 10 0
BBX 9 10 1 -1
BITMAP
6700
F780
DD80
D980
C180
C180
C180
E180
A180
E180
ENDCHAR
STARTCHAR 0E96
ENCODING 3734
SWIDTH 600 0
DWIDTH 10 0
BBX 9 13 0 -4
BITMAP
6F00
FF80
7180
3180
3180
3180
3980
2980
3980
0180
0180
0180
0180
ENDCHAR
STARTCHAR 0E97
ENCODING 3735
SWIDTH 600 0
DWIDTH 10 0
BBX 9 10 1 -1
BITMAP
E000
AF00
EF80
6D80
CD80
CD80
CD80
CD80
FD80
7980
ENDCHAR
STARTCHAR 0E99
ENCODING 3737
SWIDTH 600 0
DWIDTH 10 0
BBX 8 9 1 1
BITMAP
E3
B3
F3
73
73
73
73
FF
FE
ENDCHAR
STARTCHAR 0E9A
ENCODING 3738
SWIDTH 600 0
DWIDTH 10 0
BBX 8 9 1 0
BITMAP
F3
F3
F3
63
E3
C3
C7
FF
7C
ENDCHAR
STARTCHAR 0E9B
ENCODING 3739
SWIDTH 600 0
DWIDTH 10 0
BBX 8 13 1 -1
BITMAP
03
03
03
03
F3
F3
F3
63
E3
C3
C7
FF
7C
ENDCHAR
STARTCHAR 0E9C
ENCODING 3740
SWIDTH 600 0
DWIDTH 10 0
BBX 10 11 1 -1
BITMAP
00C0
00C0
E7C0
A5C0
E700
C300
DB00
DB00
DB00
FB00
7E00
ENDCHAR
STARTCHAR 0E9D
ENCODING 3741
SWIDTH 600 0
DWIDTH 10 0
BBX 8 12 1 1
BITMAP
03
03
03
E3
A3
E3
C3
DB
DB
DB
FB
7E
ENDCHAR
STARTCHAR 0E9E
ENCODING 3742
SWIDTH 600 0
DWIDTH 10 0
BBX 9 9 1 0
BITMAP
F180
F180
F180
6180
ED80
CD80
CD80
FF80
7F00
ENDCHAR
STARTCHAR 0E9F
ENCODING 3743
SWIDTH 600 0
DWIDTH 10 0
BBX 9 13 1 -1
BITMAP
0180
0180
0180
0180
F180
F180
F180
6180
ED80
CD80
CD80
FF80
7F00
ENDCHAR
STARTCHAR 0EA1
ENCODING 3745
SWIDTH 600 0
DWIDTH 10 0
BBX 9 9 0 1
BITMAP
3180
3180
3180
3180
3180
3180
3980
FF80
FF00
ENDCHAR
STARTCHAR 0EA2
ENCODING 3746
SWIDTH 600 0
DWIDTH 10 0
BBX 8 13 1 -1
BITMAP
03
03
03
03
73
FB
FB
C3
F3
F3
C3
FF
3E
ENDCHAR
STARTCHAR 0EA3
ENCODING 3747
SWIDTH 600 0
DWIDTH 10 0
BBX 8 10 1 -1
BITMAP
3C
FE
C7
E0
7C
1E
E3
A3
FF
7E
ENDCHAR
STARTCHAR 0EA5
ENCODING 3749
SWIDTH 600 0
DWIDTH 10 0
BBX 8 10 1 -1
BITMAP
7C
FF
E3
C3
03
73
FB
FB
AF
EF
ENDCHAR
STARTCHAR 0EA7
ENCODING 3751
SWIDTH 600 0
DWIDTH 10 0
BBX 8 9 1 -1
BITMAP
3E
FF
C3
03
03
E3
A3
FF
7E
ENDCHAR
STARTCHAR 0EAA
ENCODING 3754
SWIDTH 600 0
DWIDTH 10 0
BBX 10 11 1 0
BITMAP
00C0
7EC0
FFC0
C3C0
FF80
3F00
7300
FB00
FB00
AF00
EF00
ENDCHAR
STARTCHAR 0EAB
ENCODING 3755
SWIDTH 600 0
DWIDTH 10 0
BBX 9 10 0 -1
BITMAP
FD00
B780
FF80
6780
C780
C780
C780
C780
C780
7D80
ENDCHAR
STARTCHAR 0EAD
ENCODING 3757
SWIDTH 600 0
DWIDTH 10 0
BBX 8 10 1 -1
BITMAP
3C
FF
C3
C3
FF
7F
E3
A3
FF
7E
ENDCHAR
STARTCHAR 0EAE
ENCODING 3758
SWIDTH 600 0
DWIDTH 10 0
BBX 9 10 1 0
BITMAP
7980
FF80
E700
F000
7E00
1F80
E380
A380
FF80
7E00
ENDCHAR
STARTCHAR 0EAF
ENCODING 3759
SWIDTH 600 0
DWIDTH 10 0
BBX 10 11 0 -2
BITMAP
7800
FBC0
D7C0
CEC0
FD80
7B80
0700
0E00
1C00
3800
3000
ENDCHAR
STARTCHAR 0EB0
ENCODING 3760
SWIDTH 600 0
DWIDTH 10 0
BBX 9 10 1 0
BITMAP
6100
F380
F180
FF80
7F00
6100
F380
F180
FF80
7F00
ENDCHAR
STARTCHAR 0EB1
ENCODING 3761
SWIDTH 600 0
DWIDTH 10 0
BBX 9 5 1 10
BITMAP
6100
F380
F180
FF80
3E00
ENDCHAR
STARTCHAR 0EB2
ENCODING 3762
SWIDTH 600 0
DWIDTH 10 0
BBX 8 10 1 0
BITMAP
3C
FF
F7
F3
F3
63
03
03
03
03
ENDCHAR
STARTCHAR 0EB3
ENCODING 3763
SWIDTH 600 0
DWIDTH 10 0
BBX 16 14 -7 1
BITMAP
F000
F000
F000
0000
003C
007F
00F7
00F3
00F3
0063
0003
0003
0003
0003
ENDCHAR
STARTCHAR 0EB4
ENCODING 3764
SWIDTH 600 0
DWIDTH 10 0
BBX 10 5 0 11
BITMAP
3F00
FFC0
C0C0
C0C0
7380
ENDCHAR
STARTCHAR 0EB5
ENCODING 3765
SWIDTH 600 0
DWIDTH 10 0
BBX 11 5 -1 11
BITMAP
3F00
FF80
C0C0
C0C0
73E0
ENDCHAR
STARTCHAR 0EB6
ENCODING 3766
SWIDTH 600 0
DWIDTH 10 0
BBX 10 5 0 11
BITMAP
3F00
FFC0
CCC0
CCC0
7380
ENDCHAR
STARTCHAR 0EB7
ENCODING 3767
SWIDTH 600 0
DWIDTH 10 0
BBX 11 5 0 11
BITMAP
3F00
FF80
CCC0
CCC0
73E0
ENDCHAR
STARTCHAR 0EB8
ENCODING 3768
SWIDTH 600 0
DWIDTH 10 0
BBX 4 5 3 -6
BITMAP
E0
B0
F0
30
60
ENDCHAR
STARTCHAR 0EB9
ENCODING 3769
SWIDTH 600 0
DWIDTH 10 0
BBX 5 5 2 -5
BITMAP
C0
C8
88
88
F8
ENDCHAR
STARTCHAR 0EBB
ENCODING 3771
SWIDTH 600 0
DWIDTH 10 0
BBX 10 5 0 10
BITMAP
3F00
FFC0
F8C0
F9C0
7080
ENDCHAR
STARTCHAR 0EBC
ENCODING 3772
SWIDTH 600 0
DWIDTH 10 0
BBX 10 4 0 -5
BITMAP
7800
FCC0
F7C0
F100
ENDCHAR
STARTCHAR 0EC8
ENCODING 3784
SWIDTH 600 0
DWIDTH 10 0
BBX 2 3 4 11
BITMAP
C0
C0
C0
ENDCHAR
STARTCHAR 0EC9
ENCODING 3785
SWIDTH 600 0
DWIDTH 10 0
BBX 10 6 0 10
BITMAP
4000
E0C0
E0C0
63C0
FF80
FE00
ENDCHAR
STARTCHAR 0ECA
ENCODING 3786
SWIDTH 600 0
DWIDTH 10 0
BBX 12 6 0 10
BITMAP
7380
FEC0
C0C0
D9F0
FBF0
7800
ENDCHAR
STARTCHAR 0ECB
ENCODING 3787
SWIDTH 600 0
DWIDTH 10 0
BBX 6 5 2 11
BITMAP
30
30
FC
30
30
ENDCHAR
STARTCHAR 0ECC
ENCODING 3788
SWIDTH 600 0
DWIDTH 10 0
BBX 10 4 0 10
BITMAP
7800
FCC0
F7C0
F100
ENDCHAR
STARTCHAR 0ECD
ENCODING 3789
SWIDTH 600 0
DWIDTH 10 0
BBX 4 3 3 11
BITMAP
F0
F0
F0
ENDCHAR
STARTCHAR 10D0
ENCODING 4304
SWIDTH 600 0
DWIDTH 10 0
BBX 8 10 1 0
BITMAP
30
30
1C
0E
07
C3
C3
E7
FF
3C
ENDCHAR
STARTCHAR 10D1
ENCODING 4305
SWIDTH 600 0
DWIDTH 10 0
BBX 8 13 1 0
BITMAP
60
70
38
18
3C
7E
E3
C3
C3
C3
E7
7F
3E
ENDCHAR
STARTCHAR 10D2
ENCODING 4306
SWIDTH 600 0
DWIDTH 10 0
BBX 8 12 1 -3
BITMAP
38
FE
C6
C6
1C
7E
E7
C3
C3
C3
FF
3C
ENDCHAR
STARTCHAR 10D3
ENCODING 4307
SWIDTH 600 0
DWIDTH 10 0
BBX 10 12 0 -4
BITMAP
3700
7F80
CCC0
CCC0
CCC0
CCC0
CCC0
CFC0
6780
3800
7E00
0700
ENDCHAR
STARTCHAR 10D4
ENCODING 4308
SWIDTH 600 0
DWIDTH 10 0
BBX 8 12 1 -3
BITMAP
1C
7F
63
63
63
03
43
E3
C3
C3
FF
7E
ENDCHAR
STARTCHAR 10D5
ENCODING 4309
SWIDTH 600 0
DWIDTH 10 0
BBX 8 12 1 -3
BITMAP
3C
FF
C7
C3
43
0E
0E
C3
C3
C3
FF
7E
ENDCHAR
STARTCHAR 10D6
ENCODING 4310
SWIDTH 600 0
DWIDTH 10 0
BBX 8 13 1 0
BITMAP
78
FC
CC
CC
CC
7E
E7
C3
C3
C3
E7
FE
3C
ENDCHAR
STARTCHAR 10D7
ENCODING 4311
SWIDTH 600 0
DWIDTH 10 0
BBX 9 9 0 0
BITMAP
3F00
7F80
CD80
CD80
CD80
CD80
CD80
7D80
3B00
ENDCHAR
STARTCHAR 10D8
ENCODING 4312
SWIDTH 600 0
DWIDTH 10 0
BBX 8 9 1 0
BITMAP
3C
7E
E7
C3
C3
C3
C3
E7
66
ENDCHAR
STARTCHAR 10D9
ENCODING 4313
SWIDTH 600 0
DWIDTH 10 0
BBX 8 12 1 -3
BITMAP
38
3E
07
03
03
1E
1E
C3
C3
C3
FF
7E
ENDCHAR
STARTCHAR 10DA
ENCODING 4314
SWIDTH 600 0
DWIDTH 10 0
BBX 8 12 1 -4
BITMAP
3C
FE
E7
C3
C3
C7
E6
66
70
78
7C
0E
ENDCHAR
STARTCHAR 10DB
ENCODING 4315
SWIDTH 600 0
DWIDTH 10 0
BBX 8 13 1 0
BITMAP
3C
FF
E7
C3
03
3B
FF
E7
C3
C3
E7
FF
3C
ENDCHAR
STARTCHAR 10DC
ENCODING 4316
SWIDTH 600 0
DWIDTH 10 0
BBX 8 12 1 0
BITMAP
7E
FE
C0
DC
FE
E7
C3
C3
C3
E7
FE
3C
ENDCHAR
STARTCHAR 10DD
ENCODING 4317
SWIDTH 600 0
DWIDTH 10 0
BBX 9 9 0 0
BITMAP
3F00
7F80
CD80
CD80
CD80
CD80
C180
E180
7300
ENDCHAR
STARTCHAR 10DE
ENCODING 4318
SWIDTH 600 0
DWIDTH 10 0
BBX 8 13 1 0
BITMAP
60
7C
3F
03
03
1E
1E
E7
C3
C3
E7
FF
7C
ENDCHAR
STARTCHAR 10DF
ENCODING 4319
SWIDTH 600 0
DWIDTH 10 0
BBX 8 12 1 -3
BITMAP
03
FF
F3
3B
1B
1B
FB
E3
C3
C3
FF
7C
ENDCHAR
STARTCHAR 10E0
ENCODING 4320
SWIDTH 600 0
DWIDTH 10 0
BBX 9 13 0 0
BITMAP
0600
1E00
3800
7000
7700
FF80
CD80
CD80
CD80
CD80
C180
E180
6300
ENDCHAR
STARTCHAR 10E1
ENCODING 4321
SWIDTH 600 0
DWIDTH 10 0
BBX 8 12 1 1
BITMAP
C0
C0
C4
CC
CC
C7
C3
C3
C3
E3
FF
3C
ENDCHAR
STARTCHAR 10E2
ENCODING 4322
SWIDTH 600 0
DWIDTH 10 0
BBX 10 14 0 -3
BITMAP
0C00
0C00
0C00
3F00
7F80
EDC0
EDC0
CCC0
C0C0
C0C0
E1C0
6180
7F80
1E00
ENDCHAR
STARTCHAR 10E3
ENCODING 4323
SWIDTH 600 0
DWIDTH 10 0
BBX 9 12 0 -2
BITMAP
B700
FF80
C980
0980
0980
0180
2180
6180
6180
6380
7F80
1E00
ENDCHAR
STARTCHAR 10E4
ENCODING 4324
SWIDTH 600 0
DWIDTH 10 0
BBX 9 12 0 -3
BITMAP
3B00
7F80
CD80
CD80
CD80
CD80
CF00
7F80
3180
6180
3F80
1F00
ENDCHAR
STARTCHAR 10E5
ENCODING 4325
SWIDTH 600 0
DWIDTH 10 0
BBX 8 16 1 -3
BITMAP
03
03
03
03
3B
7F
67
63
43
03
43
C3
C3
E3
FF
3C
ENDCHAR
STARTCHAR 10E6
ENCODING 4326
SWIDTH 600 0
DWIDTH 10 0
BBX 9 12 0 -4
BITMAP
3700
7F80
CD80
CD80
CD80
CD80
C180
6300
7000
3C00
3E00
0300
ENDCHAR
STARTCHAR 10E7
ENCODING 4327
SWIDTH 600 0
DWIDTH 10 0
BBX 8 11 1 -2
BITMAP
73
E3
E3
E3
E3
7F
3B
E3
E3
7F
3E
ENDCHAR
STARTCHAR 10E8
ENCODING 4328
SWIDTH 600 0
DWIDTH 10 0
BBX 9 13 0 0
BITMAP
6700
FF80
C980
C980
0180
3D80
7F80
6180
6180
6180
7380
3F80
1F00
ENDCHAR
STARTCHAR 10E9
ENCODING 4329
SWIDTH 600 0
DWIDTH 10 0
BBX 8 13 1 0
BITMAP
78
FE
C6
C6
DC
FE
E7
C3
C3
C3
C7
C6
CE
ENDCHAR
STARTCHAR 10EA
ENCODING 4330
SWIDTH 600 0
DWIDTH 10 0
BBX 9 12 1 -3
BITMAP
4000
6C00
CF00
C300
C300
CF00
CF00
C180
C180
E380
7F00
3E00
ENDCHAR
STARTCHAR 10EB
ENCODING 4331
SWIDTH 600 0
DWIDTH 10 0
BBX 8 12 1 1
BITMAP
03
03
03
3B
7F
E7
E3
E3
E3
E3
7F
3E
ENDCHAR
STARTCHAR 10EC
ENCODING 4332
SWIDTH 600 0
DWIDTH 10 0
BBX 9 13 1 0
BITMAP
7300
FF80
C980
C180
C000
DC00
FF00
C700
C300
C300
E700
7F00
3C00
ENDCHAR
STARTCHAR 10ED
ENCODING 4333
SWIDTH 600 0
DWIDTH 10 0
BBX 8 15 1 -2
BITMAP
18
18
18
78
EC
C7
CF
78
1C
0F
C7
C3
C3
FF
7E
ENDCHAR
STARTCHAR 10EE
ENCODING 4334
SWIDTH 600 0
DWIDTH 10 0
BBX 8 13 1 0
BITMAP
C0
C0
C0
C0
DC
FE
E7
C3
C3
C3
E7
7E
3C
ENDCHAR
STARTCHAR 10EF
ENCODING 4335
SWIDTH 600 0
DWIDTH 10 0
BBX 8 14 1 -3
BITMAP
18
18
D8
FC
1F
19
18
0E
C7
C3
C3
E3
FF
7E
ENDCHAR
STARTCHAR 10F0
ENCODING 4336
SWIDTH 600 0
DWIDTH 10 0
BBX 8 13 1 0
BITMAP
30
3C
1F
03
1F
1F
03
1F
DF
C3
C3
FF
7E
ENDCHAR
STARTCHAR 10F1
ENCODING 4337
SWIDTH 600 0
DWIDTH 10 0
BBX 8 16 1 -3
BITMAP
18
1E
07
C3
CF
6F
63
6F
EF
C3
C3
CF
CF
E3
FF
3E
ENDCHAR
STARTCHAR 10F2
ENCODING 4338
SWIDTH 600 0
DWIDTH 10 0
BBX 8 11 1 -3
BITMAP
3C
7E
E7
C3
C3
C3
E7
7E
3C
FF
C3
ENDCHAR
STARTCHAR 10F3
ENCODING 4339
SWIDTH 600 0
DWIDTH 10 0
BBX 8 12 1 -3
BITMAP
FF
FF
C7
C7
06
3C
3E
03
C3
C3
FF
7E
ENDCHAR
STARTCHAR 10F4
ENCODING 4340
SWIDTH 600 0
DWIDTH 10 0
BBX 8 16 1 -3
BITMAP
38
F8
E0
C0
C3
FF
3F
03
07
3E
3E
03
C3
E3
FF
3E
ENDCHAR
STARTCHAR 10F5
ENCODING 4341
SWIDTH 600 0
DWIDTH 10 0
BBX 9 13 1 0
BITMAP
3C00
FE00
E700
C300
E300
FF80
3F80
7F80
FF80
C300
C300
FF00
7E00
ENDCHAR
STARTCHAR 10F6
ENCODING 4342
SWIDTH 600 0
DWIDTH 10 0
BBX 9 12 0 -3
BITMAP
7700
FF80
CD80
CD80
CD80
CD80
ED80
EF80
2F00
0C00
3C00
3800
ENDCHAR
STARTCHAR 10F7
ENCODING 4343
SWIDTH 600 0
DWIDTH 10 0
BBX 8 12 1 -3
BITMAP
3C
7E
66
0E
1E
78
E3
C3
C3
C3
FF
7E
ENDCHAR
STARTCHAR 10F8
ENCODING 4344
SWIDTH 600 0
DWIDTH 10 0
BBX 8 12 1 -2
BITMAP
CE
C7
C3
C3
C3
C7
FF
FC
C3
C7
FF
7E
ENDCHAR
STARTCHAR 10F9
ENCODING 4345
SWIDTH 600 0
DWIDTH 10 0
BBX 8 12 1 -3
BITMAP
3C
FF
E3
C3
C3
E7
7E
38
76
66
7E
3C
ENDCHAR
STARTCHAR 10FA
ENCODING 4346
SWIDTH 600 0
DWIDTH 10 0
BBX 8 10 1 -2
BITMAP
3C
7E
E3
C3
C3
E7
66
78
7C
4C
ENDCHAR
STARTCHAR 10FB
ENCODING 4347
SWIDTH 600 0
DWIDTH 10 0
BBX 6 8 2 0
BITMAP
C0
C0
00
0C
0C
00
C0
C0
ENDCHAR
STARTCHAR 10FC
ENCODING 4348
SWIDTH 600 0
DWIDTH 10 0
BBX 4 7 3 5
BITMAP
F0
80
E0
90
90
90
60
ENDCHAR
STARTCHAR 1D02
ENCODING 7426
SWIDTH 600 0
DWIDTH 10 0
BBX 10 9 0 0
BITMAP
7380
FFC0
8CC0
0CC0
FFC0
FF00
CC00
FF80
7780
ENDCHAR
STARTCHAR 1D08
ENCODING 7432
SWIDTH 600 0
DWIDTH 10 0
BBX 8 9 1 1
BITMAP
FC
FF
07
3E
3E
07
07
FF
FC
ENDCHAR
STARTCHAR 1D09
ENCODING 7433
SWIDTH 600 0
DWIDTH 10 0
BBX 8 14 1 -5
BITMAP
FF
FF
18
18
18
18
18
1F
1F
00
00
18
18
18
ENDCHAR
STARTCHAR 1D14
ENCODING 7444
SWIDTH 600 0
DWIDTH 10 0
BBX 10 9 0 0
BITMAP
7380
FF80
8CC0
0CC0
FCC0
FCC0
CCC0
FF80
7B80
ENDCHAR
STARTCHAR 1D16
ENCODING 7446
SWIDTH 600 0
DWIDTH 10 0
BBX 8 5 1 4
BITMAP
3C
7E
E7
C3
C3
ENDCHAR
STARTCHAR 1D17
ENCODING 7447
SWIDTH 600 0
DWIDTH 10 0
BBX 8 5 1 0
BITMAP
C3
C3
E7
7E
3C
ENDCHAR
STARTCHAR 1D1D
ENCODING 7453
SWIDTH 600 0
DWIDTH 10 0
BBX 9 7 0 1
BITMAP
FF80
FF80
0100
0180
0380
FF80
FF00
ENDCHAR
STARTCHAR 1D1E
ENCODING 7454
SWIDTH 600 0
DWIDTH 10 0
BBX 9 7 1 0
BITMAP
3F00
BF00
8100
0080
8180
BF80
3F00
ENDCHAR
STARTCHAR 1D1F
ENCODING 7455
SWIDTH 600 0
DWIDTH 10 0
BBX 9 9 0 0
BITMAP
FF80
FF80
0180
0180
FF80
FF00
0180
FF80
FF00
ENDCHAR
STARTCHAR 1D2C
ENCODING 7468
SWIDTH 600 0
DWIDTH 10 0
BBX 6 7 2 6
BITMAP
30
30
78
48
78
CC
CC
ENDCHAR
STARTCHAR 1D2D
ENCODING 7469
SWIDTH 600 0
DWIDTH 10 0
BBX 6 6 2 6
BITMAP
7C
50
58
50
F0
9C
ENDCHAR
STARTCHAR 1D2E
ENCODING 7470
SWIDTH 600 0
DWIDTH 10 0
BBX 5 7 3 6
BITMAP
F0
90
F0
90
98
98
F0
ENDCHAR
STARTCHAR 1D30
ENCODING 7472
SWIDTH 600 0
DWIDTH 10 0
BBX 6 6 2 6
BITMAP
F8
C8
CC
CC
C8
F8
ENDCHAR
STARTCHAR 1D31
ENCODING 7473
SWIDTH 600 0
DWIDTH 10 0
BBX 5 6 2 6
BITMAP
F8
C0
C0
F8
C0
F8
ENDCHAR
STARTCHAR 1D32
ENCODING 7474
SWIDTH 600 0
DWIDTH 10 0
BBX 5 6 3 6
BITMAP
F8
18
18
F8
18
F8
ENDCHAR
STARTCHAR 1D33
ENCODING 7475
SWIDTH 600 0
DWIDTH 10 0
BBX 5 7 2 6
BITMAP
38
60
C0
D8
C8
68
38
ENDCHAR
STARTCHAR 1D34
ENCODING 7476
SWIDTH 600 0
DWIDTH 10 0
BBX 6 7 2 5
BITMAP
CC
CC
FC
CC
CC
CC
CC
ENDCHAR
STARTCHAR 1D35
ENCODING 7477
SWIDTH 600 0
DWIDTH 10 0
BBX 5 6 3 6
BITMAP
F8
60
60
60
60
F8
ENDCHAR
STARTCHAR 1D36
ENCODING 7478
SWIDTH 600 0
DWIDTH 10 0
BBX 5 7 3 6
BITMAP
78
18
18
18
18
90
F0
ENDCHAR
STARTCHAR 1D37
ENCODING 7479
SWIDTH 600 0
DWIDTH 10 0
BBX 5 7 2 5
BITMAP
D8
D0
E0
F0
D0
D8
C8
ENDCHAR
STARTCHAR 1D38
ENCODING 7480
SWIDTH 600 0
DWIDTH 10 0
BBX 5 7 2 5
BITMAP
C0
C0
C0
C0
C0
C0
F8
ENDCHAR
STARTCHAR 1D39
ENCODING 7481
SWIDTH 600 0
DWIDTH 10 0
BBX 5 7 2 5
BITMAP
D8
D8
D8
A8
88
88
88
ENDCHAR
STARTCHAR 1D3A
ENCODING 7482
SWIDTH 600 0
DWIDTH 10 0
BBX 5 7 3 5
BITMAP
C8
C8
E8
A8
A8
98
98
ENDCHAR
STARTCHAR 1D3B
ENCODING 7483
SWIDTH 600 0
DWIDTH 10 0
BBX 5 7 3 5
BITMAP
98
98
A8
A8
C8
C8
88
ENDCHAR
STARTCHAR 1D3C
ENCODING 7484
SWIDTH 600 0
DWIDTH 10 0
BBX 5 7 3 6
BITMAP
F0
98
98
98
98
98
70
ENDCHAR
STARTCHAR 1D3E
ENCODING 7486
SWIDTH 600 0
DWIDTH 10 0
BBX 6 7 2 6
BITMAP
F8
CC
CC
F8
C0
C0
C0
ENDCHAR
STARTCHAR 1D3F
ENCODING 7487
SWIDTH 600 0
DWIDTH 10 0
BBX 6 7 2 6
BITMAP
F8
D8
D8
F0
D0
D8
CC
ENDCHAR
STARTCHAR 1D40
ENCODING 7488
SWIDTH 600 0
DWIDTH 10 0
BBX 5 7 3 6
BITMAP
F8
60
60
60
60
60
60
ENDCHAR
STARTCHAR 1D41
ENCODING 7489
SWIDTH 600 0
DWIDTH 10 0
BBX 6 7 2 5
BITMAP
CC
CC
CC
CC
CC
48
78
ENDCHAR
STARTCHAR 1D42
ENCODING 7490
SWIDTH 600 0
DWIDTH 10 0
BBX 6 7 2 5
BITMAP
84
84
B4
F4
FC
68
48
ENDCHAR
STARTCHAR 1D43
ENCODING 7491
SWIDTH 600 0
DWIDTH 10 0
BBX 6 6 2 5
BITMAP
78
08
78
C8
CC
70
ENDCHAR
STARTCHAR 1D44
ENCODING 7492
SWIDTH 600 0
DWIDTH 10 0
BBX 5 6 3 5
BITMAP
30
D8
98
F0
80
F0
ENDCHAR
STARTCHAR 1D45
ENCODING 7493
SWIDTH 600 0
DWIDTH 10 0
BBX 5 6 3 5
BITMAP
C0
B8
98
98
98
F8
ENDCHAR
STARTCHAR 1D46
ENCODING 7494
SWIDTH 600 0
DWIDTH 10 0
BBX 6 6 2 5
BITMAP
D8
24
24
F8
A0
D8
ENDCHAR
STARTCHAR 1D47
ENCODING 7495
SWIDTH 600 0
DWIDTH 10 0
BBX 5 7 2 6
BITMAP
C0
F8
C8
C8
C8
C8
F8
ENDCHAR
STARTCHAR 1D48
ENCODING 7496
SWIDTH 600 0
DWIDTH 10 0
BBX 4 7 3 6
BITMAP
10
F0
90
90
90
90
F0
ENDCHAR
STARTCHAR 1D49
ENCODING 7497
SWIDTH 600 0
DWIDTH 10 0
BBX 6 6 2 5
BITMAP
38
4C
FC
C0
64
3C
ENDCHAR
STARTCHAR 1D4A
ENCODING 7498
SWIDTH 600 0
DWIDTH 10 0
BBX 6 6 2 5
BITMAP
78
0C
0C
FC
4C
78
ENDCHAR
STARTCHAR 1D4B
ENCODING 7499
SWIDTH 600 0
DWIDTH 10 0
BBX 5 6 2 4
BITMAP
78
C0
30
C0
C0
78
ENDCHAR
STARTCHAR 1D4C
ENCODING 7500
SWIDTH 600 0
DWIDTH 10 0
BBX 5 6 3 6
BITMAP
F0
18
18
60
18
F0
ENDCHAR
STARTCHAR 1D4D
ENCODING 7501
SWIDTH 600 0
DWIDTH 10 0
BBX 6 7 2 3
BITMAP
7C
4C
CC
4C
7C
08
78
ENDCHAR
STARTCHAR 1D4E
ENCODING 7502
SWIDTH 600 0
DWIDTH 10 0
BBX 5 8 3 3
BITMAP
F8
20
20
20
20
38
20
20
ENDCHAR
STARTCHAR 1D4F
ENCODING 7503
SWIDTH 600 0
DWIDTH 10 0
BBX 5 7 2 6
BITMAP
C0
C0
D8
F0
F0
D8
C8
ENDCHAR
STARTCHAR 1D50
ENCODING 7504
SWIDTH 600 0
DWIDTH 10 0
BBX 5 6 2 5
BITMAP
18
E8
A8
A8
A8
A8
ENDCHAR
STARTCHAR 1D51
ENCODING 7505
SWIDTH 600 0
DWIDTH 10 0
BBX 5 7 2 3
BITMAP
10
F8
C8
C8
C8
C8
38
ENDCHAR
STARTCHAR 1D52
ENCODING 7506
SWIDTH 600 0
DWIDTH 10 0
BBX 5 6 3 5
BITMAP
70
98
98
98
98
70
ENDCHAR
STARTCHAR 1D53
ENCODING 7507
SWIDTH 600 0
DWIDTH 10 0
BBX 5 6 3 5
BITMAP
E0
30
10
18
30
E0
ENDCHAR
STARTCHAR 1D54
ENCODING 7508
SWIDTH 600 0
DWIDTH 10 0
BBX 6 3 2 8
BITMAP
38
4C
CC
ENDCHAR
STARTCHAR 1D55
ENCODING 7509
SWIDTH 600 0
DWIDTH 10 0
BBX 6 3 2 5
BITMAP
CC
4C
38
ENDCHAR
STARTCHAR 1D56
ENCODING 7510
SWIDTH 600 0
DWIDTH 10 0
BBX 5 7 2 3
BITMAP
F8
C8
C8
C8
C8
F8
C0
ENDCHAR
STARTCHAR 1D57
ENCODING 7511
SWIDTH 600 0
DWIDTH 10 0
BBX 5 7 3 5
BITMAP
60
F8
60
60
60
60
38
ENDCHAR
STARTCHAR 1D58
ENCODING 7512
SWIDTH 600 0
DWIDTH 10 0
BBX 5 5 2 6
BITMAP
C8
C8
C8
58
68
ENDCHAR
STARTCHAR 1D59
ENCODING 7513
SWIDTH 600 0
DWIDTH 10 0
BBX 6 3 2 6
BITMAP
FC
04
FC
ENDCHAR
STARTCHAR 1D5A
ENCODING 7514
SWIDTH 600 0
DWIDTH 10 0
BBX 5 5 2 6
BITMAP
A8
A8
A8
A8
F8
ENDCHAR
STARTCHAR 1D5B
ENCODING 7515
SWIDTH 600 0
DWIDTH 10 0
BBX 6 6 2 5
BITMAP
CC
48
48
78
30
30
ENDCHAR
STARTCHAR 1D62
ENCODING 7522
SWIDTH 600 0
DWIDTH 10 0
BBX 5 8 3 0
BITMAP
20
20
00
E0
20
20
20
F8
ENDCHAR
STARTCHAR 1D63
ENCODING 7523
SWIDTH 600 0
DWIDTH 10 0
BBX 4 5 3 1
BITMAP
F0
C0
C0
C0
C0
ENDCHAR
STARTCHAR 1D64
ENCODING 7524
SWIDTH 600 0
DWIDTH 10 0
BBX 5 5 2 0
BITMAP
C8
C8
C8
58
68
ENDCHAR
STARTCHAR 1D65
ENCODING 7525
SWIDTH 600 0
DWIDTH 10 0
BBX 6 5 2 1
BITMAP
CC
48
78
38
30
ENDCHAR
STARTCHAR 1D77
ENCODING 7543
SWIDTH 600 0
DWIDTH 10 0
BBX 8 13 1 -3
BITMAP
7E
FE
C0
DC
FE
E7
C7
C3
C7
E7
FE
DC
C0
ENDCHAR
STARTCHAR 1D78
ENCODING 7544
SWIDTH 600 0
DWIDTH 10 0
BBX 6 7 2 5
BITMAP
CC
CC
FC
CC
CC
CC
CC
ENDCHAR
STARTCHAR 1D7B
ENCODING 7547
SWIDTH 600 0
DWIDTH 10 0
BBX 8 9 1 0
BITMAP
FF
FF
18
18
7E
7E
18
FF
FF
ENDCHAR
STARTCHAR 1D85
ENCODING 7557
SWIDTH 600 0
DWIDTH 10 0
BBX 8 17 1 -4
BITMAP
F0
F0
30
30
30
30
30
30
30
30
38
3F
1F
03
07
0F
0E
ENDCHAR
STARTCHAR 1D9B
ENCODING 7579
SWIDTH 600 0
DWIDTH 10 0
BBX 6 6 2 5
BITMAP
18
E8
C8
CC
C8
F8
ENDCHAR
STARTCHAR 1D9C
ENCODING 7580
SWIDTH 600 0
DWIDTH 10 0
BBX 4 6 3 5
BITMAP
70
C0
80
80
C0
70
ENDCHAR
STARTCHAR 1D9D
ENCODING 7581
SWIDTH 600 0
DWIDTH 10 0
BBX 5 6 2 4
BITMAP
38
60
C0
58
68
38
ENDCHAR
STARTCHAR 1D9E
ENCODING 7582
SWIDTH 600 0
DWIDTH 10 0
BBX 5 7 3 6
BITMAP
70
B0
F8
98
98
98
70
ENDCHAR
STARTCHAR 1D9F
ENCODING 7583
SWIDTH 600 0
DWIDTH 10 0
BBX 5 6 3 4
BITMAP
F0
18
60
18
18
F0
ENDCHAR
STARTCHAR 1DA0
ENCODING 7584
SWIDTH 600 0
DWIDTH 10 0
BBX 4 7 3 5
BITMAP
70
60
F0
60
60
60
60
ENDCHAR
STARTCHAR 1DA1
ENCODING 7585
SWIDTH 600 0
DWIDTH 10 0
BBX 4 7 3 4
BITMAP
60
60
60
F0
60
60
C0
ENDCHAR
STARTCHAR 1DA2
ENCODING 7586
SWIDTH 600 0
DWIDTH 10 0
BBX 6 7 2 4
BITMAP
7C
4C
CC
4C
7C
08
78
ENDCHAR
STARTCHAR 1DA3
ENCODING 7587
SWIDTH 600 0
DWIDTH 10 0
BBX 5 7 2 4
BITMAP
C8
C8
C8
D8
68
08
08
ENDCHAR
STARTCHAR 1DA4
ENCODING 7588
SWIDTH 600 0
DWIDTH 10 0
BBX 5 7 3 6
BITMAP
60
E0
60
60
F0
60
F8
ENDCHAR
STARTCHAR 1DA5
ENCODING 7589
SWIDTH 600 0
DWIDTH 10 0
BBX 4 6 3 5
BITMAP
E0
60
60
60
60
30
ENDCHAR
STARTCHAR 1DA6
ENCODING 7590
SWIDTH 600 0
DWIDTH 10 0
BBX 5 6 3 5
BITMAP
F8
20
20
20
20
F8
ENDCHAR
STARTCHAR 1DA7
ENCODING 7591
SWIDTH 600 0
DWIDTH 10 0
BBX 5 6 3 5
BITMAP
F8
60
60
F0
60
F8
ENDCHAR
STARTCHAR 1DA8
ENCODING 7592
SWIDTH 600 0
DWIDTH 10 0
BBX 5 9 2 4
BITMAP
18
18
78
18
18
18
18
F8
F0
ENDCHAR
STARTCHAR 1DA9
ENCODING 7593
SWIDTH 600 0
DWIDTH 10 0
BBX 6 10 2 3
BITMAP
F0
30
30
30
30
30
30
30
30
3C
ENDCHAR
STARTCHAR 1DAA
ENCODING 7594
SWIDTH 600 0
DWIDTH 10 0
BBX 6 9 2 3
BITMAP
F0
30
30
30
30
30
30
3C
18
ENDCHAR
STARTCHAR 1DAB
ENCODING 7595
SWIDTH 600 0
DWIDTH 10 0
BBX 4 5 3 5
BITMAP
C0
C0
C0
C0
F0
ENDCHAR
STARTCHAR 1DAC
ENCODING 7596
SWIDTH 600 0
DWIDTH 10 0
BBX 5 7 2 3
BITMAP
18
E8
A8
A8
A8
A8
18
ENDCHAR
STARTCHAR 1DAD
ENCODING 7597
SWIDTH 600 0
DWIDTH 10 0
BBX 5 7 2 4
BITMAP
A8
A8
A8
A8
F8
08
08
ENDCHAR
STARTCHAR 1DAE
ENCODING 7598
SWIDTH 600 0
DWIDTH 10 0
BBX 6 8 2 3
BITMAP
0C
7C
6C
6C
6C
60
40
C0
ENDCHAR
STARTCHAR 1DAF
ENCODING 7599
SWIDTH 600 0
DWIDTH 10 0
BBX 5 8 2 3
BITMAP
30
D0
D8
D8
D8
D8
18
08
ENDCHAR
STARTCHAR 1DB0
ENCODING 7600
SWIDTH 600 0
DWIDTH 10 0
BBX 5 5 2 6
BITMAP
D8
F8
F8
F8
D8
ENDCHAR
STARTCHAR 1DB1
ENCODING 7601
SWIDTH 600 0
DWIDTH 10 0
BBX 5 6 3 5
BITMAP
70
D8
98
F8
D8
70
ENDCHAR
STARTCHAR 1DB2
ENCODING 7602
SWIDTH 600 0
DWIDTH 10 0
BBX 6 9 2 3
BITMAP
7C
30
78
FC
FC
FC
78
30
7C
ENDCHAR
STARTCHAR 1DB3
ENCODING 7603
SWIDTH 600 0
DWIDTH 10 0
BBX 4 7 3 3
BITMAP
F0
80
E0
70
10
F0
C0
ENDCHAR
STARTCHAR 1DB4
ENCODING 7604
SWIDTH 600 0
DWIDTH 10 0
BBX 6 9 2 3
BITMAP
1C
30
30
30
30
30
30
30
F0
ENDCHAR
STARTCHAR 1DB5
ENCODING 7605
SWIDTH 600 0
DWIDTH 10 0
BBX 5 8 3 3
BITMAP
60
F8
60
60
60
60
38
30
ENDCHAR
STARTCHAR 1DB6
ENCODING 7606
SWIDTH 600 0
DWIDTH 10 0
BBX 5 5 3 6
BITMAP
D8
D8
F8
D8
F8
ENDCHAR
STARTCHAR 1DB7
ENCODING 7607
SWIDTH 600 0
DWIDTH 10 0
BBX 5 6 3 4
BITMAP
D8
D8
98
98
D8
70
ENDCHAR
STARTCHAR 1DB9
ENCODING 7609
SWIDTH 600 0
DWIDTH 10 0
BBX 5 6 2 4
BITMAP
F8
68
68
68
68
38
ENDCHAR
STARTCHAR 1DBA
ENCODING 7610
SWIDTH 600 0
DWIDTH 10 0
BBX 6 6 2 5
BITMAP
30
30
78
48
48
CC
ENDCHAR
STARTCHAR 1DBB
ENCODING 7611
SWIDTH 600 0
DWIDTH 10 0
BBX 5 6 3 5
BITMAP
F8
10
30
60
C0
F8
ENDCHAR
STARTCHAR 1DBC
ENCODING 7612
SWIDTH 600 0
DWIDTH 10 0
BBX 6 7 2 3
BITMAP
F8
18
30
60
40
F8
0C
ENDCHAR
STARTCHAR 1DBD
ENCODING 7613
SWIDTH 600 0
DWIDTH 10 0
BBX 5 7 2 4
BITMAP
F8
18
30
68
D8
F8
10
ENDCHAR
STARTCHAR 1DBE
ENCODING 7614
SWIDTH 600 0
DWIDTH 10 0
BBX 6 7 2 3
BITMAP
F8
18
30
78
0C
0C
78
ENDCHAR
STARTCHAR 1DBF
ENCODING 7615
SWIDTH 600 0
DWIDTH 10 0
BBX 6 8 2 5
BITMAP
30
48
48
CC
FC
48
48
30
ENDCHAR
STARTCHAR 1E00
ENCODING 7680
SWIDTH 600 0
DWIDTH 10 0
BBX 10 16 0 -4
BITMAP
1E00
1E00
1E00
3F00
3300
3300
3300
7F80
7F80
6180
E180
E1C0
0000
1E00
1200
1E00
ENDCHAR
STARTCHAR 1E01
ENCODING 7681
SWIDTH 600 0
DWIDTH 10 0
BBX 8 13 1 -5
BITMAP
7E
7F
03
7F
FF
E3
E3
FF
7B
00
3C
24
3C
ENDCHAR
STARTCHAR 1E02
ENCODING 7682
SWIDTH 600 0
DWIDTH 10 0
BBX 8 15 1 0
BITMAP
18
18
00
FC
FF
C7
C3
C7
FE
FE
C3
C3
C3
FF
FE
ENDCHAR
STARTCHAR 1E03
ENCODING 7683
SWIDTH 600 0
DWIDTH 10 0
BBX 8 13 1 0
BITMAP
CC
CC
C0
C0
DC
FE
E7
C3
C3
C3
E7
FE
DE
ENDCHAR
STARTCHAR 1E04
ENCODING 7684
SWIDTH 600 0
DWIDTH 10 0
BBX 8 16 1 -3
BITMAP
FC
FF
C7
C3
C7
FE
FE
C3
C3
C3
FF
FE
00
00
18
18
ENDCHAR
STARTCHAR 1E05
ENCODING 7685
SWIDTH 600 0
DWIDTH 10 0
BBX 8 17 1 -4
BITMAP
C0
C0
C0
C0
DC
FE
E7
C3
C3
C3
E7
FE
DE
00
00
18
18
ENDCHAR
STARTCHAR 1E06
ENCODING 7686
SWIDTH 600 0
DWIDTH 10 0
BBX 8 16 1 -3
BITMAP
FC
FF
C7
C3
C7
FE
FE
C3
C3
C3
FF
FE
00
00
7C
7C
ENDCHAR
STARTCHAR 1E07
ENCODING 7687
SWIDTH 600 0
DWIDTH 10 0
BBX 8 17 1 -4
BITMAP
C0
C0
C0
C0
DC
FE
E7
C3
C3
C3
E7
FE
DE
00
00
7C
7C
ENDCHAR
STARTCHAR 1E08
ENCODING 7688
SWIDTH 600 0
DWIDTH 10 0
BBX 7 18 1 -3
BITMAP
06
0C
00
3E
7E
70
E0
E0
E0
E0
E0
E0
E0
7E
3E
0C
04
1C
ENDCHAR
STARTCHAR 1E09
ENCODING 7689
SWIDTH 600 0
DWIDTH 10 0
BBX 7 16 2 -4
BITMAP
06
0C
18
00
3C
7E
E2
C0
C0
C0
E0
FE
7E
18
08
38
ENDCHAR
STARTCHAR 1E0A
ENCODING 7690
SWIDTH 600 0
DWIDTH 10 0
BBX 8 15 1 0
BITMAP
30
30
00
FC
FE
C7
C7
C3
C3
C3
C3
C7
CF
FE
F8
ENDCHAR
STARTCHAR 1E0B
ENCODING 7691
SWIDTH 600 0
DWIDTH 10 0
BBX 8 13 1 0
BITMAP
33
33
03
03
7B
FF
E7
C3
C3
C3
E7
FF
7B
ENDCHAR
STARTCHAR 1E0C
ENCODING 7692
SWIDTH 600 0
DWIDTH 10 0
BBX 8 16 1 -3
BITMAP
FC
FE
C7
C7
C3
C3
C3
C3
C7
CF
FE
FC
00
00
30
30
ENDCHAR
STARTCHAR 1E0D
ENCODING 7693
SWIDTH 600 0
DWIDTH 10 0
BBX 8 17 1 -4
BITMAP
03
03
03
03
7B
FF
E7
C3
C3
C3
E7
FF
7B
00
00
18
18
ENDCHAR
STARTCHAR 1E0E
ENCODING 7694
SWIDTH 600 0
DWIDTH 10 0
BBX 8 16 1 -3
BITMAP
FC
FE
C7
C7
C3
C3
C3
C3
C7
CF
FE
FC
00
00
7C
7C
ENDCHAR
STARTCHAR 1E0F
ENCODING 7695
SWIDTH 600 0
DWIDTH 10 0
BBX 8 17 1 -4
BITMAP
03
03
03
03
7B
FF
E7
C3
C3
C3
E7
FF
7B
00
00
7C
7C
ENDCHAR
STARTCHAR 1E10
ENCODING 7696
SWIDTH 600 0
DWIDTH 10 0
BBX 8 15 1 -3
BITMAP
FC
FE
C7
C7
C3
C3
C3
C3
C7
FF
FE
FC
30
10
F0
ENDCHAR
STARTCHAR 1E11
ENCODING 7697
SWIDTH 600 0
DWIDTH 10 0
BBX 8 16 1 -4
BITMAP
03
03
03
03
73
FF
E7
C7
C3
C3
E7
FF
7B
30
10
70
ENDCHAR
STARTCHAR 1E12
ENCODING 7698
SWIDTH 600 0
DWIDTH 10 0
BBX 8 16 1 -3
BITMAP
FC
FE
C7
C7
C3
C3
C3
C3
C7
CF
FE
FC
00
38
6C
44
ENDCHAR
STARTCHAR 1E13
ENCODING 7699
SWIDTH 600 0
DWIDTH 10 0
BBX 8 17 1 -4
BITMAP
03
03
03
03
7B
FF
E7
C3
C3
C3
E7
FF
7B
00
1C
34
66
ENDCHAR
STARTCHAR 1E18
ENCODING 7704
SWIDTH 600 0
DWIDTH 10 0
BBX 7 16 2 -3
BITMAP
FE
FE
C0
C0
C0
FE
FE
C0
C0
C0
FE
FE
00
38
6C
44
ENDCHAR
STARTCHAR 1E19
ENCODING 7705
SWIDTH 600 0
DWIDTH 10 0
BBX 8 13 1 -4
BITMAP
3C
7F
E3
FF
FF
C0
E1
7F
3E
00
1C
36
62
ENDCHAR
STARTCHAR 1E1A
ENCODING 7706
SWIDTH 600 0
DWIDTH 10 0
BBX 7 16 2 -3
BITMAP
FE
FE
C0
C0
C0
FE
FE
C0
C0
C0
FE
FE
00
00
74
5C
ENDCHAR
STARTCHAR 1E1B
ENCODING 7707
SWIDTH 600 0
DWIDTH 10 0
BBX 8 13 1 -4
BITMAP
3C
7F
E3
FF
FF
C0
E1
7F
3E
00
00
3A
2E
ENDCHAR
STARTCHAR 1E1C
ENCODING 7708
SWIDTH 600 0
DWIDTH 10 0
BBX 7 18 2 -3
BITMAP
4C
38
00
FE
FE
C0
C0
C0
FE
FE
C0
C0
FE
FE
FE
08
08
38
ENDCHAR
STARTCHAR 1E1D
ENCODING 7709
SWIDTH 600 0
DWIDTH 10 0
BBX 8 16 1 -3
BITMAP
22
3C
00
00
3C
7F
E3
FF
FF
C0
E0
7F
7F
08
04
3C
ENDCHAR
STARTCHAR 1E1E
ENCODING 7710
SWIDTH 600 0
DWIDTH 10 0
BBX 7 15 2 -1
BITMAP
30
30
00
FE
FE
C0
C0
C0
FE
FE
C0
C0
C0
C0
C0
ENDCHAR
STARTCHAR 1E1F
ENCODING 7711
SWIDTH 600 0
DWIDTH 10 0
BBX 8 15 1 0
BITMAP
18
18
0F
1F
18
18
FF
FF
18
18
18
18
18
18
18
ENDCHAR
STARTCHAR 1E20
ENCODING 7712
SWIDTH 600 0
DWIDTH 10 0
BBX 8 15 1 -1
BITMAP
3E
3E
00
3F
7F
71
E0
E0
EF
EF
E3
E3
73
7F
3E
ENDCHAR
STARTCHAR 1E21
ENCODING 7713
SWIDTH 600 0
DWIDTH 10 0
BBX 8 16 1 -4
BITMAP
3E
3E
00
03
3B
7F
E7
C7
C3
C7
E7
7F
3B
07
7E
7C
ENDCHAR
STARTCHAR 1E22
ENCODING 7714
SWIDTH 600 0
DWIDTH 10 0
BBX 8 15 1 0
BITMAP
18
18
00
C3
C3
C3
C3
C3
FF
FF
C3
C3
C3
C3
C3
ENDCHAR
STARTCHAR 1E23
ENCODING 7715
SWIDTH 600 0
DWIDTH 10 0
BBX 7 15 2 0
BITMAP
30
30
C0
C0
C0
C0
DC
FC
CE
CE
CE
CE
CE
CE
CE
ENDCHAR
STARTCHAR 1E24
ENCODING 7716
SWIDTH 600 0
DWIDTH 10 0
BBX 8 16 1 -3
BITMAP
C3
C3
C3
C3
C3
FF
FF
C3
C3
C3
C3
C3
00
00
18
18
ENDCHAR
STARTCHAR 1E25
ENCODING 7717
SWIDTH 600 0
DWIDTH 10 0
BBX 7 17 2 -4
BITMAP
C0
C0
C0
C0
DC
FC
CE
CE
CE
CE
CE
CE
CE
00
00
30
30
ENDCHAR
STARTCHAR 1E26
ENCODING 7718
SWIDTH 600 0
DWIDTH 10 0
BBX 8 15 1 0
BITMAP
66
66
00
C3
C3
C3
C3
C3
FF
FF
C3
C3
C3
C3
C3
ENDCHAR
STARTCHAR 1E27
ENCODING 7719
SWIDTH 600 0
DWIDTH 10 0
BBX 7 16 2 0
BITMAP
6C
6C
00
C0
C0
C0
C0
DC
FE
CE
C6
C6
C6
C6
C6
C6
ENDCHAR
STARTCHAR 1E28
ENCODING 7720
SWIDTH 600 0
DWIDTH 10 0
BBX 9 15 0 -3
BITMAP
6180
6180
6180
6180
6180
7F80
7F80
6180
6180
6180
6180
6180
2000
1000
F000
ENDCHAR
STARTCHAR 1E29
ENCODING 7721
SWIDTH 600 0
DWIDTH 10 0
BBX 8 16 1 -4
BITMAP
60
60
60
60
6E
7F
67
63
63
63
63
63
63
20
20
E0
ENDCHAR
STARTCHAR 1E2A
ENCODING 7722
SWIDTH 600 0
DWIDTH 10 0
BBX 8 16 1 -3
BITMAP
C3
C3
C3
C3
C3
FF
FF
C3
C3
C3
C3
C3
00
00
64
3C
ENDCHAR
STARTCHAR 1E2B
ENCODING 7723
SWIDTH 600 0
DWIDTH 10 0
BBX 7 17 2 -4
BITMAP
C0
C0
C0
C0
DC
FE
CE
C6
C6
C6
C6
C6
C6
00
00
4C
78
ENDCHAR
STARTCHAR 1E2C
ENCODING 7724
SWIDTH 600 0
DWIDTH 10 0
BBX 7 16 1 -3
BITMAP
FE
FE
18
18
18
18
18
18
18
18
FE
FE
00
00
72
4C
ENDCHAR
STARTCHAR 1E2D
ENCODING 7725
SWIDTH 600 0
DWIDTH 10 0
BBX 8 18 1 -4
BITMAP
1C
1C
1C
00
00
7C
7C
1C
1C
1C
1C
1C
FF
FF
00
00
72
4C
ENDCHAR
STARTCHAR 1E30
ENCODING 7728
SWIDTH 600 0
DWIDTH 10 0
BBX 9 15 1 1
BITMAP
0C00
1800
0000
C300
C700
CE00
DC00
F800
F800
FC00
EE00
CE00
C700
C300
C380
ENDCHAR
STARTCHAR 1E31
ENCODING 7729
SWIDTH 600 0
DWIDTH 10 0
BBX 8 15 2 1
BITMAP
60
C0
C0
C0
C0
C0
CE
DC
F8
F0
F8
DC
CC
CE
C7
ENDCHAR
STARTCHAR 1E32
ENCODING 7730
SWIDTH 600 0
DWIDTH 10 0
BBX 9 16 1 -3
BITMAP
C300
C600
CE00
DC00
F800
F800
FC00
EC00
CE00
C700
C700
C380
0000
0000
1800
1800
ENDCHAR
STARTCHAR 1E33
ENCODING 7731
SWIDTH 600 0
DWIDTH 10 0
BBX 8 17 2 -4
BITMAP
C0
C0
C0
C0
CE
DC
F8
F8
F8
CC
CE
C6
C7
00
00
18
18
ENDCHAR
STARTCHAR 1E34
ENCODING 7732
SWIDTH 600 0
DWIDTH 10 0
BBX 9 16 1 -3
BITMAP
C380
C700
CE00
DC00
F800
FC00
FC00
EE00
C600
C700
C380
C380
0000
0000
3E00
3E00
ENDCHAR
STARTCHAR 1E35
ENCODING 7733
SWIDTH 600 0
DWIDTH 10 0
BBX 8 17 2 -4
BITMAP
C0
C0
C0
C0
CE
DC
F8
F0
F8
DC
CC
CE
C7
00
00
7C
7C
ENDCHAR
STARTCHAR 1E36
ENCODING 7734
SWIDTH 600 0
DWIDTH 10 0
BBX 7 16 2 -3
BITMAP
C0
C0
C0
C0
C0
C0
C0
C0
C0
C0
FE
FE
00
00
30
30
ENDCHAR
STARTCHAR 1E37
ENCODING 7735
SWIDTH 600 0
DWIDTH 10 0
BBX 8 17 1 -4
BITMAP
F0
F0
30
30
30
30
30
30
30
30
38
3F
1F
00
00
18
18
ENDCHAR
STARTCHAR 1E38
ENCODING 7736
SWIDTH 600 0
DWIDTH 10 0
BBX 7 19 2 -4
BITMAP
7C
7C
00
C0
C0
C0
C0
C0
C0
C0
C0
C0
C0
FE
FE
00
00
38
38
ENDCHAR
STARTCHAR 1E39
ENCODING 7737
SWIDTH 600 0
DWIDTH 10 0
BBX 8 19 1 -4
BITMAP
7C
7C
F0
F0
30
30
30
30
30
30
30
30
38
3F
1F
00
00
18
18
ENDCHAR
STARTCHAR 1E3A
ENCODING 7738
SWIDTH 600 0
DWIDTH 10 0
BBX 7 16 2 -3
BITMAP
C0
C0
C0
C0
C0
C0
C0
C0
C0
C0
FE
FE
00
00
7C
7C
ENDCHAR
STARTCHAR 1E3B
ENCODING 7739
SWIDTH 600 0
DWIDTH 10 0
BBX 8 17 1 -4
BITMAP
F0
F0
30
30
30
30
30
30
30
30
38
3F
1F
00
00
7C
7C
ENDCHAR
STARTCHAR 1E3C
ENCODING 7740
SWIDTH 600 0
DWIDTH 10 0
BBX 7 16 2 -3
BITMAP
C0
C0
C0
C0
C0
C0
C0
C0
C0
C0
FE
FE
00
38
68
44
ENDCHAR
STARTCHAR 1E3D
ENCODING 7741
SWIDTH 600 0
DWIDTH 10 0
BBX 8 17 1 -4
BITMAP
F0
F0
30
30
30
30
30
30
30
30
38
3F
1F
00
38
3C
66
ENDCHAR
STARTCHAR 1E3E
ENCODING 7742
SWIDTH 600 0
DWIDTH 10 0
BBX 9 15 1 1
BITMAP
0E00
1800
0000
E380
E380
F780
F780
D580
DD80
DD80
DD80
C180
C180
C180
C180
ENDCHAR
STARTCHAR 1E3F
ENCODING 7743
SWIDTH 600 0
DWIDTH 10 0
BBX 9 13 1 -1
BITMAP
0600
0C00
1800
0000
F700
FF80
D980
D980
D980
D980
D980
D980
D980
ENDCHAR
STARTCHAR 1E40
ENCODING 7744
SWIDTH 600 0
DWIDTH 10 0
BBX 9 15 1 0
BITMAP
1800
1800
0000
E780
E780
E780
F780
FD80
DD80
DD80
D980
C180
C180
C180
C180
ENDCHAR
STARTCHAR 1E41
ENCODING 7745
SWIDTH 600 0
DWIDTH 10 0
BBX 9 13 1 -1
BITMAP
1800
1800
0000
0000
F700
FF80
D980
D980
D980
D980
D980
D980
D980
ENDCHAR
STARTCHAR 1E42
ENCODING 7746
SWIDTH 600 0
DWIDTH 10 0
BBX 9 16 1 -3
BITMAP
E780
E780
E780
F580
FD80
DD80
D980
D980
C180
C180
C180
C180
0000
0000
1800
1800
ENDCHAR
STARTCHAR 1E43
ENCODING 7747
SWIDTH 600 0
DWIDTH 10 0
BBX 9 13 1 -3
BITMAP
F700
FF80
D980
D980
D980
D980
D980
D980
D980
0000
0000
1800
1800
ENDCHAR
STARTCHAR 1E44
ENCODING 7748
SWIDTH 600 0
DWIDTH 10 0
BBX 8 15 1 0
BITMAP
18
18
00
E3
E3
F3
F3
D3
DB
DB
CB
CF
C7
C7
C7
ENDCHAR
STARTCHAR 1E45
ENCODING 7749
SWIDTH 600 0
DWIDTH 10 0
BBX 7 13 2 -1
BITMAP
30
30
00
00
DC
FC
CE
CE
CE
CE
CE
CE
CE
ENDCHAR
STARTCHAR 1E46
ENCODING 7750
SWIDTH 600 0
DWIDTH 10 0
BBX 8 16 1 -3
BITMAP
E3
E3
F3
F3
D3
DB
DB
CB
CF
C7
C7
C7
00
00
18
18
ENDCHAR
STARTCHAR 1E47
ENCODING 7751
SWIDTH 600 0
DWIDTH 10 0
BBX 7 13 2 -3
BITMAP
DC
FC
CE
CE
CE
CE
CE
CE
CE
00
00
30
30
ENDCHAR
STARTCHAR 1E48
ENCODING 7752
SWIDTH 600 0
DWIDTH 10 0
BBX 8 16 1 -3
BITMAP
E3
E3
F3
F3
D3
DB
DB
CB
CF
C7
C7
C7
00
00
3E
3E
ENDCHAR
STARTCHAR 1E49
ENCODING 7753
SWIDTH 600 0
DWIDTH 10 0
BBX 7 13 2 -3
BITMAP
DC
FE
CE
C6
C6
C6
C6
C6
C6
00
00
7C
7C
ENDCHAR
STARTCHAR 1E4A
ENCODING 7754
SWIDTH 600 0
DWIDTH 10 0
BBX 8 16 1 -3
BITMAP
E3
E3
F3
F3
D3
DB
DB
CB
CF
C7
C7
C7
00
18
3C
66
ENDCHAR
STARTCHAR 1E4B
ENCODING 7755
SWIDTH 600 0
DWIDTH 10 0
BBX 7 13 2 -3
BITMAP
DC
FE
CE
C6
C6
C6
C6
C6
C6
00
38
68
CC
ENDCHAR
STARTCHAR 1E54
ENCODING 7764
SWIDTH 600 0
DWIDTH 10 0
BBX 7 15 2 0
BITMAP
30
60
00
FC
FE
C6
C6
C6
FE
FC
C0
C0
C0
C0
C0
ENDCHAR
STARTCHAR 1E55
ENCODING 7765
SWIDTH 600 0
DWIDTH 10 0
BBX 8 18 1 -4
BITMAP
06
0C
08
18
00
DC
FE
E7
C3
C3
C3
E7
FE
DC
C0
C0
C0
C0
ENDCHAR
STARTCHAR 1E56
ENCODING 7766
SWIDTH 600 0
DWIDTH 10 0
BBX 7 15 2 -1
BITMAP
30
30
00
FC
FE
C6
C6
C6
FE
FC
C0
C0
C0
C0
C0
ENDCHAR
STARTCHAR 1E57
ENCODING 7767
SWIDTH 600 0
DWIDTH 10 0
BBX 8 17 1 -4
BITMAP
18
18
00
00
DE
FE
E7
C3
C3
C3
E7
FE
DC
C0
C0
C0
C0
ENDCHAR
STARTCHAR 1E58
ENCODING 7768
SWIDTH 600 0
DWIDTH 10 0
BBX 9 15 1 -1
BITMAP
1800
1800
0000
FC00
FF00
C700
C700
C700
FE00
FC00
CE00
C600
C700
C300
C380
ENDCHAR
STARTCHAR 1E59
ENCODING 7769
SWIDTH 600 0
DWIDTH 10 0
BBX 7 13 3 0
BITMAP
60
60
00
00
DE
FE
E2
C0
C0
C0
C0
C0
C0
ENDCHAR
STARTCHAR 1E5A
ENCODING 7770
SWIDTH 600 0
DWIDTH 10 0
BBX 9 16 1 -4
BITMAP
FC00
FF00
C700
C700
C700
FE00
FC00
CE00
C600
C700
C300
C380
0000
0000
1800
1800
ENDCHAR
STARTCHAR 1E5B
ENCODING 7771
SWIDTH 600 0
DWIDTH 10 0
BBX 7 13 3 -3
BITMAP
DE
FE
E2
C0
C0
C0
C0
C0
C0
00
00
60
60
ENDCHAR
STARTCHAR 1E5C
ENCODING 7772
SWIDTH 600 0
DWIDTH 10 0
BBX 9 19 1 -4
BITMAP
7C00
7C00
0000
FC00
FF00
C700
C700
C700
FE00
FC00
CE00
C600
C700
C300
C380
0000
0000
3800
3800
ENDCHAR
STARTCHAR 1E5D
ENCODING 7773
SWIDTH 600 0
DWIDTH 10 0
BBX 7 17 3 -4
BITMAP
F8
F8
00
00
DE
FE
E2
C0
C0
C0
C0
C0
C0
00
00
60
60
ENDCHAR
STARTCHAR 1E5E
ENCODING 7774
SWIDTH 600 0
DWIDTH 10 0
BBX 9 16 1 -4
BITMAP
FC00
FF00
C700
C700
C700
FE00
FC00
CE00
C600
C700
C700
C380
0000
0000
7C00
7C00
ENDCHAR
STARTCHAR 1E5F
ENCODING 7775
SWIDTH 600 0
DWIDTH 10 0
BBX 7 13 3 -3
BITMAP
DE
FE
E2
C0
C0
C0
C0
C0
C0
00
00
F8
F8
ENDCHAR
STARTCHAR 1E60
ENCODING 7776
SWIDTH 600 0
DWIDTH 10 0
BBX 8 15 1 0
BITMAP
18
18
00
3E
FE
E2
C0
F0
7C
1E
07
03
87
FF
7C
ENDCHAR
STARTCHAR 1E61
ENCODING 7777
SWIDTH 600 0
DWIDTH 10 0
BBX 7 13 2 0
BITMAP
30
30
00
00
7C
FC
C0
E0
7C
0E
06
FE
FC
ENDCHAR
STARTCHAR 1E62
ENCODING 7778
SWIDTH 600 0
DWIDTH 10 0
BBX 8 16 1 -4
BITMAP
3E
FE
E2
C0
F0
7C
1E
07
03
87
FF
7C
00
00
18
18
ENDCHAR
STARTCHAR 1E63
ENCODING 7779
SWIDTH 600 0
DWIDTH 10 0
BBX 7 13 2 -4
BITMAP
7C
FC
C0
E0
7C
0E
06
FE
FC
00
00
30
30
ENDCHAR
STARTCHAR 1E68
ENCODING 7784
SWIDTH 600 0
DWIDTH 10 0
BBX 8 19 1 -4
BITMAP
18
18
00
3E
FE
E2
C0
F0
7C
1E
07
03
87
FF
7C
00
00
18
18
ENDCHAR
STARTCHAR 1E69
ENCODING 7785
SWIDTH 600 0
DWIDTH 10 0
BBX 7 17 2 -4
BITMAP
30
30
00
00
7C
FC
C0
E0
7C
0E
06
FE
FC
00
00
30
30
ENDCHAR
STARTCHAR 1E6A
ENCODING 7786
SWIDTH 600 0
DWIDTH 10 0
BBX 8 15 1 -1
BITMAP
18
18
00
FF
FF
18
18
18
18
18
18
18
18
18
18
ENDCHAR
STARTCHAR 1E6B
ENCODING 7787
SWIDTH 600 0
DWIDTH 10 0
BBX 8 15 1 0
BITMAP
18
18
00
38
38
38
FF
FF
38
38
38
38
38
1F
1F
ENDCHAR
STARTCHAR 1E6C
ENCODING 7788
SWIDTH 600 0
DWIDTH 10 0
BBX 8 16 1 -3
BITMAP
FF
FF
18
18
18
18
18
18
18
18
18
18
00
00
18
18
ENDCHAR
STARTCHAR 1E6D
ENCODING 7789
SWIDTH 600 0
DWIDTH 10 0
BBX 8 16 1 -4
BITMAP
38
38
38
FF
FF
38
38
38
38
38
1F
1F
00
00
18
18
ENDCHAR
STARTCHAR 1E6E
ENCODING 7790
SWIDTH 600 0
DWIDTH 10 0
BBX 8 16 1 -3
BITMAP
FF
FF
18
18
18
18
18
18
18
18
18
18
00
00
7E
7E
ENDCHAR
STARTCHAR 1E6F
ENCODING 7791
SWIDTH 600 0
DWIDTH 10 0
BBX 8 16 1 -4
BITMAP
18
18
18
FF
FF
18
18
18
18
18
1F
0F
00
00
3E
3E
ENDCHAR
STARTCHAR 1E70
ENCODING 7792
SWIDTH 600 0
DWIDTH 10 0
BBX 8 16 1 -3
BITMAP
FF
FF
18
18
18
18
18
18
18
18
18
18
00
18
3C
66
ENDCHAR
STARTCHAR 1E71
ENCODING 7793
SWIDTH 600 0
DWIDTH 10 0
BBX 8 16 1 -4
BITMAP
38
38
38
FF
FF
38
38
38
38
38
1F
1F
00
1C
3C
66
ENDCHAR
STARTCHAR 1E72
ENCODING 7794
SWIDTH 600 0
DWIDTH 10 0
BBX 8 16 1 -3
BITMAP
C3
C3
C3
C3
C3
C3
C3
C3
C3
E7
FF
7E
00
00
66
66
ENDCHAR
STARTCHAR 1E73
ENCODING 7795
SWIDTH 600 0
DWIDTH 10 0
BBX 7 13 1 -3
BITMAP
C6
C6
C6
C6
C6
C6
E6
FE
76
00
00
6C
6C
ENDCHAR
STARTCHAR 1E74
ENCODING 7796
SWIDTH 600 0
DWIDTH 10 0
BBX 8 16 1 -3
BITMAP
C3
C3
C3
C3
C3
C3
C3
C3
C3
E7
FF
7E
00
00
72
4C
ENDCHAR
STARTCHAR 1E75
ENCODING 7797
SWIDTH 600 0
DWIDTH 10 0
BBX 7 13 1 -3
BITMAP
C6
C6
C6
C6
C6
C6
E6
FE
76
00
00
74
4C
ENDCHAR
STARTCHAR 1E76
ENCODING 7798
SWIDTH 600 0
DWIDTH 10 0
BBX 8 16 1 -3
BITMAP
C3
C3
C3
C3
C3
C3
C3
C3
C3
E7
FF
7E
00
18
3C
66
ENDCHAR
STARTCHAR 1E77
ENCODING 7799
SWIDTH 600 0
DWIDTH 10 0
BBX 7 13 1 -3
BITMAP
C6
C6
C6
C6
C6
C6
E6
FE
76
00
38
2C
44
ENDCHAR
STARTCHAR 1E7C
ENCODING 7804
SWIDTH 600 0
DWIDTH 10 0
BBX 10 15 0 0
BITMAP
3900
2600
0000
E1C0
6180
6180
7380
7380
3300
3300
3300
3F00
1E00
1E00
1E00
ENDCHAR
STARTCHAR 1E7D
ENCODING 7805
SWIDTH 600 0
DWIDTH 10 0
BBX 8 12 1 0
BITMAP
72
4E
00
C3
C3
E7
67
66
66
3E
3C
3C
ENDCHAR
STARTCHAR 1E7E
ENCODING 7806
SWIDTH 600 0
DWIDTH 10 0
BBX 8 16 1 -4
BITMAP
C3
C3
C3
E7
67
66
66
66
3E
3C
3C
3C
00
00
18
18
ENDCHAR
STARTCHAR 1E7F
ENCODING 7807
SWIDTH 600 0
DWIDTH 10 0
BBX 8 13 1 -4
BITMAP
C3
C3
E7
66
66
7E
3C
3C
3C
00
00
18
18
ENDCHAR
STARTCHAR 1E80
ENCODING 7808
SWIDTH 600 0
DWIDTH 10 0
BBX 10 16 0 0
BITMAP
3800
1800
0C00
0000
C0C0
C0C0
C0C0
CCC0
6CC0
6F80
7F80
7F80
7380
7380
7380
7380
ENDCHAR
STARTCHAR 1E81
ENCODING 7809
SWIDTH 600 0
DWIDTH 10 0
BBX 10 13 0 1
BITMAP
3000
1800
0C00
0000
C0C0
C0C0
CCC0
6D80
6D80
7F80
7B80
7380
3300
ENDCHAR
STARTCHAR 1E82
ENCODING 7810
SWIDTH 600 0
DWIDTH 10 0
BBX 10 16 0 0
BITMAP
0700
0600
0C00
0000
C0C0
C0C0
C0C0
CCC0
6CC0
6F80
7F80
7F80
7380
7380
7380
7380
ENDCHAR
STARTCHAR 1E83
ENCODING 7811
SWIDTH 600 0
DWIDTH 10 0
BBX 10 13 0 1
BITMAP
0300
0600
0C00
0000
C0C0
C0C0
CCC0
6D80
6D80
7F80
7B80
7380
3300
ENDCHAR
STARTCHAR 1E84
ENCODING 7812
SWIDTH 600 0
DWIDTH 10 0
BBX 9 15 0 1
BITMAP
3600
3600
0000
C180
C180
C180
CD80
DD80
DD80
D580
5580
7700
7700
7300
6300
ENDCHAR
STARTCHAR 1E85
ENCODING 7813
SWIDTH 600 0
DWIDTH 10 0
BBX 9 12 0 0
BITMAP
3600
3600
0000
C180
C180
C980
DD80
D580
5500
7700
7700
7700
ENDCHAR
STARTCHAR 1E86
ENCODING 7814
SWIDTH 600 0
DWIDTH 10 0
BBX 10 15 0 0
BITMAP
0C00
0C00
0000
C0C0
C0C0
C0C0
CCC0
6D80
6D80
7F80
7F80
7380
7380
7380
7380
ENDCHAR
STARTCHAR 1E87
ENCODING 7815
SWIDTH 600 0
DWIDTH 10 0
BBX 10 13 0 0
BITMAP
0C00
0C00
0000
0000
C0C0
C0C0
4CC0
6D80
6D80
7F80
7B80
7380
3300
ENDCHAR
STARTCHAR 1E88
ENCODING 7816
SWIDTH 600 0
DWIDTH 10 0
BBX 10 16 0 -3
BITMAP
C0C0
C0C0
C0C0
CCC0
6D80
6D80
7F80
7F80
7380
7380
7380
7380
0000
0000
0C00
0C00
ENDCHAR
STARTCHAR 1E89
ENCODING 7817
SWIDTH 600 0
DWIDTH 10 0
BBX 10 13 0 -3
BITMAP
C0C0
C0C0
4CC0
6D80
6D80
7F80
7B80
7380
3300
0000
0000
0C00
0C00
ENDCHAR
STARTCHAR 1E8A
ENCODING 7818
SWIDTH 600 0
DWIDTH 10 0
BBX 8 15 1 0
BITMAP
18
18
00
C3
E7
66
7E
3C
18
3C
3C
7E
66
E7
C3
ENDCHAR
STARTCHAR 1E8B
ENCODING 7819
SWIDTH 600 0
DWIDTH 10 0
BBX 8 13 1 0
BITMAP
18
18
00
00
E7
66
3C
3C
18
3C
7E
66
E7
ENDCHAR
STARTCHAR 1E8C
ENCODING 7820
SWIDTH 600 0
DWIDTH 10 0
BBX 9 15 0 0
BITMAP
3600
3600
0000
E380
6300
7700
3600
1C00
1C00
1C00
3E00
3600
7700
6300
E380
ENDCHAR
STARTCHAR 1E8D
ENCODING 7821
SWIDTH 600 0
DWIDTH 10 0
BBX 9 12 0 0
BITMAP
3600
3600
0000
6300
3700
3600
1C00
1C00
1E00
3600
7700
E380
ENDCHAR
STARTCHAR 1E8E
ENCODING 7822
SWIDTH 600 0
DWIDTH 10 0
BBX 10 15 0 -1
BITMAP
0C00
0C00
0000
E1C0
6180
7380
3300
3F00
1E00
1E00
0C00
0C00
0C00
0C00
0C00
ENDCHAR
STARTCHAR 1E8F
ENCODING 7823
SWIDTH 600 0
DWIDTH 10 0
BBX 8 17 1 -4
BITMAP
18
18
00
00
C3
C3
E7
66
66
3E
3C
3C
18
18
38
F0
E0
ENDCHAR
STARTCHAR 1E90
ENCODING 7824
SWIDTH 600 0
DWIDTH 10 0
BBX 9 15 1 1
BITMAP
3C00
6200
0000
FF00
FF00
0700
0E00
0C00
1C00
3800
3000
7000
E000
FF80
FF80
ENDCHAR
STARTCHAR 1E91
ENCODING 7825
SWIDTH 600 0
DWIDTH 10 0
BBX 7 13 2 1
BITMAP
38
6C
C4
00
FE
FE
0C
1C
38
70
E0
FE
FE
ENDCHAR
STARTCHAR 1E92
ENCODING 7826
SWIDTH 600 0
DWIDTH 10 0
BBX 9 16 1 -3
BITMAP
FF00
FF00
0700
0E00
0C00
1C00
3800
3000
7000
E000
FF80
FF80
0000
0000
1800
1800
ENDCHAR
STARTCHAR 1E93
ENCODING 7827
SWIDTH 600 0
DWIDTH 10 0
BBX 7 13 2 -4
BITMAP
FE
FE
0C
1C
38
70
E0
FE
FE
00
00
30
30
ENDCHAR
STARTCHAR 1E94
ENCODING 7828
SWIDTH 600 0
DWIDTH 10 0
BBX 9 16 1 -3
BITMAP
FF00
FF00
0700
0600
0E00
1C00
1800
3800
7000
E000
FF80
FF80
0000
0000
3E00
3E00
ENDCHAR
STARTCHAR 1E95
ENCODING 7829
SWIDTH 600 0
DWIDTH 10 0
BBX 7 13 2 -4
BITMAP
FE
FE
0E
1C
38
70
E0
FE
FE
00
00
7C
7C
ENDCHAR
STARTCHAR 1E96
ENCODING 7830
SWIDTH 600 0
DWIDTH 10 0
BBX 7 17 2 -4
BITMAP
C0
C0
C0
C0
DC
FE
CE
C6
C6
C6
C6
C6
C6
00
00
7C
7C
ENDCHAR
STARTCHAR 1E97
ENCODING 7831
SWIDTH 600 0
DWIDTH 10 0
BBX 8 15 1 0
BITMAP
6C
6C
00
18
18
18
FF
FF
18
18
18
18
18
1F
0F
ENDCHAR
STARTCHAR 1E98
ENCODING 7832
SWIDTH 600 0
DWIDTH 10 0
BBX 10 15 0 0
BITMAP
0C00
1200
1200
1200
0C00
0000
C0C0
C0C0
6D80
6D80
6D80
7F80
7F80
3380
3300
ENDCHAR
STARTCHAR 1E99
ENCODING 7833
SWIDTH 600 0
DWIDTH 10 0
BBX 8 19 1 -4
BITMAP
18
24
24
24
18
00
C3
C7
E7
66
6E
3C
3C
3C
18
18
38
F0
E0
ENDCHAR
STARTCHAR 1E9B
ENCODING 7835
SWIDTH 600 0
DWIDTH 10 0
BBX 8 15 1 0
BITMAP
18
18
0F
1F
18
18
F8
F8
18
18
18
18
18
18
18
ENDCHAR
STARTCHAR 1E9F
ENCODING 7839
SWIDTH 600 0
DWIDTH 10 0
BBX 8 13 1 0
BITMAP
1C
7E
60
60
3C
7E
E7
C3
C3
C3
E7
7E
3C
ENDCHAR
STARTCHAR 1EA0
ENCODING 7840
SWIDTH 600 0
DWIDTH 10 0
BBX 10 16 0 -3
BITMAP
1E00
1E00
1E00
1E00
3300
3300
3300
3F00
7F80
6180
6180
E1C0
0000
0000
0C00
0C00
ENDCHAR
STARTCHAR 1EA1
ENCODING 7841
SWIDTH 600 0
DWIDTH 10 0
BBX 8 13 1 -4
BITMAP
7E
7F
03
7F
FF
E3
E3
FF
7B
00
00
18
18
ENDCHAR
STARTCHAR 1EAC
ENCODING 7852
SWIDTH 600 0
DWIDTH 10 0
BBX 10 20 0 -4
BITMAP
0C00
1E00
3300
0000
1E00
1E00
1E00
1E00
3300
3300
3300
3F00
7F80
6180
6180
E1C0
0000
0000
0C00
0C00
ENDCHAR
STARTCHAR 1EAD
ENCODING 7853
SWIDTH 600 0
DWIDTH 10 0
BBX 8 17 1 -3
BITMAP
18
3C
66
00
7E
7F
03
7F
FF
E3
E3
FF
7B
00
00
18
18
ENDCHAR
STARTCHAR 1EB0
ENCODING 7856
SWIDTH 600 0
DWIDTH 10 0
BBX 10 16 0 1
BITMAP
1800
0400
1300
1E00
1E00
1E00
1E00
1E00
3300
3300
3300
7F80
7F80
6180
6180
E1C0
ENDCHAR
STARTCHAR 1EB1
ENCODING 7857
SWIDTH 600 0
DWIDTH 10 0
BBX 8 16 1 -1
BITMAP
70
30
18
22
3C
00
00
7E
7F
03
7F
FF
E3
E3
FF
7B
ENDCHAR
STARTCHAR 1EB6
ENCODING 7862
SWIDTH 600 0
DWIDTH 10 0
BBX 10 19 0 -3
BITMAP
1300
1E00
0000
1E00
1E00
1E00
1E00
3300
3300
3300
7F00
7F80
6180
6180
E1C0
0000
0000
0C00
0C00
ENDCHAR
STARTCHAR 1EB7
ENCODING 7863
SWIDTH 600 0
DWIDTH 10 0
BBX 8 17 1 -4
BITMAP
22
26
3C
00
7E
7F
03
3F
FF
E3
E3
FF
7B
00
00
18
18
ENDCHAR
STARTCHAR 1EB8
ENCODING 7864
SWIDTH 600 0
DWIDTH 10 0
BBX 7 16 2 -3
BITMAP
FE
FE
C0
C0
C0
FE
FE
C0
C0
C0
FE
FE
00
00
30
30
ENDCHAR
STARTCHAR 1EB9
ENCODING 7865
SWIDTH 600 0
DWIDTH 10 0
BBX 8 13 1 -4
BITMAP
3C
7F
E3
FF
FF
C0
E1
7F
3E
00
00
18
18
ENDCHAR
STARTCHAR 1EBC
ENCODING 7868
SWIDTH 600 0
DWIDTH 10 0
BBX 7 15 2 0
BITMAP
74
5C
00
FE
FE
C0
C0
C0
FE
FE
C0
C0
C0
FE
FE
ENDCHAR
STARTCHAR 1EBD
ENCODING 7869
SWIDTH 600 0
DWIDTH 10 0
BBX 8 13 1 0
BITMAP
32
5A
4C
00
3C
7F
C3
FF
FF
C0
E1
7F
3E
ENDCHAR
STARTCHAR 1EC6
ENCODING 7878
SWIDTH 600 0
DWIDTH 10 0
BBX 7 19 2 -3
BITMAP
78
C4
00
FE
FE
C0
C0
C0
FE
FE
C0
C0
C0
FE
FE
00
00
30
30
ENDCHAR
STARTCHAR 1EC7
ENCODING 7879
SWIDTH 600 0
DWIDTH 10 0
BBX 8 17 1 -3
BITMAP
18
3C
26
00
3C
7F
E3
FF
FF
C0
E1
7F
3E
00
00
18
18
ENDCHAR
STARTCHAR 1ECA
ENCODING 7882
SWIDTH 600 0
DWIDTH 10 0
BBX 8 16 1 -3
BITMAP
FF
FF
18
18
18
18
18
18
18
18
FF
FF
00
00
18
18
ENDCHAR
STARTCHAR 1ECB
ENCODING 7883
SWIDTH 600 0
DWIDTH 10 0
BBX 8 18 1 -4
BITMAP
18
18
18
00
00
78
78
18
18
18
18
18
FF
FF
00
00
18
18
ENDCHAR
STARTCHAR 1ECC
ENCODING 7884
SWIDTH 600 0
DWIDTH 10 0
BBX 9 16 0 -3
BITMAP
3E00
7F00
7300
6380
6380
E180
6180
6380
6380
7380
3F00
3E00
0000
0000
0C00
0C00
ENDCHAR
STARTCHAR 1ECD
ENCODING 7885
SWIDTH 600 0
DWIDTH 10 0
BBX 8 13 1 -4
BITMAP
3C
7E
E7
C3
C3
C3
E7
7E
3C
00
00
18
18
ENDCHAR
STARTCHAR 1ED8
ENCODING 7896
SWIDTH 600 0
DWIDTH 10 0
BBX 9 19 0 -3
BITMAP
1E00
3300
0000
3E00
7F00
7300
6380
6380
E180
6180
6380
6380
7380
3F00
3E00
0000
0000
0C00
0C00
ENDCHAR
STARTCHAR 1ED9
ENCODING 7897
SWIDTH 600 0
DWIDTH 10 0
BBX 8 17 1 -3
BITMAP
18
3C
66
00
3C
7E
E7
C3
C3
C3
E7
7E
3C
00
00
18
18
ENDCHAR
STARTCHAR 1EDA
ENCODING 7898
SWIDTH 600 0
DWIDTH 10 0
BBX 10 15 0 0
BITMAP
0C00
1800
0000
3C40
7E40
67C0
E300
E300
E300
E300
E300
E300
E700
7E00
3E00
ENDCHAR
STARTCHAR 1EDB
ENCODING 7899
SWIDTH 600 0
DWIDTH 10 0
BBX 10 14 0 0
BITMAP
0600
0E00
0C00
1800
0000
3C40
7E40
E7C0
E300
C300
C300
E700
7F00
3C00
ENDCHAR
STARTCHAR 1EDC
ENCODING 7900
SWIDTH 600 0
DWIDTH 10 0
BBX 10 15 0 0
BITMAP
3000
1800
0000
3C40
7E40
67C0
E300
E300
E300
E300
E300
E300
E700
7E00
3E00
ENDCHAR
STARTCHAR 1EDD
ENCODING 7901
SWIDTH 600 0
DWIDTH 10 0
BBX 10 14 0 0
BITMAP
6000
3000
3000
1800
0000
3C40
7E40
E7C0
E300
C300
C300
E700
7F00
3C00
ENDCHAR
STARTCHAR 1EE0
ENCODING 7904
SWIDTH 600 0
DWIDTH 10 0
BBX 10 15 0 0
BITMAP
3200
4E00
0000
3C40
7E40
67C0
E300
E300
E300
E300
E300
E300
E700
7E00
3E00
ENDCHAR
STARTCHAR 1EE1
ENCODING 7905
SWIDTH 600 0
DWIDTH 10 0
BBX 10 13 0 0
BITMAP
3200
6E00
0000
0000
3C40
7E40
E7C0
E300
C300
C300
E700
7F00
3C00
ENDCHAR
STARTCHAR 1EE2
ENCODING 7906
SWIDTH 600 0
DWIDTH 10 0
BBX 10 16 0 -3
BITMAP
3C40
7E40
67C0
E300
E300
E300
E300
E300
E300
E700
7E00
3E00
0000
0000
1800
1800
ENDCHAR
STARTCHAR 1EE3
ENCODING 7907
SWIDTH 600 0
DWIDTH 10 0
BBX 10 13 0 -3
BITMAP
3C40
7E40
E7C0
E300
C300
C300
E700
7F00
3C00
0000
0000
1800
1800
ENDCHAR
STARTCHAR 1EE4
ENCODING 7908
SWIDTH 600 0
DWIDTH 10 0
BBX 8 16 1 -3
BITMAP
C3
C3
C3
C3
C3
C3
C3
C3
C3
E7
FF
7E
00
00
18
18
ENDCHAR
STARTCHAR 1EE5
ENCODING 7909
SWIDTH 600 0
DWIDTH 10 0
BBX 7 13 1 -3
BITMAP
C6
C6
C6
C6
C6
C6
E6
FE
76
00
00
18
18
ENDCHAR
STARTCHAR 1EE8
ENCODING 7912
SWIDTH 600 0
DWIDTH 10 0
BBX 10 16 0 -1
BITMAP
0C00
1800
1800
0000
C340
C340
C3C0
C300
C300
C300
C300
C300
C300
E700
7E00
7E00
ENDCHAR
STARTCHAR 1EE9
ENCODING 7913
SWIDTH 600 0
DWIDTH 10 0
BBX 10 13 0 0
BITMAP
0C00
1800
1000
0000
C640
C640
C7C0
C600
C600
CE00
EE00
FE00
7600
ENDCHAR
STARTCHAR 1EEA
ENCODING 7914
SWIDTH 600 0
DWIDTH 10 0
BBX 10 16 0 -1
BITMAP
6000
3000
1800
0000
C340
C340
C3C0
C300
C300
C300
C300
C300
C300
E700
7E00
7E00
ENDCHAR
STARTCHAR 1EEB
ENCODING 7915
SWIDTH 600 0
DWIDTH 10 0
BBX 10 14 0 -1
BITMAP
E000
6000
3000
1000
0000
C640
C640
C7C0
C600
C600
CE00
EE00
FE00
7600
ENDCHAR
STARTCHAR 1EEE
ENCODING 7918
SWIDTH 600 0
DWIDTH 10 0
BBX 10 15 0 0
BITMAP
7200
4E00
0000
C340
C340
C3C0
C300
C300
C300
C300
C300
C300
E700
7E00
7E00
ENDCHAR
STARTCHAR 1EEF
ENCODING 7919
SWIDTH 600 0
DWIDTH 10 0
BBX 10 13 0 -1
BITMAP
7400
5C00
0000
0000
C640
C640
C7C0
C600
C600
CE00
EE00
FE00
7600
ENDCHAR
STARTCHAR 1EF0
ENCODING 7920
SWIDTH 600 0
DWIDTH 10 0
BBX 10 16 0 -3
BITMAP
C340
C340
C3C0
C300
C300
C300
C300
C300
C300
E700
7E00
7E00
0000
0000
1800
1800
ENDCHAR
STARTCHAR 1EF1
ENCODING 7921
SWIDTH 600 0
DWIDTH 10 0
BBX 10 13 0 -3
BITMAP
C640
C640
C7C0
C600
C600
CE00
EE00
FE00
7600
0000
0000
1800
1800
ENDCHAR
STARTCHAR 1EF2
ENCODING 7922
SWIDTH 600 0
DWIDTH 10 0
BBX 10 16 0 0
BITMAP
3800
1800
0C00
0000
E1C0
6180
7380
3300
3F00
1E00
1E00
0C00
0C00
0C00
0C00
0C00
ENDCHAR
STARTCHAR 1EF3
ENCODING 7923
SWIDTH 600 0
DWIDTH 10 0
BBX 9 17 1 -3
BITMAP
6000
3000
1000
0000
C380
C300
E700
6600
6600
3E00
3C00
3C00
1C00
1800
3800
F000
E000
ENDCHAR
STARTCHAR 1EF4
ENCODING 7924
SWIDTH 600 0
DWIDTH 10 0
BBX 10 16 0 -4
BITMAP
E1C0
6180
7380
3300
3F00
1E00
1E00
0C00
0C00
0C00
0C00
0C00
0000
0000
0C00
0C00
ENDCHAR
STARTCHAR 1EF5
ENCODING 7925
SWIDTH 600 0
DWIDTH 10 0
BBX 9 13 0 -4
BITMAP
E180
6380
6300
7300
3700
3E00
1E00
1C00
1C00
1C00
1800
7B00
7300
ENDCHAR
STARTCHAR 1EF8
ENCODING 7928
SWIDTH 600 0
DWIDTH 10 0
BBX 10 15 0 0
BITMAP
3900
2600
0000
E1C0
6180
7380
3300
3F00
1E00
1E00
0C00
0C00
0C00
0C00
0C00
ENDCHAR
STARTCHAR 1EF9
ENCODING 7929
SWIDTH 600 0
DWIDTH 10 0
BBX 10 17 0 -4
BITMAP
1900
2D00
2600
0000
E1C0
6180
7380
3300
3300
3F00
1E00
1E00
0E00
0C00
1C00
7800
7000
ENDCHAR
STARTCHAR 1F00
ENCODING 7936
SWIDTH 600 0
DWIDTH 10 0
BBX 9 13 1 0
BITMAP
1C00
0400
1800
0000
3D80
7F80
E700
C700
C700
C700
E700
FF80
7D80
ENDCHAR
STARTCHAR 1F01
ENCODING 7937
SWIDTH 600 0
DWIDTH 10 0
BBX 9 13 1 0
BITMAP
1C00
1000
0C00
0000
3F00
FF00
EF00
C700
C600
C600
EE00
FF80
7B80
ENDCHAR
STARTCHAR 1F02
ENCODING 7938
SWIDTH 600 0
DWIDTH 10 0
BBX 9 13 1 0
BITMAP
6C00
2600
6300
0000
3F80
FF00
EF00
C700
C600
C600
EF00
FF80
7B80
ENDCHAR
STARTCHAR 1F03
ENCODING 7939
SWIDTH 600 0
DWIDTH 10 0
BBX 9 13 1 0
BITMAP
EC00
4600
6300
0000
3F80
FF00
E700
C700
C600
C600
EF00
FF80
7B80
ENDCHAR
STARTCHAR 1F04
ENCODING 7940
SWIDTH 600 0
DWIDTH 10 0
BBX 9 13 1 0
BITMAP
7300
1600
6C00
0000
3F80
FF00
E700
C700
C600
C600
EF00
FF80
7B80
ENDCHAR
STARTCHAR 1F05
ENCODING 7941
SWIDTH 600 0
DWIDTH 10 0
BBX 9 13 1 0
BITMAP
7300
4600
3C00
0000
3F80
FF00
EF00
C700
C600
C600
EE00
FF80
7B80
ENDCHAR
STARTCHAR 1F06
ENCODING 7942
SWIDTH 600 0
DWIDTH 10 0
BBX 9 16 1 0
BITMAP
3A00
2600
0000
1C00
0400
1800
0000
3F00
7F00
E700
C600
C600
C600
E600
7F80
3F80
ENDCHAR
STARTCHAR 1F07
ENCODING 7943
SWIDTH 600 0
DWIDTH 10 0
BBX 9 16 1 0
BITMAP
3A00
2E00
0000
1C00
1000
0C00
0000
3F00
FF00
EF00
C600
C600
C600
EE00
7F80
3B80
ENDCHAR
STARTCHAR 1F08
ENCODING 7944
SWIDTH 600 0
DWIDTH 10 0
BBX 10 13 0 0
BITMAP
E000
2E00
DE00
1E00
1B00
1B00
3B00
3380
3F80
7F80
7180
61C0
61C0
ENDCHAR
STARTCHAR 1F09
ENCODING 7945
SWIDTH 600 0
DWIDTH 10 0
BBX 10 13 0 1
BITMAP
C000
8E00
DE00
1E00
1B00
3B00
3300
3300
3F80
7F80
6180
6180
61C0
ENDCHAR
STARTCHAR 1F0A
ENCODING 7946
SWIDTH 600 0
DWIDTH 10 0
BBX 15 13 -5 0
BITMAP
EC00
2670
C3F0
00D8
00D8
00D8
01D8
019C
01FC
01FC
038C
030E
0306
ENDCHAR
STARTCHAR 1F0B
ENCODING 7947
SWIDTH 600 0
DWIDTH 10 0
BBX 15 13 -5 1
BITMAP
EC00
86F0
E2F0
00F0
00F0
0198
0198
0198
03FC
03FC
030C
030C
070E
ENDCHAR
STARTCHAR 1F0C
ENCODING 7948
SWIDTH 600 0
DWIDTH 10 0
BBX 12 13 -3 0
BITMAP
CC00
5B80
F3C0
03C0
06C0
06E0
0660
0E60
0FE0
0FF0
0C30
1C30
1C30
ENDCHAR
STARTCHAR 1F0D
ENCODING 7949
SWIDTH 600 0
DWIDTH 10 0
BBX 13 13 -4 1
BITMAP
E600
8DC0
79E0
01E0
0360
0360
0330
0730
07F0
07F8
0638
0E18
0E18
ENDCHAR
STARTCHAR 1F0E
ENCODING 7950
SWIDTH 600 0
DWIDTH 10 0
BBX 10 16 -1 0
BITMAP
E800
9800
0000
7000
1F00
6F00
0F00
0F00
1B80
1980
1980
1F80
3FC0
30C0
30C0
30C0
ENDCHAR
STARTCHAR 1F0F
ENCODING 7951
SWIDTH 600 0
DWIDTH 10 0
BBX 12 16 -2 0
BITMAP
F400
9C00
0000
3000
2780
3780
0780
07C0
0EC0
0CC0
0CC0
0FE0
1FE0
1860
1860
1870
ENDCHAR
STARTCHAR 1F10
ENCODING 7952
SWIDTH 600 0
DWIDTH 10 0
BBX 7 13 1 0
BITMAP
18
08
18
00
7E
FE
C0
78
78
E0
C0
FE
7E
ENDCHAR
STARTCHAR 1F11
ENCODING 7953
SWIDTH 600 0
DWIDTH 10 0
BBX 7 13 1 0
BITMAP
18
10
1C
00
7E
FE
C0
7C
7C
E0
C0
FE
7E
ENDCHAR
STARTCHAR 1F12
ENCODING 7954
SWIDTH 600 0
DWIDTH 10 0
BBX 7 13 1 0
BITMAP
EC
24
C2
00
7E
FE
C0
78
78
E0
C0
FE
3E
ENDCHAR
STARTCHAR 1F13
ENCODING 7955
SWIDTH 600 0
DWIDTH 10 0
BBX 7 13 1 0
BITMAP
D8
8C
C6
00
7E
FE
C0
78
78
C0
C0
FE
7E
ENDCHAR
STARTCHAR 1F14
ENCODING 7956
SWIDTH 600 0
DWIDTH 10 0
BBX 7 13 1 0
BITMAP
66
2C
78
00
7E
FE
C0
78
78
C0
C0
FE
7E
ENDCHAR
STARTCHAR 1F15
ENCODING 7957
SWIDTH 600 0
DWIDTH 10 0
BBX 7 13 1 0
BITMAP
E6
CC
68
00
7E
FE
C0
78
78
C0
C0
FE
7E
ENDCHAR
STARTCHAR 1F18
ENCODING 7960
SWIDTH 600 0
DWIDTH 10 0
BBX 11 13 -2 0
BITMAP
E000
2FE0
CFE0
0C00
0C00
0C00
0FE0
0FE0
0C00
0C00
0C00
0FE0
0FE0
ENDCHAR
STARTCHAR 1F19
ENCODING 7961
SWIDTH 600 0
DWIDTH 10 0
BBX 11 13 -2 1
BITMAP
E000
8FE0
6FE0
0C00
0C00
0C00
0FE0
0FE0
0C00
0C00
0C00
0FE0
0FE0
ENDCHAR
STARTCHAR 1F1A
ENCODING 7962
SWIDTH 600 0
DWIDTH 10 0
BBX 16 13 -7 0
BITMAP
EC00
267F
C37F
0060
0060
0060
007F
007F
0060
0060
0060
007F
007F
ENDCHAR
STARTCHAR 1F1B
ENCODING 7963
SWIDTH 600 0
DWIDTH 10 0
BBX 16 13 -7 1
BITMAP
EC00
86FF
62FF
00C0
00C0
00C0
00FE
00FE
00C0
00C0
00C0
00FF
00FF
ENDCHAR
STARTCHAR 1F1C
ENCODING 7964
SWIDTH 600 0
DWIDTH 10 0
BBX 14 13 -5 0
BITMAP
CC00
5BFC
F3FC
0300
0300
0300
03F8
03F8
0300
0300
0300
03FC
03FC
ENDCHAR
STARTCHAR 1F1D
ENCODING 7965
SWIDTH 600 0
DWIDTH 10 0
BBX 15 13 -6 1
BITMAP
E600
8DFE
79FE
0180
0180
0180
01FC
01FC
0180
0180
0180
01FE
01FE
ENDCHAR
STARTCHAR 1F20
ENCODING 7968
SWIDTH 600 0
DWIDTH 10 0
BBX 7 17 2 -3
BITMAP
30
10
30
00
DC
FE
CE
C6
C6
C6
C6
C6
C6
06
06
06
06
ENDCHAR
STARTCHAR 1F21
ENCODING 7969
SWIDTH 600 0
DWIDTH 10 0
BBX 7 17 2 -3
BITMAP
38
20
18
00
DC
FE
CE
C6
C6
C6
C6
C6
C6
06
06
06
06
ENDCHAR
STARTCHAR 1F22
ENCODING 7970
SWIDTH 600 0
DWIDTH 10 0
BBX 8 17 1 -3
BITMAP
EC
26
C3
00
6E
7F
67
63
63
63
63
63
63
03
03
03
03
ENDCHAR
STARTCHAR 1F23
ENCODING 7971
SWIDTH 600 0
DWIDTH 10 0
BBX 7 17 1 -3
BITMAP
DC
8C
C2
00
DC
FE
E6
C6
C6
C6
C6
C6
C6
06
06
06
06
ENDCHAR
STARTCHAR 1F24
ENCODING 7972
SWIDTH 600 0
DWIDTH 10 0
BBX 7 17 2 -3
BITMAP
E6
2C
D8
00
DC
FE
CE
C6
C6
C6
C6
C6
C6
06
06
06
06
ENDCHAR
STARTCHAR 1F25
ENCODING 7973
SWIDTH 600 0
DWIDTH 10 0
BBX 7 17 2 -3
BITMAP
E6
8C
F8
00
DC
FE
CE
C6
C6
C6
C6
C6
C6
06
06
06
06
ENDCHAR
STARTCHAR 1F26
ENCODING 7974
SWIDTH 600 0
DWIDTH 10 0
BBX 7 20 2 -3
BITMAP
64
9C
00
30
10
30
00
DC
FE
CE
C6
C6
C6
C6
C6
C6
06
06
06
06
ENDCHAR
STARTCHAR 1F27
ENCODING 7975
SWIDTH 600 0
DWIDTH 10 0
BBX 7 20 2 -3
BITMAP
74
DC
00
38
20
38
00
DC
FE
CE
C6
C6
C6
C6
C6
C6
06
06
06
06
ENDCHAR
STARTCHAR 1F28
ENCODING 7976
SWIDTH 600 0
DWIDTH 10 0
BBX 11 13 -2 0
BITMAP
C000
5860
D860
1860
1860
1860
1FE0
1FE0
1860
1860
1860
1860
1860
ENDCHAR
STARTCHAR 1F29
ENCODING 7977
SWIDTH 600 0
DWIDTH 10 0
BBX 11 13 -2 1
BITMAP
C000
8C60
CC60
0C60
0C60
0C60
0FE0
0FE0
0C60
0C60
0C60
0C60
0C60
ENDCHAR
STARTCHAR 1F2A
ENCODING 7978
SWIDTH 600 0
DWIDTH 10 0
BBX 15 13 -7 0
BITMAP
D800
4CC6
C6C6
00C6
00C6
00C6
00FE
00FE
00C6
00C6
00C6
00C6
00C6
ENDCHAR
STARTCHAR 1F2B
ENCODING 7979
SWIDTH 600 0
DWIDTH 10 0
BBX 16 13 -7 1
BITMAP
CC00
86C3
C2C3
00C3
00C3
00C3
00FF
00FF
00C3
00C3
00C3
00C3
00C3
ENDCHAR
STARTCHAR 1F2C
ENCODING 7980
SWIDTH 600 0
DWIDTH 10 0
BBX 15 13 -6 0
BITMAP
E600
2CC6
D8C6
00C6
00C6
00C6
00FE
00FE
00C6
00C6
00C6
00C6
00C6
ENDCHAR
STARTCHAR 1F2D
ENCODING 7981
SWIDTH 600 0
DWIDTH 10 0
BBX 15 13 -6 1
BITMAP
C600
8D86
F986
0186
0186
0186
01FE
01FE
0186
0186
0186
0186
0186
ENDCHAR
STARTCHAR 1F2E
ENCODING 7982
SWIDTH 600 0
DWIDTH 10 0
BBX 13 16 -4 0
BITMAP
E400
9800
0000
7000
1618
7618
0618
0618
0618
07F8
07F8
0618
0618
0618
0618
0618
ENDCHAR
STARTCHAR 1F2F
ENCODING 7983
SWIDTH 600 0
DWIDTH 10 0
BBX 13 16 -4 0
BITMAP
F400
9800
0000
3000
2618
3618
0618
0618
0618
07F8
07F8
0618
0618
0618
0618
0618
ENDCHAR
STARTCHAR 1F30
ENCODING 7984
SWIDTH 600 0
DWIDTH 10 0
BBX 6 13 2 1
BITMAP
30
10
30
00
F0
F0
30
30
30
30
30
3C
1C
ENDCHAR
STARTCHAR 1F31
ENCODING 7985
SWIDTH 600 0
DWIDTH 10 0
BBX 6 13 2 1
BITMAP
30
20
38
00
F0
F0
30
30
30
30
30
3C
1C
ENDCHAR
STARTCHAR 1F32
ENCODING 7986
SWIDTH 600 0
DWIDTH 10 0
BBX 8 13 1 1
BITMAP
EC
26
C3
00
78
78
18
18
18
18
18
1E
0E
ENDCHAR
STARTCHAR 1F33
ENCODING 7987
SWIDTH 600 0
DWIDTH 10 0
BBX 8 13 1 1
BITMAP
EC
86
63
00
78
78
18
18
18
18
18
1E
0E
ENDCHAR
STARTCHAR 1F34
ENCODING 7988
SWIDTH 600 0
DWIDTH 10 0
BBX 7 13 2 1
BITMAP
E6
2C
D8
00
F0
F0
30
30
30
30
30
3C
1C
ENDCHAR
STARTCHAR 1F35
ENCODING 7989
SWIDTH 600 0
DWIDTH 10 0
BBX 7 13 2 1
BITMAP
C6
8C
D8
00
F0
F0
30
30
30
30
30
3C
1C
ENDCHAR
STARTCHAR 1F36
ENCODING 7990
SWIDTH 600 0
DWIDTH 10 0
BBX 6 16 2 1
BITMAP
E4
98
00
30
10
30
00
F0
F0
30
30
30
30
30
3C
1C
ENDCHAR
STARTCHAR 1F37
ENCODING 7991
SWIDTH 600 0
DWIDTH 10 0
BBX 6 16 2 1
BITMAP
E4
9C
00
30
20
30
00
F0
F0
30
30
30
30
30
3C
1C
ENDCHAR
STARTCHAR 1F38
ENCODING 7992
SWIDTH 600 0
DWIDTH 10 0
BBX 11 13 -2 0
BITMAP
E000
2FE0
CFE0
0300
0300
0300
0300
0300
0300
0300
0300
0FE0
0FE0
ENDCHAR
STARTCHAR 1F39
ENCODING 7993
SWIDTH 600 0
DWIDTH 10 0
BBX 11 13 -2 1
BITMAP
E000
9FE0
7FE0
0300
0300
0300
0300
0300
0300
0300
0300
1FE0
1FE0
ENDCHAR
STARTCHAR 1F3A
ENCODING 7994
SWIDTH 600 0
DWIDTH 10 0
BBX 15 13 -6 0
BITMAP
D800
4DFE
C7FE
0030
0030
0030
0030
0030
0030
0030
0030
01FE
01FE
ENDCHAR
STARTCHAR 1F3B
ENCODING 7995
SWIDTH 600 0
DWIDTH 10 0
BBX 15 13 -7 1
BITMAP
EC00
86FE
63FE
0018
0018
0018
0018
0018
0018
0018
0018
00FE
00FE
ENDCHAR
STARTCHAR 1F3C
ENCODING 7996
SWIDTH 600 0
DWIDTH 10 0
BBX 13 13 -5 0
BITMAP
CC00
5BF8
F3F8
0060
0060
0060
0060
0060
0060
0060
0060
03F8
03F8
ENDCHAR
STARTCHAR 1F3D
ENCODING 7997
SWIDTH 600 0
DWIDTH 10 0
BBX 14 13 -6 1
BITMAP
E600
8DFC
79FC
0030
0030
0030
0030
0030
0030
0030
0030
01FC
01FC
ENDCHAR
STARTCHAR 1F3E
ENCODING 7998
SWIDTH 600 0
DWIDTH 10 0
BBX 12 16 -3 0
BITMAP
E800
9800
0000
7000
17F0
67F0
0180
0180
0180
0180
0180
0180
0180
0180
07F0
07F0
ENDCHAR
STARTCHAR 1F3F
ENCODING 7999
SWIDTH 600 0
DWIDTH 10 0
BBX 12 16 -3 0
BITMAP
E800
B800
0000
7000
47F0
37F0
0180
0180
0180
0180
0180
0180
0180
0180
07F0
07F0
ENDCHAR
STARTCHAR 1F40
ENCODING 8000
SWIDTH 600 0
DWIDTH 10 0
BBX 8 13 1 1
BITMAP
18
08
18
00
3C
7E
E7
C3
C3
C3
E7
7E
3C
ENDCHAR
STARTCHAR 1F41
ENCODING 8001
SWIDTH 600 0
DWIDTH 10 0
BBX 8 13 1 1
BITMAP
18
10
1C
00
3C
7E
E7
C3
C3
C3
E7
7E
3C
ENDCHAR
STARTCHAR 1F42
ENCODING 8002
SWIDTH 600 0
DWIDTH 10 0
BBX 8 13 1 1
BITMAP
EC
26
C3
00
3C
7E
E7
C3
C3
C3
E7
7E
3C
ENDCHAR
STARTCHAR 1F43
ENCODING 8003
SWIDTH 600 0
DWIDTH 10 0
BBX 8 13 1 1
BITMAP
EC
86
63
00
3C
7E
E7
C3
C3
C3
E7
7E
3C
ENDCHAR
STARTCHAR 1F44
ENCODING 8004
SWIDTH 600 0
DWIDTH 10 0
BBX 8 13 1 1
BITMAP
77
16
6C
00
3C
7E
E7
C3
C3
C3
E7
7E
3C
ENDCHAR
STARTCHAR 1F45
ENCODING 8005
SWIDTH 600 0
DWIDTH 10 0
BBX 8 13 1 1
BITMAP
63
46
6C
00
3C
7E
E7
C3
C3
C3
E7
7E
3C
ENDCHAR
STARTCHAR 1F48
ENCODING 8008
SWIDTH 600 0
DWIDTH 10 0
BBX 10 13 -1 0
BITMAP
C000
5F00
FF80
39C0
31C0
30C0
70C0
30C0
30C0
31C0
39C0
1F80
0F00
ENDCHAR
STARTCHAR 1F49
ENCODING 8009
SWIDTH 600 0
DWIDTH 10 0
BBX 11 13 -2 0
BITMAP
E000
8780
7FC0
1CE0
18E0
1860
3860
1860
1860
18E0
1CE0
0FC0
0780
ENDCHAR
STARTCHAR 1F4A
ENCODING 8010
SWIDTH 600 0
DWIDTH 10 0
BBX 16 13 -7 0
BITMAP
EC00
263C
E27E
00E7
00C3
00C3
01C3
00C3
00C3
00C3
00E7
007E
003C
ENDCHAR
STARTCHAR 1F4B
ENCODING 8011
SWIDTH 600 0
DWIDTH 10 0
BBX 16 13 -7 0
BITMAP
EC00
863C
63FE
00E6
00C7
00C7
01C3
00C3
00C7
00C7
00E6
007E
007C
ENDCHAR
STARTCHAR 1F4C
ENCODING 8012
SWIDTH 600 0
DWIDTH 10 0
BBX 13 13 -4 0
BITMAP
E600
2DE0
DBF0
0738
0718
0718
0718
0718
0718
0718
0338
03F0
01F0
ENDCHAR
STARTCHAR 1F4D
ENCODING 8013
SWIDTH 600 0
DWIDTH 10 0
BBX 13 13 -4 0
BITMAP
C600
8DE0
FBF0
0738
0718
0718
0718
0718
0718
0718
0338
03F0
01E0
ENDCHAR
STARTCHAR 1F50
ENCODING 8016
SWIDTH 600 0
DWIDTH 10 0
BBX 8 13 1 1
BITMAP
18
08
18
00
E7
E3
63
63
63
63
67
7E
3C
ENDCHAR
STARTCHAR 1F51
ENCODING 8017
SWIDTH 600 0
DWIDTH 10 0
BBX 8 13 1 1
BITMAP
18
10
1C
00
E7
E3
63
63
63
63
67
7E
3C
ENDCHAR
STARTCHAR 1F52
ENCODING 8018
SWIDTH 600 0
DWIDTH 10 0
BBX 8 13 1 1
BITMAP
EC
26
C3
00
E7
E3
63
63
63
63
67
7E
3C
ENDCHAR
STARTCHAR 1F53
ENCODING 8019
SWIDTH 600 0
DWIDTH 10 0
BBX 8 13 1 1
BITMAP
EC
86
63
00
E7
E3
63
63
63
63
67
7E
3C
ENDCHAR
STARTCHAR 1F54
ENCODING 8020
SWIDTH 600 0
DWIDTH 10 0
BBX 8 13 1 1
BITMAP
66
2C
78
00
E7
E3
63
63
63
63
67
7E
3C
ENDCHAR
STARTCHAR 1F55
ENCODING 8021
SWIDTH 600 0
DWIDTH 10 0
BBX 8 13 1 1
BITMAP
67
46
6C
00
E7
E3
63
63
63
63
67
7E
3C
ENDCHAR
STARTCHAR 1F56
ENCODING 8022
SWIDTH 600 0
DWIDTH 10 0
BBX 8 16 1 1
BITMAP
72
4C
00
18
08
18
00
E7
E3
63
63
63
63
67
7E
3C
ENDCHAR
STARTCHAR 1F57
ENCODING 8023
SWIDTH 600 0
DWIDTH 10 0
BBX 8 16 1 1
BITMAP
3A
6C
00
18
10
18
00
E7
E3
63
63
63
63
67
7E
3C
ENDCHAR
STARTCHAR 1F59
ENCODING 8025
SWIDTH 600 0
DWIDTH 10 0
BBX 13 13 -3 1
BITMAP
C000
9C38
CC30
0E70
0660
07E0
03C0
03C0
0180
0180
0180
0180
0180
ENDCHAR
STARTCHAR 1F5B
ENCODING 8027
SWIDTH 600 0
DWIDTH 10 0
BBX 17 13 -7 1
BITMAP
CC0000
86C380
E2E300
006700
007600
003E00
003C00
001C00
001800
001800
001800
001800
001800
ENDCHAR
STARTCHAR 1F5D
ENCODING 8029
SWIDTH 600 0
DWIDTH 10 0
BBX 17 13 -7 1
BITMAP
E60000
8DC380
F8C300
00E700
006600
007E00
003C00
003C00
001800
001800
001800
001800
001800
ENDCHAR
STARTCHAR 1F5F
ENCODING 8031
SWIDTH 600 0
DWIDTH 10 0
BBX 14 16 -5 0
BITMAP
F400
9C00
0000
3000
270C
331C
0398
01B8
01F0
00F0
00E0
0060
0060
0060
0060
0060
ENDCHAR
STARTCHAR 1F60
ENCODING 8032
SWIDTH 600 0
DWIDTH 10 0
BBX 9 13 1 1
BITMAP
1C00
0400
1800
0000
E300
C180
C180
D980
D980
D980
D980
FF80
7700
ENDCHAR
STARTCHAR 1F61
ENCODING 8033
SWIDTH 600 0
DWIDTH 10 0
BBX 9 13 1 1
BITMAP
1C00
1000
0C00
0000
E300
C380
C180
D980
D980
D980
D980
FF80
7700
ENDCHAR
STARTCHAR 1F62
ENCODING 8034
SWIDTH 600 0
DWIDTH 10 0
BBX 9 13 1 1
BITMAP
EC00
2600
E300
0000
E300
C380
C180
D980
D980
D980
D980
FF80
7700
ENDCHAR
STARTCHAR 1F63
ENCODING 8035
SWIDTH 600 0
DWIDTH 10 0
BBX 9 13 1 1
BITMAP
EC00
C600
6100
0000
C300
C380
C180
D980
D980
D980
D980
FF80
7700
ENDCHAR
STARTCHAR 1F64
ENCODING 8036
SWIDTH 600 0
DWIDTH 10 0
BBX 9 13 1 1
BITMAP
7300
1600
6C00
0000
E300
C380
C180
D980
D980
D980
D980
FF80
7700
ENDCHAR
STARTCHAR 1F65
ENCODING 8037
SWIDTH 600 0
DWIDTH 10 0
BBX 9 13 1 1
BITMAP
6300
4600
6C00
0000
C300
C380
C180
D980
D980
D980
D980
FF80
7700
ENDCHAR
STARTCHAR 1F66
ENCODING 8038
SWIDTH 600 0
DWIDTH 10 0
BBX 9 16 1 1
BITMAP
3A00
2E00
0000
1C00
0400
1800
0000
E300
C180
C180
D980
D980
D980
D980
FF80
7700
ENDCHAR
STARTCHAR 1F67
ENCODING 8039
SWIDTH 600 0
DWIDTH 10 0
BBX 9 16 1 1
BITMAP
3A00
2E00
0000
1C00
1000
0C00
0000
E300
C380
C180
D980
D980
D980
D980
FF80
7700
ENDCHAR
STARTCHAR 1F68
ENCODING 8040
SWIDTH 600 0
DWIDTH 10 0
BBX 10 13 -1 1
BITMAP
C000
4F00
FF80
3980
71C0
71C0
71C0
71C0
31C0
3180
1B80
7BC0
7BC0
ENDCHAR
STARTCHAR 1F69
ENCODING 8041
SWIDTH 600 0
DWIDTH 10 0
BBX 11 13 -2 1
BITMAP
E000
8780
7FC0
1CC0
38E0
38E0
38E0
38E0
38E0
18C0
0DC0
3DE0
3DE0
ENDCHAR
STARTCHAR 1F6A
ENCODING 8042
SWIDTH 600 0
DWIDTH 10 0
BBX 16 13 -7 1
BITMAP
EE00
263C
E37E
0066
00E7
00E7
00C7
00C7
00E7
0066
007E
00FF
00FF
ENDCHAR
STARTCHAR 1F6B
ENCODING 8043
SWIDTH 600 0
DWIDTH 10 0
BBX 16 13 -7 1
BITMAP
EC00
8638
62FE
00EE
01C6
01C7
01C7
01C7
01C7
00C6
00EE
01EF
01EF
ENDCHAR
STARTCHAR 1F6C
ENCODING 8044
SWIDTH 600 0
DWIDTH 10 0
BBX 13 13 -4 1
BITMAP
E600
2DE0
DBF0
0330
0738
0738
0638
0638
0738
0330
03F0
07F8
07F8
ENDCHAR
STARTCHAR 1F6D
ENCODING 8045
SWIDTH 600 0
DWIDTH 10 0
BBX 13 13 -4 1
BITMAP
E600
8DE0
7BF0
0330
0738
0738
0638
0638
0738
0330
03F0
07F8
07F8
ENDCHAR
STARTCHAR 1F6E
ENCODING 8046
SWIDTH 600 0
DWIDTH 10 0
BBX 12 16 -2 1
BITMAP
EC00
9800
0000
7000
1780
6FE0
0EE0
1C60
1C70
1C70
1C70
1C70
0C60
0EE0
1EF0
1EF0
ENDCHAR
STARTCHAR 1F6F
ENCODING 8047
SWIDTH 600 0
DWIDTH 10 0
BBX 12 16 -3 1
BITMAP
E800
B800
0000
7000
43C0
37E0
0660
0E70
0C70
0C70
0C70
0C70
0E60
07E0
0FF0
0FF0
ENDCHAR
STARTCHAR 1F70
ENCODING 8048
SWIDTH 600 0
DWIDTH 10 0
BBX 9 13 1 0
BITMAP
7000
3000
1800
0000
3F80
FF00
E700
C700
C600
C600
EF00
FF80
7B80
ENDCHAR
STARTCHAR 1F71
ENCODING 8049
SWIDTH 600 0
DWIDTH 10 0
BBX 9 13 1 0
BITMAP
0600
0C00
1800
0000
3F80
FF00
E700
C700
C600
C600
EF00
FF80
7B80
ENDCHAR
STARTCHAR 1F72
ENCODING 8050
SWIDTH 600 0
DWIDTH 10 0
BBX 7 13 1 0
BITMAP
60
30
10
00
7E
FE
C0
78
78
C0
C0
FE
7E
ENDCHAR
STARTCHAR 1F73
ENCODING 8051
SWIDTH 600 0
DWIDTH 10 0
BBX 7 13 1 0
BITMAP
0C
18
10
00
7E
FE
C0
78
78
C0
C0
FE
7E
ENDCHAR
STARTCHAR 1F74
ENCODING 8052
SWIDTH 600 0
DWIDTH 10 0
BBX 7 17 2 -3
BITMAP
60
20
30
00
DC
FE
CE
C6
C6
C6
C6
C6
C6
06
06
06
06
ENDCHAR
ENDFONT
